<svg width="28" height="32" viewBox="0 0 28 32" fill="none" xmlns="http://www.w3.org/2000/svg">
<path d="M6.83324 31.2912C6.26658 31.2912 5.77991 31.1945 5.37324 31.0012C4.97324 30.8078 4.60991 30.5178 4.28324 30.1312L5.18324 29.2312C5.38991 29.5045 5.62991 29.7178 5.90324 29.8712C6.17658 30.0178 6.50991 30.0912 6.90324 30.0912C7.25658 30.0912 7.53658 30.0212 7.74324 29.8812C7.95658 29.7412 8.06324 29.5478 8.06324 29.3012C8.06324 29.0878 8.00324 28.9145 7.88324 28.7812C7.76324 28.6478 7.60324 28.5345 7.40324 28.4412C7.20991 28.3478 6.99324 28.2645 6.75324 28.1912C6.51991 28.1112 6.28324 28.0212 6.04324 27.9212C5.80991 27.8212 5.59324 27.6978 5.39324 27.5512C5.19991 27.3978 5.04324 27.2045 4.92324 26.9712C4.80324 26.7312 4.74324 26.4312 4.74324 26.0712C4.74324 25.6445 4.84658 25.2812 5.05324 24.9812C5.25991 24.6812 5.54324 24.4512 5.90324 24.2912C6.26324 24.1312 6.66991 24.0512 7.12324 24.0512C7.60324 24.0512 8.03658 24.1412 8.42324 24.3212C8.80991 24.5012 9.12658 24.7345 9.37324 25.0212L8.47324 25.9212C8.26658 25.6945 8.05324 25.5278 7.83324 25.4212C7.61991 25.3145 7.37658 25.2612 7.10324 25.2612C6.78991 25.2612 6.54324 25.3212 6.36324 25.4412C6.18324 25.5612 6.09324 25.7345 6.09324 25.9612C6.09324 26.1545 6.15324 26.3112 6.27324 26.4312C6.39324 26.5512 6.54991 26.6545 6.74324 26.7412C6.94324 26.8278 7.15991 26.9112 7.39324 26.9912C7.63324 27.0712 7.86991 27.1612 8.10324 27.2612C8.34324 27.3612 8.55991 27.4912 8.75324 27.6512C8.95324 27.8112 9.11324 28.0178 9.23324 28.2712C9.35324 28.5178 9.41324 28.8245 9.41324 29.1912C9.41324 29.8445 9.18324 30.3578 8.72324 30.7312C8.26324 31.1045 7.63324 31.2912 6.83324 31.2912ZM10.8466 31.1912V26.3612H12.1666V31.1912H10.8466ZM11.5066 25.5812C11.2933 25.5812 11.1166 25.5112 10.9766 25.3712C10.8366 25.2245 10.7666 25.0445 10.7666 24.8312C10.7666 24.6245 10.8366 24.4478 10.9766 24.3012C11.1166 24.1545 11.2933 24.0812 11.5066 24.0812C11.7266 24.0812 11.9033 24.1545 12.0366 24.3012C12.1766 24.4478 12.2466 24.6245 12.2466 24.8312C12.2466 25.0445 12.1766 25.2245 12.0366 25.3712C11.9033 25.5112 11.7266 25.5812 11.5066 25.5812ZM14.5371 31.1912V24.3512H15.8471V31.1912H14.5371ZM13.4071 27.5112V26.3612H16.9771V27.5112H13.4071ZM20.4066 31.2912C19.8999 31.2912 19.4499 31.1845 19.0566 30.9712C18.6633 30.7512 18.3499 30.4512 18.1166 30.0712C17.8899 29.6912 17.7766 29.2578 17.7766 28.7712C17.7766 28.2912 17.8866 27.8645 18.1066 27.4912C18.3333 27.1112 18.6399 26.8112 19.0266 26.5912C19.4133 26.3645 19.8433 26.2512 20.3166 26.2512C20.7833 26.2512 21.1933 26.3578 21.5466 26.5712C21.9066 26.7778 22.1866 27.0645 22.3866 27.4312C22.5933 27.7912 22.6966 28.2012 22.6966 28.6612C22.6966 28.7478 22.6899 28.8378 22.6766 28.9312C22.6699 29.0178 22.6533 29.1178 22.6266 29.2312L18.5666 29.2412V28.2612L22.0166 28.2512L21.4866 28.6612C21.4733 28.3745 21.4199 28.1345 21.3266 27.9412C21.2399 27.7478 21.1099 27.6012 20.9366 27.5012C20.7699 27.3945 20.5633 27.3412 20.3166 27.3412C20.0566 27.3412 19.8299 27.4012 19.6366 27.5212C19.4433 27.6345 19.2933 27.7978 19.1866 28.0112C19.0866 28.2178 19.0366 28.4645 19.0366 28.7512C19.0366 29.0445 19.0899 29.3012 19.1966 29.5212C19.3099 29.7345 19.4699 29.9012 19.6766 30.0212C19.8833 30.1345 20.1233 30.1912 20.3966 30.1912C20.6433 30.1912 20.8666 30.1512 21.0666 30.0712C21.2666 29.9845 21.4399 29.8578 21.5866 29.6912L22.3566 30.4612C22.1233 30.7345 21.8366 30.9412 21.4966 31.0812C21.1633 31.2212 20.7999 31.2912 20.4066 31.2912Z" fill="white"/>
<path d="M25.2443 0.728152C25.2346 0.727721 25.2249 0.727958 25.2152 0.728859C24.437 0.801592 23.3123 1.86207 23.7284 2.51302C23.9294 2.82727 24.525 2.47032 24.8286 2.24976C25.2183 1.96661 25.6538 1.49105 25.572 1.02138C25.5475 0.880626 25.3908 0.734159 25.2443 0.728152ZM21.8027 1.06072C21.3124 1.0626 20.2051 2.25371 20.3059 3.02809C20.3448 3.32727 20.7374 3.59364 21.0429 3.56961C21.4832 3.53486 21.8084 3.03999 21.9647 2.6338C22.1516 2.14782 22.3797 1.27644 21.892 1.07668C21.8637 1.06553 21.8333 1.06006 21.8027 1.06072ZM21.951 4.3672C21.7026 4.36585 21.4548 4.39118 21.212 4.44275C20.4983 4.5947 19.8654 4.97232 19.5864 5.41449C19.5862 5.41496 19.586 5.41402 19.5857 5.41378C19.5869 5.41555 19.5892 5.42085 19.5962 5.4497C19.6116 5.51402 19.6688 5.64211 19.7517 5.79493C19.9176 6.10059 20.2357 6.51755 20.1298 7.11119C19.9875 7.90936 19.3841 8.39199 18.9377 8.81042C18.9092 8.8371 18.8837 8.86225 18.8567 8.88804C18.8686 8.95989 18.8783 9.03266 18.8857 9.10636C18.9381 9.62932 18.8974 10.1841 18.6812 10.6632C18.7331 10.7054 18.7851 10.738 18.8345 10.7568C19.2243 10.9041 19.9537 10.6643 20.4576 10.2977C20.7791 10.0638 21.0095 9.6871 21.2343 9.21172C21.4592 8.73633 21.6681 8.17791 22.029 7.66166C22.1596 7.47461 22.3055 7.3136 22.4513 7.16755C22.2984 6.73881 22.2515 6.27768 22.3902 5.83522C22.53 5.38916 22.8181 4.99328 23.1805 4.66602C23.1717 4.65954 23.1628 4.65247 23.1539 4.64717C22.8481 4.46696 22.4144 4.36979 21.951 4.3672ZM24.949 4.91843C24.9236 4.91818 24.8982 4.9197 24.8731 4.92297C24.7319 4.93946 24.5227 5.0159 24.3142 5.14476C23.897 5.40247 23.5025 5.88404 23.4199 6.1477C23.3738 6.29481 23.4002 6.68498 23.5289 6.9669C23.6354 7.20023 23.7498 7.28698 23.8181 7.31696C23.8395 7.27827 23.8675 7.2305 23.8998 7.12238C23.9831 6.84352 24.0246 6.43015 24.2229 6.02479C24.4265 5.60889 24.7462 5.30736 24.9256 5.05924C24.9781 4.98657 24.9827 4.96619 25.0043 4.9235C24.986 4.92045 24.9675 4.91867 24.949 4.91843ZM15.7683 5.7967L12.2464 8.39505C12.5055 9.04982 12.8634 10.2588 12.8634 10.2588L12.2746 11.0445L11.6018 10.1346L11.0673 8.49181H10.308L8.55666 11.0758L8.91062 12.7817L6.70434 10.8829L1.14656 15.3305L1.79018 16.7119L4.79257 16.3394L8.01631 14.494L11.0598 14.9761L11.5607 15.0489L11.3084 14.8422L11.3846 14.5234C11.5493 13.8345 12.0969 13.1903 12.8387 12.4398C13.5804 11.6893 14.5324 10.8949 15.5385 10.2031C15.6076 10.1555 15.6771 10.1085 15.7469 10.0618C15.8516 9.5646 16.1315 9.10618 16.4228 8.70683C16.6367 8.41354 16.868 8.15971 17.1111 7.96737C17.2326 7.87126 17.3557 7.78869 17.5084 7.72791C17.5847 7.69752 17.6763 7.66884 17.7792 7.66019C17.8949 7.65048 18.0113 7.66861 18.1183 7.71301C18.2189 7.75424 18.3033 7.80754 18.3752 7.86867C18.4065 7.83834 18.441 7.80624 18.471 7.77656L15.7683 5.7967ZM17.7362 8.84116C17.6074 8.95235 17.4472 9.12079 17.2983 9.32497C16.9715 9.77279 16.7666 10.3731 16.7911 10.5843C16.7935 10.584 16.807 10.6096 16.8471 10.6375C16.9038 10.677 16.9957 10.7028 17.0167 10.7035C17.1966 10.7092 17.5877 10.4612 17.6858 10.2571C17.783 10.0548 17.8512 9.58816 17.8133 9.21054C17.801 9.08508 17.775 8.96126 17.7362 8.84116ZM16.7911 10.5843C16.7902 10.5844 16.7905 10.5878 16.7925 10.599C16.7917 10.5946 16.7917 10.589 16.7911 10.5843ZM22.5382 10.3852C22.6323 10.8317 22.6156 11.3328 22.5401 11.8426C22.391 12.8483 21.9927 13.9751 21.4829 15.0737C21.2745 15.5216 21.0492 15.9617 20.8075 16.3932L22.0361 16.5717L27.5 17.9125L26.9897 14.6203L25.7035 12.4459L24.3007 12.9059L23.3335 14.6018L23.8801 12.0373L25.1461 11.5035L24.981 11.2245L22.5382 10.3852ZM21.5028 10.7864C21.384 10.9165 21.2509 11.0392 21.0986 11.1499C20.4216 11.6425 19.4291 12.1173 18.4477 11.7462C18.2791 11.6821 18.1202 11.5956 17.9755 11.4891C17.6904 11.6714 17.3514 11.7749 16.9812 11.763C16.6956 11.7537 16.446 11.6571 16.2241 11.5026C16.1193 11.4296 16.0175 11.3392 15.9323 11.2296C15.0645 11.8456 14.2421 12.5407 13.6113 13.1789C13.114 13.6821 12.7494 14.1771 12.5651 14.4926L13.9553 15.6316C14.3717 15.2284 14.9721 14.718 15.5854 14.2363C16.0019 13.9089 16.4112 13.6091 16.7623 13.3939C16.9377 13.2863 17.0949 13.1993 17.2626 13.1364C17.3464 13.1049 17.4325 13.077 17.5512 13.0676C17.6699 13.0582 17.8569 13.068 18.028 13.2082C18.199 13.3483 18.2428 13.5274 18.2549 13.644C18.2669 13.7606 18.2544 13.8489 18.2381 13.9357C18.2055 14.1095 18.147 14.2771 18.0711 14.4664C17.9194 14.8449 17.6936 15.295 17.4416 15.7573C17.0708 16.4375 16.6691 17.1108 16.3412 17.5864L17.7315 18.7255C18.0137 18.4902 18.4427 18.048 18.8559 17.4758C19.4249 16.6881 20.0214 15.6701 20.5024 14.6334C20.9836 13.5967 21.3483 12.5357 21.4735 11.6897C21.5262 11.3339 21.5321 11.0326 21.5028 10.7864ZM16.8069 14.6505C16.6212 14.785 16.4382 14.9231 16.258 15.0647C15.539 15.6296 14.8208 16.2839 14.5448 16.5714C14.5617 16.8591 14.6225 17.0478 14.6798 17.1092C14.7402 17.174 14.8809 17.2449 15.2952 17.1864C15.5326 16.8676 16.057 16.0543 16.4921 15.2564C16.601 15.0565 16.706 14.8545 16.8069 14.6505ZM14.0687 17.104L9.38672 22.6332C9.7996 22.6592 10.2229 22.6797 10.6554 22.6952L14.8487 17.7432L14.0687 17.104ZM12.151 17.7125C11.2712 17.7204 10.3917 17.7512 9.51353 17.8049L8.7825 18.7377L8.49176 17.88C7.22798 17.9862 6.06018 18.1388 5.02679 18.3281L4.9468 21.1361L4.25271 18.4817C4.1034 18.5138 3.95445 18.5476 3.80589 18.583C2.68796 18.85 1.79563 19.17 1.22684 19.4912C0.658062 19.8124 0.5 20.088 0.5 20.2116C0.5 20.3353 0.658062 20.6108 1.22684 20.932C1.79563 21.2532 2.68796 21.5732 3.80589 21.8402C5.00332 22.1262 6.46228 22.3555 8.09062 22.5074L12.151 17.7125ZM19.6395 18.2191C19.0619 19.0071 18.5389 19.6044 17.9142 19.8734L17.6092 20.0048L15.6769 18.4215L12.0458 22.7095C12.2474 22.7119 12.4499 22.7132 12.654 22.7132C16.1236 22.7132 19.2661 22.3743 21.502 21.8402C22.62 21.5732 23.5124 21.2532 24.0811 20.9321C24.6499 20.6108 24.808 20.3353 24.808 20.2116C24.808 20.088 24.6499 19.8124 24.0811 19.4912C23.5124 19.1701 22.62 18.85 21.5021 18.583C21.4322 18.5663 21.3587 18.5503 21.287 18.534L20.4381 21.5163L20.3347 18.3382C20.1035 18.2958 19.8717 18.256 19.6395 18.2191Z" fill="white"/>
</svg>
