<svg width="37" height="35" viewBox="0 0 37 35" fill="none" xmlns="http://www.w3.org/2000/svg">
<path d="M0.835234 32.0146V24.9846H2.19523V32.0146H0.835234ZM1.83523 29.1346V27.9246H5.37523V29.1346H1.83523ZM1.83523 26.1846V24.9846H5.54523V26.1846H1.83523ZM6.97648 32.0146V27.1846H8.28648V32.0146H6.97648ZM8.28648 29.3446L7.77648 29.0046C7.83648 28.4113 8.00982 27.9446 8.29648 27.6046C8.58315 27.258 8.99648 27.0846 9.53648 27.0846C9.76982 27.0846 9.97982 27.1246 10.1665 27.2046C10.3532 27.278 10.5232 27.4013 10.6765 27.5746L9.85648 28.5146C9.78315 28.4346 9.69315 28.3746 9.58648 28.3346C9.48648 28.2946 9.36982 28.2746 9.23648 28.2746C8.95648 28.2746 8.72648 28.3646 8.54648 28.5446C8.37315 28.718 8.28648 28.9846 8.28648 29.3446ZM11.6366 32.0146V27.1846H12.9566V32.0146H11.6366ZM12.2966 26.4046C12.0833 26.4046 11.9066 26.3346 11.7666 26.1946C11.6266 26.048 11.5566 25.868 11.5566 25.6546C11.5566 25.448 11.6266 25.2713 11.7666 25.1246C11.9066 24.978 12.0833 24.9046 12.2966 24.9046C12.5166 24.9046 12.6933 24.978 12.8266 25.1246C12.9666 25.2713 13.0366 25.448 13.0366 25.6546C13.0366 25.868 12.9666 26.048 12.8266 26.1946C12.6933 26.3346 12.5166 26.4046 12.2966 26.4046ZM16.9271 32.1146C16.4204 32.1146 15.9704 32.008 15.5771 31.7946C15.1838 31.5746 14.8704 31.2746 14.6371 30.8946C14.4104 30.5146 14.2971 30.0813 14.2971 29.5946C14.2971 29.1146 14.4071 28.688 14.6271 28.3146C14.8538 27.9346 15.1604 27.6346 15.5471 27.4146C15.9338 27.188 16.3638 27.0746 16.8371 27.0746C17.3038 27.0746 17.7138 27.1813 18.0671 27.3946C18.4271 27.6013 18.7071 27.888 18.9071 28.2546C19.1138 28.6146 19.2171 29.0246 19.2171 29.4846C19.2171 29.5713 19.2104 29.6613 19.1971 29.7546C19.1904 29.8413 19.1738 29.9413 19.1471 30.0546L15.0871 30.0646V29.0846L18.5371 29.0746L18.0071 29.4846C17.9938 29.198 17.9404 28.958 17.8471 28.7646C17.7604 28.5713 17.6304 28.4246 17.4571 28.3246C17.2904 28.218 17.0838 28.1646 16.8371 28.1646C16.5771 28.1646 16.3504 28.2246 16.1571 28.3446C15.9638 28.458 15.8138 28.6213 15.7071 28.8346C15.6071 29.0413 15.5571 29.288 15.5571 29.5746C15.5571 29.868 15.6104 30.1246 15.7171 30.3446C15.8304 30.558 15.9904 30.7246 16.1971 30.8446C16.4038 30.958 16.6438 31.0146 16.9171 31.0146C17.1638 31.0146 17.3871 30.9746 17.5871 30.8946C17.7871 30.808 17.9604 30.6813 18.1071 30.5146L18.8771 31.2846C18.6438 31.558 18.3571 31.7646 18.0171 31.9046C17.6838 32.0446 17.3204 32.1146 16.9271 32.1146ZM23.7773 32.0146V29.2446C23.7773 28.958 23.6873 28.7246 23.5073 28.5446C23.3273 28.3646 23.0939 28.2746 22.8073 28.2746C22.6206 28.2746 22.4539 28.3146 22.3073 28.3946C22.1606 28.4746 22.0439 28.588 21.9573 28.7346C21.8773 28.8813 21.8373 29.0513 21.8373 29.2446L21.3273 28.9846C21.3273 28.6046 21.4073 28.2746 21.5673 27.9946C21.7339 27.708 21.9606 27.4846 22.2473 27.3246C22.5406 27.1646 22.8706 27.0846 23.2373 27.0846C23.5906 27.0846 23.9073 27.1746 24.1873 27.3546C24.4673 27.528 24.6873 27.758 24.8473 28.0446C25.0073 28.3246 25.0873 28.628 25.0873 28.9546V32.0146H23.7773ZM20.5273 32.0146V27.1846H21.8373V32.0146H20.5273ZM28.6825 32.1146C28.2358 32.1146 27.8358 32.0046 27.4825 31.7846C27.1292 31.5646 26.8492 31.2646 26.6425 30.8846C26.4425 30.5046 26.3425 30.078 26.3425 29.6046C26.3425 29.1246 26.4425 28.6946 26.6425 28.3146C26.8492 27.9346 27.1258 27.6346 27.4725 27.4146C27.8258 27.1946 28.2292 27.0846 28.6825 27.0846C29.0292 27.0846 29.3392 27.1546 29.6125 27.2946C29.8925 27.4346 30.1158 27.6313 30.2825 27.8846C30.4558 28.1313 30.5492 28.4113 30.5625 28.7246V30.4446C30.5492 30.758 30.4592 31.0413 30.2925 31.2946C30.1258 31.548 29.9025 31.748 29.6225 31.8946C29.3425 32.0413 29.0292 32.1146 28.6825 32.1146ZM28.9025 30.9046C29.1492 30.9046 29.3625 30.8513 29.5425 30.7446C29.7292 30.6313 29.8725 30.478 29.9725 30.2846C30.0792 30.0846 30.1325 29.8546 30.1325 29.5946C30.1325 29.3413 30.0792 29.118 29.9725 28.9246C29.8725 28.7246 29.7292 28.5713 29.5425 28.4646C29.3625 28.3513 29.1525 28.2946 28.9125 28.2946C28.6658 28.2946 28.4492 28.3513 28.2625 28.4646C28.0825 28.578 27.9392 28.7313 27.8325 28.9246C27.7325 29.118 27.6825 29.3413 27.6825 29.5946C27.6825 29.8546 27.7325 30.0846 27.8325 30.2846C27.9392 30.478 28.0858 30.6313 28.2725 30.7446C28.4592 30.8513 28.6692 30.9046 28.9025 30.9046ZM31.3625 32.0146H30.0625V30.7146L30.2725 29.5346L30.0525 28.3746V24.7846H31.3625V32.0146ZM34.6814 32.1246C34.4081 32.1246 34.1381 32.088 33.8714 32.0146C33.6114 31.9413 33.3714 31.8413 33.1514 31.7146C32.9314 31.5813 32.7414 31.4213 32.5814 31.2346L33.3614 30.4446C33.5281 30.6313 33.7214 30.7713 33.9414 30.8646C34.1614 30.958 34.4047 31.0046 34.6714 31.0046C34.8847 31.0046 35.0447 30.9746 35.1514 30.9146C35.2647 30.8546 35.3214 30.7646 35.3214 30.6446C35.3214 30.5113 35.2614 30.408 35.1414 30.3346C35.0281 30.2613 34.8781 30.2013 34.6914 30.1546C34.5047 30.1013 34.3081 30.0446 34.1014 29.9846C33.9014 29.918 33.7081 29.8346 33.5214 29.7346C33.3347 29.628 33.1814 29.4846 33.0614 29.3046C32.9481 29.118 32.8914 28.878 32.8914 28.5846C32.8914 28.278 32.9647 28.0113 33.1114 27.7846C33.2647 27.558 33.4814 27.3813 33.7614 27.2546C34.0414 27.128 34.3714 27.0646 34.7514 27.0646C35.1514 27.0646 35.5114 27.1346 35.8314 27.2746C36.1581 27.4146 36.4281 27.6246 36.6414 27.9046L35.8514 28.6946C35.7047 28.5146 35.5381 28.3846 35.3514 28.3046C35.1714 28.2246 34.9747 28.1846 34.7614 28.1846C34.5681 28.1846 34.4181 28.2146 34.3114 28.2746C34.2114 28.3346 34.1614 28.418 34.1614 28.5246C34.1614 28.6446 34.2181 28.738 34.3314 28.8046C34.4514 28.8713 34.6047 28.9313 34.7914 28.9846C34.9781 29.0313 35.1714 29.088 35.3714 29.1546C35.5781 29.2146 35.7714 29.3013 35.9514 29.4146C36.1381 29.528 36.2881 29.678 36.4014 29.8646C36.5214 30.0513 36.5814 30.2913 36.5814 30.5846C36.5814 31.058 36.4114 31.4346 36.0714 31.7146C35.7314 31.988 35.2681 32.1246 34.6814 32.1246Z" fill="#FF80A4"/>
<path d="M23.9291 16.5263C25.1259 15.8648 24.9708 13.316 23.5839 10.8293C22.9889 9.75853 22.2574 8.89146 21.5259 8.28529C20.6511 8.93075 19.5916 9.28082 18.5023 9.28426C17.4113 9.28186 16.3499 8.93174 15.4738 8.28529C14.7423 8.89146 14.0128 9.75949 13.4158 10.8293C12.0279 13.315 11.8748 15.8648 13.0745 16.5263C13.609 16.8289 14.1727 16.6019 14.754 16.0452C14.6451 16.645 14.5906 17.2533 14.5911 17.8628C14.5911 20.7122 15.703 23.0147 17.0715 23.0147C17.8966 23.0147 18.3053 22.1758 18.5013 20.8926C18.6964 22.167 19.106 23.0147 19.9253 23.0147C21.2879 23.0147 22.4086 20.7113 22.4086 17.8628C22.4086 17.2226 22.3481 16.6116 22.2447 16.0462C22.8299 16.6039 23.3917 16.8347 23.9282 16.5282L23.9291 16.5263ZM18.5003 8.31439C19.0537 8.32261 19.6032 8.2213 20.1169 8.01636C20.6305 7.81142 21.098 7.50694 21.4922 7.12064C21.8864 6.73434 22.1994 6.27395 22.4129 5.76624C22.6265 5.25853 22.7364 4.71366 22.7362 4.16332C22.736 3.61299 22.6257 3.06819 22.4118 2.56063C22.1979 2.05308 21.8846 1.5929 21.4901 1.20687C21.0956 0.820853 20.6279 0.516701 20.1141 0.312118C19.6004 0.107536 19.0508 0.00660934 18.4974 0.0152129C17.4017 0.0322482 16.3567 0.477126 15.588 1.25378C14.8194 2.03044 14.3888 3.07655 14.3891 4.16623C14.3895 5.25592 14.8209 6.30173 15.5901 7.07785C16.3593 7.85397 17.4046 8.29812 18.5003 8.31439ZM26.8825 10.9466C27.7738 10.9207 28.6198 10.5504 29.241 9.91439C29.8622 9.27834 30.2097 8.4266 30.2097 7.53995C30.2097 6.6533 29.8622 5.80155 29.241 5.16551C28.6198 4.52946 27.7738 4.15918 26.8825 4.13328C25.9736 4.13341 25.102 4.49255 24.4595 5.1317C23.8169 5.77084 23.456 6.63764 23.4561 7.5414C23.4562 8.44516 23.8174 9.31186 24.4601 9.95082C25.1029 10.5898 25.9746 10.9487 26.8835 10.9486L26.8825 10.9466ZM31.057 13.0124C30.5674 12.1318 29.9685 11.4199 29.3677 10.9224C28.649 11.4519 27.7789 11.739 26.8844 11.7419C26.1471 11.7419 25.4604 11.5411 24.8596 11.2085C25.3434 12.2685 25.6428 13.3422 25.6984 14.3024C25.7901 15.7727 25.3278 16.8628 24.4032 17.372C24.2051 17.4806 23.9896 17.5541 23.7662 17.5893C23.7107 17.9694 23.6726 18.3651 23.6726 18.7822C23.6726 21.1225 24.5846 23.0128 25.7091 23.0128C26.386 23.0128 26.7235 22.3242 26.8835 21.2709C27.0424 22.3183 27.3789 23.0128 28.0539 23.0128C29.1707 23.0128 30.0924 21.1215 30.0924 18.7841C30.0924 18.2575 30.0407 17.7561 29.9558 17.2905C30.4357 17.7493 30.898 17.9384 31.3389 17.6862C32.321 17.1431 32.1942 15.0501 31.056 13.0115L31.057 13.0124ZM10.1182 10.9466C10.7956 10.9462 11.4577 10.7461 12.0207 10.3716C12.5838 9.99712 13.0225 9.46501 13.2815 8.84258C13.5404 8.22015 13.608 7.53534 13.4756 6.87473C13.3432 6.21412 13.0168 5.60738 12.5377 5.13121C12.0586 4.65504 11.4482 4.33083 10.7838 4.19956C10.1194 4.06829 9.43073 4.13585 8.80493 4.39372C8.17913 4.65158 7.64426 5.08816 7.26796 5.64826C6.89165 6.20836 6.69081 6.86684 6.69081 7.54043C6.69106 8.44424 7.05225 9.31096 7.69495 9.95006C8.33765 10.5891 9.20927 10.9483 10.1182 10.9486V10.9466ZM12.5907 17.3691C11.0379 16.5108 10.8955 13.9513 12.1459 11.2065C11.5279 11.5555 10.8299 11.7403 10.1192 11.7429C9.18673 11.7429 8.33232 11.4325 7.63202 10.9224C7.03218 11.4189 6.43429 12.1308 5.94271 13.0105C4.80448 15.0511 4.67963 17.1441 5.66279 17.6853C6.10169 17.9355 6.56499 17.7483 7.04193 17.2915C6.95515 17.7841 6.9111 18.2831 6.91026 18.7832C6.91026 21.1225 7.82221 23.0118 8.94679 23.0118C9.62368 23.0118 9.96115 22.3232 10.1211 21.2709C10.282 22.3183 10.6185 23.0128 11.2915 23.0128C12.4103 23.0128 13.33 21.1215 13.33 18.7841C13.33 18.3642 13.291 17.9675 13.2354 17.5873C13.0096 17.5523 12.7917 17.4781 12.5917 17.3681L12.5907 17.3691Z" fill="#FF80A4"/>
</svg>
