<svg width="37" height="35" viewBox="0 0 37 35" fill="none" xmlns="http://www.w3.org/2000/svg">
<path d="M0.835234 31.1912V24.1612H2.19523V31.1912H0.835234ZM1.83523 28.3112V27.1012H5.37523V28.3112H1.83523ZM1.83523 25.3612V24.1612H5.54523V25.3612H1.83523ZM6.97648 31.1912V26.3612H8.28648V31.1912H6.97648ZM8.28648 28.5212L7.77648 28.1812C7.83648 27.5878 8.00982 27.1212 8.29648 26.7812C8.58315 26.4345 8.99648 26.2612 9.53648 26.2612C9.76982 26.2612 9.97982 26.3012 10.1665 26.3812C10.3532 26.4545 10.5232 26.5778 10.6765 26.7512L9.85648 27.6912C9.78315 27.6112 9.69315 27.5512 9.58648 27.5112C9.48648 27.4712 9.36982 27.4512 9.23648 27.4512C8.95648 27.4512 8.72648 27.5412 8.54648 27.7212C8.37315 27.8945 8.28648 28.1612 8.28648 28.5212ZM11.6366 31.1912V26.3612H12.9566V31.1912H11.6366ZM12.2966 25.5812C12.0833 25.5812 11.9066 25.5112 11.7666 25.3712C11.6266 25.2245 11.5566 25.0445 11.5566 24.8312C11.5566 24.6245 11.6266 24.4478 11.7666 24.3012C11.9066 24.1545 12.0833 24.0812 12.2966 24.0812C12.5166 24.0812 12.6933 24.1545 12.8266 24.3012C12.9666 24.4478 13.0366 24.6245 13.0366 24.8312C13.0366 25.0445 12.9666 25.2245 12.8266 25.3712C12.6933 25.5112 12.5166 25.5812 12.2966 25.5812ZM16.9271 31.2912C16.4204 31.2912 15.9704 31.1845 15.5771 30.9712C15.1838 30.7512 14.8704 30.4512 14.6371 30.0712C14.4104 29.6912 14.2971 29.2578 14.2971 28.7712C14.2971 28.2912 14.4071 27.8645 14.6271 27.4912C14.8538 27.1112 15.1604 26.8112 15.5471 26.5912C15.9338 26.3645 16.3638 26.2512 16.8371 26.2512C17.3038 26.2512 17.7138 26.3578 18.0671 26.5712C18.4271 26.7778 18.7071 27.0645 18.9071 27.4312C19.1138 27.7912 19.2171 28.2012 19.2171 28.6612C19.2171 28.7478 19.2104 28.8378 19.1971 28.9312C19.1904 29.0178 19.1738 29.1178 19.1471 29.2312L15.0871 29.2412V28.2612L18.5371 28.2512L18.0071 28.6612C17.9938 28.3745 17.9404 28.1345 17.8471 27.9412C17.7604 27.7478 17.6304 27.6012 17.4571 27.5012C17.2904 27.3945 17.0838 27.3412 16.8371 27.3412C16.5771 27.3412 16.3504 27.4012 16.1571 27.5212C15.9638 27.6345 15.8138 27.7978 15.7071 28.0112C15.6071 28.2178 15.5571 28.4645 15.5571 28.7512C15.5571 29.0445 15.6104 29.3012 15.7171 29.5212C15.8304 29.7345 15.9904 29.9012 16.1971 30.0212C16.4038 30.1345 16.6438 30.1912 16.9171 30.1912C17.1638 30.1912 17.3871 30.1512 17.5871 30.0712C17.7871 29.9845 17.9604 29.8578 18.1071 29.6912L18.8771 30.4612C18.6438 30.7345 18.3571 30.9412 18.0171 31.0812C17.6838 31.2212 17.3204 31.2912 16.9271 31.2912ZM23.7773 31.1912V28.4212C23.7773 28.1345 23.6873 27.9012 23.5073 27.7212C23.3273 27.5412 23.0939 27.4512 22.8073 27.4512C22.6206 27.4512 22.4539 27.4912 22.3073 27.5712C22.1606 27.6512 22.0439 27.7645 21.9573 27.9112C21.8773 28.0578 21.8373 28.2278 21.8373 28.4212L21.3273 28.1612C21.3273 27.7812 21.4073 27.4512 21.5673 27.1712C21.7339 26.8845 21.9606 26.6612 22.2473 26.5012C22.5406 26.3412 22.8706 26.2612 23.2373 26.2612C23.5906 26.2612 23.9073 26.3512 24.1873 26.5312C24.4673 26.7045 24.6873 26.9345 24.8473 27.2212C25.0073 27.5012 25.0873 27.8045 25.0873 28.1312V31.1912H23.7773ZM20.5273 31.1912V26.3612H21.8373V31.1912H20.5273ZM28.6825 31.2912C28.2358 31.2912 27.8358 31.1812 27.4825 30.9612C27.1292 30.7412 26.8492 30.4412 26.6425 30.0612C26.4425 29.6812 26.3425 29.2545 26.3425 28.7812C26.3425 28.3012 26.4425 27.8712 26.6425 27.4912C26.8492 27.1112 27.1258 26.8112 27.4725 26.5912C27.8258 26.3712 28.2292 26.2612 28.6825 26.2612C29.0292 26.2612 29.3392 26.3312 29.6125 26.4712C29.8925 26.6112 30.1158 26.8078 30.2825 27.0612C30.4558 27.3078 30.5492 27.5878 30.5625 27.9012V29.6212C30.5492 29.9345 30.4592 30.2178 30.2925 30.4712C30.1258 30.7245 29.9025 30.9245 29.6225 31.0712C29.3425 31.2178 29.0292 31.2912 28.6825 31.2912ZM28.9025 30.0812C29.1492 30.0812 29.3625 30.0278 29.5425 29.9212C29.7292 29.8078 29.8725 29.6545 29.9725 29.4612C30.0792 29.2612 30.1325 29.0312 30.1325 28.7712C30.1325 28.5178 30.0792 28.2945 29.9725 28.1012C29.8725 27.9012 29.7292 27.7478 29.5425 27.6412C29.3625 27.5278 29.1525 27.4712 28.9125 27.4712C28.6658 27.4712 28.4492 27.5278 28.2625 27.6412C28.0825 27.7545 27.9392 27.9078 27.8325 28.1012C27.7325 28.2945 27.6825 28.5178 27.6825 28.7712C27.6825 29.0312 27.7325 29.2612 27.8325 29.4612C27.9392 29.6545 28.0858 29.8078 28.2725 29.9212C28.4592 30.0278 28.6692 30.0812 28.9025 30.0812ZM31.3625 31.1912H30.0625V29.8912L30.2725 28.7112L30.0525 27.5512V23.9612H31.3625V31.1912ZM34.6814 31.3012C34.4081 31.3012 34.1381 31.2645 33.8714 31.1912C33.6114 31.1178 33.3714 31.0178 33.1514 30.8912C32.9314 30.7578 32.7414 30.5978 32.5814 30.4112L33.3614 29.6212C33.5281 29.8078 33.7214 29.9478 33.9414 30.0412C34.1614 30.1345 34.4047 30.1812 34.6714 30.1812C34.8847 30.1812 35.0447 30.1512 35.1514 30.0912C35.2647 30.0312 35.3214 29.9412 35.3214 29.8212C35.3214 29.6878 35.2614 29.5845 35.1414 29.5112C35.0281 29.4378 34.8781 29.3778 34.6914 29.3312C34.5047 29.2778 34.3081 29.2212 34.1014 29.1612C33.9014 29.0945 33.7081 29.0112 33.5214 28.9112C33.3347 28.8045 33.1814 28.6612 33.0614 28.4812C32.9481 28.2945 32.8914 28.0545 32.8914 27.7612C32.8914 27.4545 32.9647 27.1878 33.1114 26.9612C33.2647 26.7345 33.4814 26.5578 33.7614 26.4312C34.0414 26.3045 34.3714 26.2412 34.7514 26.2412C35.1514 26.2412 35.5114 26.3112 35.8314 26.4512C36.1581 26.5912 36.4281 26.8012 36.6414 27.0812L35.8514 27.8712C35.7047 27.6912 35.5381 27.5612 35.3514 27.4812C35.1714 27.4012 34.9747 27.3612 34.7614 27.3612C34.5681 27.3612 34.4181 27.3912 34.3114 27.4512C34.2114 27.5112 34.1614 27.5945 34.1614 27.7012C34.1614 27.8212 34.2181 27.9145 34.3314 27.9812C34.4514 28.0478 34.6047 28.1078 34.7914 28.1612C34.9781 28.2078 35.1714 28.2645 35.3714 28.3312C35.5781 28.3912 35.7714 28.4778 35.9514 28.5912C36.1381 28.7045 36.2881 28.8545 36.4014 29.0412C36.5214 29.2278 36.5814 29.4678 36.5814 29.7612C36.5814 30.2345 36.4114 30.6112 36.0714 30.8912C35.7314 31.1645 35.2681 31.3012 34.6814 31.3012Z" fill="#FF80A4"/>
<path d="M23.9291 16.5111C25.1259 15.8788 24.9708 13.4424 23.5839 11.0654C22.9889 10.0419 22.2574 9.21308 21.5259 8.63365C20.6511 9.25064 19.5916 9.58526 18.5023 9.58855C17.4113 9.58625 16.3499 9.25158 15.4738 8.63365C14.7423 9.21308 14.0128 10.0428 13.4158 11.0654C12.0279 13.4415 11.8748 15.8788 13.0745 16.5111C13.609 16.8003 14.1727 16.5834 14.754 16.0512C14.6451 16.6245 14.5906 17.206 14.5911 17.7886C14.5911 20.5123 15.703 22.7132 17.0715 22.7132C17.8966 22.7132 18.3053 21.9113 18.5013 20.6848C18.6964 21.903 19.106 22.7132 19.9253 22.7132C21.2879 22.7132 22.4086 20.5114 22.4086 17.7886C22.4086 17.1767 22.3481 16.5926 22.2447 16.0522C22.8299 16.5852 23.3917 16.8059 23.9282 16.5129L23.9291 16.5111ZM18.5003 8.66146C19.0537 8.66932 19.6032 8.57248 20.1169 8.37658C20.6305 8.18068 21.098 7.88964 21.4922 7.52038C21.8864 7.15113 22.1994 6.71104 22.4129 6.22573C22.6265 5.74042 22.7364 5.21959 22.7362 4.69353C22.736 4.16748 22.6257 3.64672 22.4118 3.16155C22.1979 2.67639 21.8846 2.23651 21.4901 1.86752C21.0956 1.49853 20.6279 1.20779 20.1141 1.01223C19.6004 0.816678 19.0508 0.720204 18.4974 0.728428C17.4017 0.744712 16.3567 1.16996 15.588 1.91235C14.8194 2.65475 14.3888 3.65471 14.3891 4.69632C14.3895 5.73792 14.8209 6.7376 15.5901 7.47948C16.3593 8.22136 17.4046 8.64591 18.5003 8.66146ZM26.8825 11.1776C27.7738 11.1528 28.6198 10.7989 29.241 10.1909C29.8622 9.58289 30.2097 8.76872 30.2097 7.92119C30.2097 7.07366 29.8622 6.25949 29.241 5.6515C28.6198 5.04352 27.7738 4.68958 26.8825 4.66482C25.9736 4.66494 25.102 5.00824 24.4595 5.61919C23.8169 6.23013 23.456 7.05869 23.4561 7.92258C23.4562 8.78647 23.8174 9.61493 24.4601 10.2257C25.1029 10.8365 25.9746 11.1795 26.8835 11.1794L26.8825 11.1776ZM31.057 13.1522C30.5674 12.3105 29.9685 11.63 29.3677 11.1544C28.649 11.6605 27.7789 11.935 26.8844 11.9378C26.1471 11.9378 25.4604 11.7459 24.8596 11.4279C25.3434 12.4412 25.6428 13.4675 25.6984 14.3853C25.7901 15.7907 25.3278 16.8328 24.4032 17.3195C24.2051 17.4233 23.9896 17.4935 23.7662 17.5271C23.7107 17.8906 23.6726 18.2688 23.6726 18.6675C23.6726 20.9045 24.5846 22.7114 25.7091 22.7114C26.386 22.7114 26.7235 22.0532 26.8835 21.0463C27.0424 22.0476 27.3789 22.7114 28.0539 22.7114C29.1707 22.7114 30.0924 20.9036 30.0924 18.6693C30.0924 18.1659 30.0407 17.6866 29.9558 17.2416C30.4357 17.6801 30.898 17.8609 31.3389 17.6199C32.321 17.1007 32.1942 15.1 31.056 13.1513L31.057 13.1522ZM10.1182 11.1776C10.7956 11.1772 11.4577 10.9859 12.0207 10.6279C12.5838 10.27 13.0225 9.76132 13.2815 9.16635C13.5404 8.57138 13.608 7.91678 13.4756 7.28532C13.3432 6.65386 13.0168 6.07388 12.5377 5.61872C12.0586 5.16356 11.4482 4.85365 10.7838 4.72817C10.1194 4.60269 9.43073 4.66728 8.80493 4.91376C8.17913 5.16025 7.64426 5.57757 7.26796 6.11296C6.89165 6.64835 6.69081 7.27777 6.69081 7.92165C6.69106 8.78559 7.05225 9.61407 7.69495 10.225C8.33765 10.8359 9.20927 11.1792 10.1182 11.1794V11.1776ZM12.5907 17.3167C11.0379 16.4962 10.8955 14.0497 12.1459 11.426C11.5279 11.7596 10.8299 11.9362 10.1192 11.9387C9.18673 11.9387 8.33232 11.642 7.63202 11.1544C7.03218 11.6291 6.43429 12.3095 5.94271 13.1504C4.80448 15.101 4.67963 17.1016 5.66279 17.6189C6.10169 17.8581 6.56499 17.6792 7.04193 17.2425C6.95515 17.7134 6.9111 18.1904 6.91026 18.6684C6.91026 20.9045 7.82221 22.7105 8.94679 22.7105C9.62368 22.7105 9.96115 22.0522 10.1211 21.0463C10.282 22.0476 10.6185 22.7114 11.2915 22.7114C12.4103 22.7114 13.33 20.9036 13.33 18.6693C13.33 18.2679 13.291 17.8887 13.2354 17.5253C13.0096 17.4918 12.7917 17.4209 12.5917 17.3158L12.5907 17.3167Z" fill="#FF80A4"/>
</svg>
