<svg width="42" height="35" viewBox="0 0 42 35" fill="none" xmlns="http://www.w3.org/2000/svg">
<path d="M1.08133 28.2512V27.1912H2.71133C3.04466 27.1912 3.30133 27.1078 3.48133 26.9412C3.668 26.7678 3.76133 26.5312 3.76133 26.2312C3.76133 25.9578 3.668 25.7312 3.48133 25.5512C3.30133 25.3645 3.04466 25.2712 2.71133 25.2712H1.08133V24.1612H2.83133C3.28466 24.1612 3.68133 24.2512 4.02133 24.4312C4.36799 24.6045 4.63466 24.8445 4.82133 25.1512C5.01466 25.4578 5.11133 25.8112 5.11133 26.2112C5.11133 26.6245 5.01466 26.9845 4.82133 27.2912C4.63466 27.5912 4.36799 27.8278 4.02133 28.0012C3.67466 28.1678 3.27133 28.2512 2.81133 28.2512H1.08133ZM0.0813282 31.1912V24.1612H1.44133V31.1912H0.0813282ZM3.92133 31.1912L1.60133 28.1512L2.85133 27.7612L5.57133 31.1912H3.92133ZM8.87438 31.2912C8.36771 31.2912 7.91771 31.1845 7.52438 30.9712C7.13104 30.7512 6.81771 30.4512 6.58438 30.0712C6.35771 29.6912 6.24438 29.2578 6.24438 28.7712C6.24438 28.2912 6.35438 27.8645 6.57438 27.4912C6.80104 27.1112 7.10771 26.8112 7.49438 26.5912C7.88104 26.3645 8.31104 26.2512 8.78438 26.2512C9.25104 26.2512 9.66104 26.3578 10.0144 26.5712C10.3744 26.7778 10.6544 27.0645 10.8544 27.4312C11.061 27.7912 11.1644 28.2012 11.1644 28.6612C11.1644 28.7478 11.1577 28.8378 11.1444 28.9312C11.1377 29.0178 11.121 29.1178 11.0944 29.2312L7.03438 29.2412V28.2612L10.4844 28.2512L9.95438 28.6612C9.94104 28.3745 9.88771 28.1345 9.79438 27.9412C9.70771 27.7478 9.57771 27.6012 9.40438 27.5012C9.23771 27.3945 9.03104 27.3412 8.78438 27.3412C8.52438 27.3412 8.29771 27.4012 8.10438 27.5212C7.91104 27.6345 7.76104 27.7978 7.65438 28.0112C7.55438 28.2178 7.50438 28.4645 7.50438 28.7512C7.50438 29.0445 7.55771 29.3012 7.66438 29.5212C7.77771 29.7345 7.93771 29.9012 8.14438 30.0212C8.35104 30.1345 8.59104 30.1912 8.86438 30.1912C9.11104 30.1912 9.33438 30.1512 9.53438 30.0712C9.73438 29.9845 9.90771 29.8578 10.0544 29.6912L10.8244 30.4612C10.591 30.7345 10.3044 30.9412 9.96438 31.0812C9.63104 31.2212 9.26771 31.2912 8.87438 31.2912ZM13.7059 31.1912L11.8959 26.3612H13.2159L14.3959 29.8712L13.9959 29.8812L15.2059 26.3612H16.1559L17.3659 29.8812L16.9659 29.8712L18.1459 26.3612H19.4659L17.6659 31.1912H16.7159L15.4959 27.8512H15.8659L14.6459 31.1912H13.7059ZM22.5141 31.2912C22.0741 31.2912 21.6774 31.1812 21.3241 30.9612C20.9707 30.7412 20.6941 30.4412 20.4941 30.0612C20.2941 29.6812 20.1941 29.2545 20.1941 28.7812C20.1941 28.3012 20.2941 27.8712 20.4941 27.4912C20.6941 27.1112 20.9707 26.8112 21.3241 26.5912C21.6774 26.3712 22.0741 26.2612 22.5141 26.2612C22.8607 26.2612 23.1707 26.3312 23.4441 26.4712C23.7174 26.6112 23.9341 26.8078 24.0941 27.0612C24.2607 27.3078 24.3507 27.5878 24.3641 27.9012V29.6412C24.3507 29.9612 24.2607 30.2445 24.0941 30.4912C23.9341 30.7378 23.7174 30.9345 23.4441 31.0812C23.1707 31.2212 22.8607 31.2912 22.5141 31.2912ZM22.7541 30.0812C23.1207 30.0812 23.4174 29.9612 23.6441 29.7212C23.8707 29.4745 23.9841 29.1578 23.9841 28.7712C23.9841 28.5178 23.9307 28.2945 23.8241 28.1012C23.7241 27.9012 23.5807 27.7478 23.3941 27.6412C23.2141 27.5278 23.0007 27.4712 22.7541 27.4712C22.5141 27.4712 22.3007 27.5278 22.1141 27.6412C21.9341 27.7478 21.7907 27.9012 21.6841 28.1012C21.5841 28.2945 21.5341 28.5178 21.5341 28.7712C21.5341 29.0312 21.5841 29.2612 21.6841 29.4612C21.7907 29.6545 21.9341 29.8078 22.1141 29.9212C22.3007 30.0278 22.5141 30.0812 22.7541 30.0812ZM23.9141 31.1912V29.8912L24.1241 28.7112L23.9141 27.5512V26.3612H25.2141V31.1912H23.9141ZM26.873 31.1912V26.3612H28.183V31.1912H26.873ZM28.183 28.5212L27.673 28.1812C27.733 27.5878 27.9063 27.1212 28.193 26.7812C28.4796 26.4345 28.893 26.2612 29.433 26.2612C29.6663 26.2612 29.8763 26.3012 30.063 26.3812C30.2496 26.4545 30.4196 26.5778 30.573 26.7512L29.753 27.6912C29.6796 27.6112 29.5896 27.5512 29.483 27.5112C29.383 27.4712 29.2663 27.4512 29.133 27.4512C28.853 27.4512 28.623 27.5412 28.443 27.7212C28.2696 27.8945 28.183 28.1612 28.183 28.5212ZM33.4364 31.2912C32.9897 31.2912 32.5897 31.1812 32.2364 30.9612C31.8831 30.7412 31.6031 30.4412 31.3964 30.0612C31.1964 29.6812 31.0964 29.2545 31.0964 28.7812C31.0964 28.3012 31.1964 27.8712 31.3964 27.4912C31.6031 27.1112 31.8797 26.8112 32.2264 26.5912C32.5797 26.3712 32.9831 26.2612 33.4364 26.2612C33.7831 26.2612 34.0931 26.3312 34.3664 26.4712C34.6464 26.6112 34.8697 26.8078 35.0364 27.0612C35.2097 27.3078 35.3031 27.5878 35.3164 27.9012V29.6212C35.3031 29.9345 35.2131 30.2178 35.0464 30.4712C34.8797 30.7245 34.6564 30.9245 34.3764 31.0712C34.0964 31.2178 33.7831 31.2912 33.4364 31.2912ZM33.6564 30.0812C33.9031 30.0812 34.1164 30.0278 34.2964 29.9212C34.4831 29.8078 34.6264 29.6545 34.7264 29.4612C34.8331 29.2612 34.8864 29.0312 34.8864 28.7712C34.8864 28.5178 34.8331 28.2945 34.7264 28.1012C34.6264 27.9012 34.4831 27.7478 34.2964 27.6412C34.1164 27.5278 33.9064 27.4712 33.6664 27.4712C33.4197 27.4712 33.2031 27.5278 33.0164 27.6412C32.8364 27.7545 32.6931 27.9078 32.5864 28.1012C32.4864 28.2945 32.4364 28.5178 32.4364 28.7712C32.4364 29.0312 32.4864 29.2612 32.5864 29.4612C32.6931 29.6545 32.8397 29.8078 33.0264 29.9212C33.2131 30.0278 33.4231 30.0812 33.6564 30.0812ZM36.1164 31.1912H34.8164V29.8912L35.0264 28.7112L34.8064 27.5512V23.9612H36.1164V31.1912ZM39.4353 31.3012C39.162 31.3012 38.892 31.2645 38.6253 31.1912C38.3653 31.1178 38.1253 31.0178 37.9053 30.8912C37.6853 30.7578 37.4953 30.5978 37.3353 30.4112L38.1153 29.6212C38.282 29.8078 38.4753 29.9478 38.6953 30.0412C38.9153 30.1345 39.1586 30.1812 39.4253 30.1812C39.6386 30.1812 39.7986 30.1512 39.9053 30.0912C40.0186 30.0312 40.0753 29.9412 40.0753 29.8212C40.0753 29.6878 40.0153 29.5845 39.8953 29.5112C39.782 29.4378 39.632 29.3778 39.4453 29.3312C39.2586 29.2778 39.062 29.2212 38.8553 29.1612C38.6553 29.0945 38.462 29.0112 38.2753 28.9112C38.0886 28.8045 37.9353 28.6612 37.8153 28.4812C37.702 28.2945 37.6453 28.0545 37.6453 27.7612C37.6453 27.4545 37.7186 27.1878 37.8653 26.9612C38.0186 26.7345 38.2353 26.5578 38.5153 26.4312C38.7953 26.3045 39.1253 26.2412 39.5053 26.2412C39.9053 26.2412 40.2653 26.3112 40.5853 26.4512C40.912 26.5912 41.182 26.8012 41.3953 27.0812L40.6053 27.8712C40.4586 27.6912 40.292 27.5612 40.1053 27.4812C39.9253 27.4012 39.7286 27.3612 39.5153 27.3612C39.322 27.3612 39.172 27.3912 39.0653 27.4512C38.9653 27.5112 38.9153 27.5945 38.9153 27.7012C38.9153 27.8212 38.972 27.9145 39.0853 27.9812C39.2053 28.0478 39.3586 28.1078 39.5453 28.1612C39.732 28.2078 39.9253 28.2645 40.1253 28.3312C40.332 28.3912 40.5253 28.4778 40.7053 28.5912C40.892 28.7045 41.042 28.8545 41.1553 29.0412C41.2753 29.2278 41.3353 29.4678 41.3353 29.7612C41.3353 30.2345 41.1653 30.6112 40.8253 30.8912C40.4853 31.1645 40.022 31.3012 39.4353 31.3012Z" fill="#FF80A4"/>
<path d="M6.30005 6.3676C6.36818 6.18138 6.63161 6.18138 6.69974 6.3676L6.90327 6.92341C7.06289 7.35943 7.31567 7.75541 7.64399 8.08373C7.97232 8.41206 8.36829 8.66484 8.80432 8.82446L9.36013 9.02799C9.54663 9.09612 9.54663 9.35954 9.36013 9.42767L8.80432 9.6312C8.36829 9.79082 7.97232 10.0436 7.64399 10.3719C7.31567 10.7003 7.06289 11.0962 6.90327 11.5323L6.69974 12.0881C6.63161 12.2746 6.36818 12.2746 6.30005 12.0881L6.09652 11.5323C5.9369 11.0962 5.68412 10.7003 5.3558 10.3719C5.02747 10.0436 4.6315 9.79082 4.19547 9.6312L3.63966 9.42767C3.45345 9.35954 3.45345 9.09612 3.63966 9.02799L4.19547 8.82446C4.6315 8.66484 5.02747 8.41206 5.3558 8.08373C5.68412 7.75541 5.9369 7.35943 6.09652 6.92341L6.30005 6.3676Z" fill="#FF80A4"/>
<path d="M22.295 0.727936L17.4347 4.76039L17.5746 7.58086L20.6526 9.31638L22.5931 18.0419L23.25 16.7523L23.9678 5.46659L25.1053 5.51453L24.5518 14.1921L26.2733 10.7978L26.7721 5.62L26.8268 4.76039L22.295 0.727936ZM30.7504 3.15239L27.9157 5.58644L27.6785 8.03631L28.3233 6.78021L30.1725 6.1234C30.3671 5.13578 30.5557 4.14337 30.7504 3.15239ZM34.4184 5.60562L29.2053 7.44662L22.9641 19.7151L23.8522 23.7088H24.3267L33.3052 9.65677L34.3211 10.0595L25.5981 23.7088H27.0823L36 9.7191L34.4184 5.60562ZM13.7241 6.51174L10.4325 11.2629L14.6365 23.7088H20.3302L17.2218 10.5341L18.335 10.3711L21.486 23.7088H22.6965L19.6124 9.83416L13.7241 6.51174ZM35.5194 18.996L31.5168 18.7467L28.4875 23.5026L32.7334 21.7431L35.5194 18.996ZM9 17.6536L11.5834 23.7279H13.4686L11.7592 18.6748L9 17.6536Z" fill="#FF80A4"/>
<path d="M36.8667 0.821044C36.9121 0.6969 37.0877 0.6969 37.1332 0.821044L37.2688 1.19158C37.3753 1.48227 37.5438 1.74625 37.7627 1.96513C37.9815 2.18402 38.2455 2.35254 38.5362 2.45895L38.9068 2.59464C39.0311 2.64006 39.0311 2.81567 38.9068 2.86109L38.5362 2.99678C38.2455 3.10319 37.9815 3.27171 37.7627 3.4906C37.5438 3.70948 37.3753 3.97346 37.2688 4.26415L37.1332 4.63469C37.0877 4.75902 36.9121 4.75902 36.8667 4.63469L36.731 4.26415C36.6246 3.97346 36.4561 3.70948 36.2372 3.4906C36.0183 3.27171 35.7543 3.10319 35.4636 2.99678L35.0931 2.86109C34.969 2.81567 34.969 2.64006 35.0931 2.59464L35.4636 2.45895C35.7543 2.35254 36.0183 2.18402 36.2372 1.96513C36.4561 1.74625 36.6246 1.48227 36.731 1.19158L36.8667 0.821044Z" fill="#FF80A4"/>
</svg>
