<svg width="43" height="35" viewBox="0 0 43 35" fill="none" xmlns="http://www.w3.org/2000/svg">
<path d="M1.08133 29.0746V28.0146H2.71133C3.04466 28.0146 3.30133 27.9313 3.48133 27.7646C3.668 27.5913 3.76133 27.3546 3.76133 27.0546C3.76133 26.7813 3.668 26.5546 3.48133 26.3746C3.30133 26.188 3.04466 26.0946 2.71133 26.0946H1.08133V24.9846H2.83133C3.28466 24.9846 3.68133 25.0746 4.02133 25.2546C4.36799 25.428 4.63466 25.668 4.82133 25.9746C5.01466 26.2813 5.11133 26.6346 5.11133 27.0346C5.11133 27.448 5.01466 27.808 4.82133 28.1146C4.63466 28.4146 4.36799 28.6513 4.02133 28.8246C3.67466 28.9913 3.27133 29.0746 2.81133 29.0746H1.08133ZM0.0813282 32.0146V24.9846H1.44133V32.0146H0.0813282ZM3.92133 32.0146L1.60133 28.9746L2.85133 28.5846L5.57133 32.0146H3.92133ZM8.87438 32.1146C8.36771 32.1146 7.91771 32.008 7.52438 31.7946C7.13104 31.5746 6.81771 31.2746 6.58438 30.8946C6.35771 30.5146 6.24438 30.0813 6.24438 29.5946C6.24438 29.1146 6.35438 28.688 6.57438 28.3146C6.80104 27.9346 7.10771 27.6346 7.49438 27.4146C7.88104 27.188 8.31104 27.0746 8.78438 27.0746C9.25104 27.0746 9.66104 27.1813 10.0144 27.3946C10.3744 27.6013 10.6544 27.888 10.8544 28.2546C11.061 28.6146 11.1644 29.0246 11.1644 29.4846C11.1644 29.5713 11.1577 29.6613 11.1444 29.7546C11.1377 29.8413 11.121 29.9413 11.0944 30.0546L7.03438 30.0646V29.0846L10.4844 29.0746L9.95438 29.4846C9.94104 29.198 9.88771 28.958 9.79438 28.7646C9.70771 28.5713 9.57771 28.4246 9.40438 28.3246C9.23771 28.218 9.03104 28.1646 8.78438 28.1646C8.52438 28.1646 8.29771 28.2246 8.10438 28.3446C7.91104 28.458 7.76104 28.6213 7.65438 28.8346C7.55438 29.0413 7.50438 29.288 7.50438 29.5746C7.50438 29.868 7.55771 30.1246 7.66438 30.3446C7.77771 30.558 7.93771 30.7246 8.14438 30.8446C8.35104 30.958 8.59104 31.0146 8.86438 31.0146C9.11104 31.0146 9.33438 30.9746 9.53438 30.8946C9.73438 30.808 9.90771 30.6813 10.0544 30.5146L10.8244 31.2846C10.591 31.558 10.3044 31.7646 9.96438 31.9046C9.63104 32.0446 9.26771 32.1146 8.87438 32.1146ZM13.7059 32.0146L11.8959 27.1846H13.2159L14.3959 30.6946L13.9959 30.7046L15.2059 27.1846H16.1559L17.3659 30.7046L16.9659 30.6946L18.1459 27.1846H19.4659L17.6659 32.0146H16.7159L15.4959 28.6746H15.8659L14.6459 32.0146H13.7059ZM22.5141 32.1146C22.0741 32.1146 21.6774 32.0046 21.3241 31.7846C20.9707 31.5646 20.6941 31.2646 20.4941 30.8846C20.2941 30.5046 20.1941 30.078 20.1941 29.6046C20.1941 29.1246 20.2941 28.6946 20.4941 28.3146C20.6941 27.9346 20.9707 27.6346 21.3241 27.4146C21.6774 27.1946 22.0741 27.0846 22.5141 27.0846C22.8607 27.0846 23.1707 27.1546 23.4441 27.2946C23.7174 27.4346 23.9341 27.6313 24.0941 27.8846C24.2607 28.1313 24.3507 28.4113 24.3641 28.7246V30.4646C24.3507 30.7846 24.2607 31.068 24.0941 31.3146C23.9341 31.5613 23.7174 31.758 23.4441 31.9046C23.1707 32.0446 22.8607 32.1146 22.5141 32.1146ZM22.7541 30.9046C23.1207 30.9046 23.4174 30.7846 23.6441 30.5446C23.8707 30.298 23.9841 29.9813 23.9841 29.5946C23.9841 29.3413 23.9307 29.118 23.8241 28.9246C23.7241 28.7246 23.5807 28.5713 23.3941 28.4646C23.2141 28.3513 23.0007 28.2946 22.7541 28.2946C22.5141 28.2946 22.3007 28.3513 22.1141 28.4646C21.9341 28.5713 21.7907 28.7246 21.6841 28.9246C21.5841 29.118 21.5341 29.3413 21.5341 29.5946C21.5341 29.8546 21.5841 30.0846 21.6841 30.2846C21.7907 30.478 21.9341 30.6313 22.1141 30.7446C22.3007 30.8513 22.5141 30.9046 22.7541 30.9046ZM23.9141 32.0146V30.7146L24.1241 29.5346L23.9141 28.3746V27.1846H25.2141V32.0146H23.9141ZM26.873 32.0146V27.1846H28.183V32.0146H26.873ZM28.183 29.3446L27.673 29.0046C27.733 28.4113 27.9063 27.9446 28.193 27.6046C28.4796 27.258 28.893 27.0846 29.433 27.0846C29.6663 27.0846 29.8763 27.1246 30.063 27.2046C30.2496 27.278 30.4196 27.4013 30.573 27.5746L29.753 28.5146C29.6796 28.4346 29.5896 28.3746 29.483 28.3346C29.383 28.2946 29.2663 28.2746 29.133 28.2746C28.853 28.2746 28.623 28.3646 28.443 28.5446C28.2696 28.718 28.183 28.9846 28.183 29.3446ZM33.4364 32.1146C32.9897 32.1146 32.5897 32.0046 32.2364 31.7846C31.8831 31.5646 31.6031 31.2646 31.3964 30.8846C31.1964 30.5046 31.0964 30.078 31.0964 29.6046C31.0964 29.1246 31.1964 28.6946 31.3964 28.3146C31.6031 27.9346 31.8797 27.6346 32.2264 27.4146C32.5797 27.1946 32.9831 27.0846 33.4364 27.0846C33.7831 27.0846 34.0931 27.1546 34.3664 27.2946C34.6464 27.4346 34.8697 27.6313 35.0364 27.8846C35.2097 28.1313 35.3031 28.4113 35.3164 28.7246V30.4446C35.3031 30.758 35.2131 31.0413 35.0464 31.2946C34.8797 31.548 34.6564 31.748 34.3764 31.8946C34.0964 32.0413 33.7831 32.1146 33.4364 32.1146ZM33.6564 30.9046C33.9031 30.9046 34.1164 30.8513 34.2964 30.7446C34.4831 30.6313 34.6264 30.478 34.7264 30.2846C34.8331 30.0846 34.8864 29.8546 34.8864 29.5946C34.8864 29.3413 34.8331 29.118 34.7264 28.9246C34.6264 28.7246 34.4831 28.5713 34.2964 28.4646C34.1164 28.3513 33.9064 28.2946 33.6664 28.2946C33.4197 28.2946 33.2031 28.3513 33.0164 28.4646C32.8364 28.578 32.6931 28.7313 32.5864 28.9246C32.4864 29.118 32.4364 29.3413 32.4364 29.5946C32.4364 29.8546 32.4864 30.0846 32.5864 30.2846C32.6931 30.478 32.8397 30.6313 33.0264 30.7446C33.2131 30.8513 33.4231 30.9046 33.6564 30.9046ZM36.1164 32.0146H34.8164V30.7146L35.0264 29.5346L34.8064 28.3746V24.7846H36.1164V32.0146ZM39.4353 32.1246C39.162 32.1246 38.892 32.088 38.6253 32.0146C38.3653 31.9413 38.1253 31.8413 37.9053 31.7146C37.6853 31.5813 37.4953 31.4213 37.3353 31.2346L38.1153 30.4446C38.282 30.6313 38.4753 30.7713 38.6953 30.8646C38.9153 30.958 39.1586 31.0046 39.4253 31.0046C39.6386 31.0046 39.7986 30.9746 39.9053 30.9146C40.0186 30.8546 40.0753 30.7646 40.0753 30.6446C40.0753 30.5113 40.0153 30.408 39.8953 30.3346C39.782 30.2613 39.632 30.2013 39.4453 30.1546C39.2586 30.1013 39.062 30.0446 38.8553 29.9846C38.6553 29.918 38.462 29.8346 38.2753 29.7346C38.0886 29.628 37.9353 29.4846 37.8153 29.3046C37.702 29.118 37.6453 28.878 37.6453 28.5846C37.6453 28.278 37.7186 28.0113 37.8653 27.7846C38.0186 27.558 38.2353 27.3813 38.5153 27.2546C38.7953 27.128 39.1253 27.0646 39.5053 27.0646C39.9053 27.0646 40.2653 27.1346 40.5853 27.2746C40.912 27.4146 41.182 27.6246 41.3953 27.9046L40.6053 28.6946C40.4586 28.5146 40.292 28.3846 40.1053 28.3046C39.9253 28.2246 39.7286 28.1846 39.5153 28.1846C39.322 28.1846 39.172 28.2146 39.0653 28.2746C38.9653 28.3346 38.9153 28.418 38.9153 28.5246C38.9153 28.6446 38.972 28.738 39.0853 28.8046C39.2053 28.8713 39.3586 28.9313 39.5453 28.9846C39.732 29.0313 39.9253 29.088 40.1253 29.1546C40.332 29.2146 40.5253 29.3013 40.7053 29.4146C40.892 29.528 41.042 29.678 41.1553 29.8646C41.2753 30.0513 41.3353 30.2913 41.3353 30.5846C41.3353 31.058 41.1653 31.4346 40.8253 31.7146C40.4853 31.988 40.022 32.1246 39.4353 32.1246Z" fill="#FF80A4"/>
<path d="M6.30005 5.65437C6.36818 5.46816 6.63161 5.46816 6.69974 5.65437L6.90327 6.21018C7.06289 6.64621 7.31567 7.04218 7.64399 7.3705C7.97232 7.69883 8.36829 7.95161 8.80432 8.11123L9.36013 8.31476C9.54663 8.38289 9.54663 8.64632 9.36013 8.71444L8.80432 8.91798C8.36829 9.07759 7.97232 9.33038 7.64399 9.6587C7.31567 9.98703 7.06289 10.383 6.90327 10.819L6.69974 11.3748C6.63161 11.5613 6.36818 11.5613 6.30005 11.3748L6.09652 10.819C5.9369 10.383 5.68412 9.98703 5.3558 9.6587C5.02747 9.33038 4.6315 9.07759 4.19547 8.91798L3.63966 8.71444C3.45345 8.64632 3.45345 8.38289 3.63966 8.31476L4.19547 8.11123C4.6315 7.95161 5.02747 7.69883 5.3558 7.3705C5.68412 7.04218 5.9369 6.64621 6.09652 6.21018L6.30005 5.65437Z" fill="#FF80A4"/>
<path d="M22.295 0.0147095L17.4347 4.04716L17.5746 6.86763L20.6526 8.60315L22.5931 17.3287L23.25 16.0391L23.9678 4.75336L25.1053 4.8013L24.5518 13.4789L26.2733 10.0846L26.7721 4.90678L26.8268 4.04716L22.295 0.0147095ZM30.7504 2.43917L27.9157 4.87322L27.6785 7.32309L28.3233 6.06699L30.1725 5.41017C30.3671 4.42256 30.5557 3.43014 30.7504 2.43917ZM34.4184 4.89239L29.2053 6.73339L22.9641 19.0019L23.8522 22.9955H24.3267L33.3052 8.94355L34.3211 9.34626L25.5981 22.9955H27.0823L36 9.00587L34.4184 4.89239ZM13.7241 5.79851L10.4325 10.5496L14.6365 22.9955H20.3302L17.2218 9.8209L18.335 9.65789L21.486 22.9955H22.6965L19.6124 9.12093L13.7241 5.79851ZM35.5194 18.2828L31.5168 18.0335L28.4875 22.7894L32.7334 21.0299L35.5194 18.2828ZM9 16.9404L11.5834 23.0147H13.4686L11.7592 17.9616L9 16.9404Z" fill="#FF80A4"/>
<path d="M36.8667 0.107817C36.9121 -0.0163265 37.0877 -0.0163265 37.1332 0.107817L37.2688 0.478357C37.3753 0.76904 37.5438 1.03302 37.7627 1.25191C37.9815 1.47079 38.2455 1.63931 38.5362 1.74572L38.9068 1.88141C39.0311 1.92683 39.0311 2.10245 38.9068 2.14787L38.5362 2.28355C38.2455 2.38997 37.9815 2.55849 37.7627 2.77737C37.5438 2.99625 37.3753 3.26024 37.2688 3.55092L37.1332 3.92146C37.0877 4.04579 36.9121 4.04579 36.8667 3.92146L36.731 3.55092C36.6246 3.26024 36.4561 2.99625 36.2372 2.77737C36.0183 2.55849 35.7543 2.38997 35.4636 2.28355L35.0931 2.14787C34.969 2.10245 34.969 1.92683 35.0931 1.88141L35.4636 1.74572C35.7543 1.63931 36.0183 1.47079 36.2372 1.25191C36.4561 1.03302 36.6246 0.76904 36.731 0.478357L36.8667 0.107817Z" fill="#FF80A4"/>
</svg>
