<svg width="27" height="35" viewBox="0 0 27 35" fill="none" xmlns="http://www.w3.org/2000/svg">
<path d="M6.83324 32.1147C6.26658 32.1147 5.77991 32.018 5.37324 31.8247C4.97324 31.6314 4.60991 31.3414 4.28324 30.9547L5.18324 30.0547C5.38991 30.328 5.62991 30.5414 5.90324 30.6947C6.17658 30.8414 6.50991 30.9147 6.90324 30.9147C7.25658 30.9147 7.53658 30.8447 7.74324 30.7047C7.95658 30.5647 8.06324 30.3714 8.06324 30.1247C8.06324 29.9114 8.00324 29.738 7.88324 29.6047C7.76324 29.4714 7.60324 29.358 7.40324 29.2647C7.20991 29.1714 6.99324 29.088 6.75324 29.0147C6.51991 28.9347 6.28324 28.8447 6.04324 28.7447C5.80991 28.6447 5.59324 28.5214 5.39324 28.3747C5.19991 28.2214 5.04324 28.028 4.92324 27.7947C4.80324 27.5547 4.74324 27.2547 4.74324 26.8947C4.74324 26.468 4.84658 26.1047 5.05324 25.8047C5.25991 25.5047 5.54324 25.2747 5.90324 25.1147C6.26324 24.9547 6.66991 24.8747 7.12324 24.8747C7.60324 24.8747 8.03658 24.9647 8.42324 25.1447C8.80991 25.3247 9.12658 25.558 9.37324 25.8447L8.47324 26.7447C8.26658 26.518 8.05324 26.3514 7.83324 26.2447C7.61991 26.138 7.37658 26.0847 7.10324 26.0847C6.78991 26.0847 6.54324 26.1447 6.36324 26.2647C6.18324 26.3847 6.09324 26.558 6.09324 26.7847C6.09324 26.978 6.15324 27.1347 6.27324 27.2547C6.39324 27.3747 6.54991 27.478 6.74324 27.5647C6.94324 27.6514 7.15991 27.7347 7.39324 27.8147C7.63324 27.8947 7.86991 27.9847 8.10324 28.0847C8.34324 28.1847 8.55991 28.3147 8.75324 28.4747C8.95324 28.6347 9.11324 28.8414 9.23324 29.0947C9.35324 29.3414 9.41324 29.648 9.41324 30.0147C9.41324 30.668 9.18324 31.1814 8.72324 31.5547C8.26324 31.928 7.63324 32.1147 6.83324 32.1147ZM10.8466 32.0147V27.1847H12.1666V32.0147H10.8466ZM11.5066 26.4047C11.2933 26.4047 11.1166 26.3347 10.9766 26.1947C10.8366 26.048 10.7666 25.868 10.7666 25.6547C10.7666 25.448 10.8366 25.2714 10.9766 25.1247C11.1166 24.978 11.2933 24.9047 11.5066 24.9047C11.7266 24.9047 11.9033 24.978 12.0366 25.1247C12.1766 25.2714 12.2466 25.448 12.2466 25.6547C12.2466 25.868 12.1766 26.048 12.0366 26.1947C11.9033 26.3347 11.7266 26.4047 11.5066 26.4047ZM14.5371 32.0147V25.1747H15.8471V32.0147H14.5371ZM13.4071 28.3347V27.1847H16.9771V28.3347H13.4071ZM20.4066 32.1147C19.8999 32.1147 19.4499 32.008 19.0566 31.7947C18.6633 31.5747 18.3499 31.2747 18.1166 30.8947C17.8899 30.5147 17.7766 30.0814 17.7766 29.5947C17.7766 29.1147 17.8866 28.688 18.1066 28.3147C18.3333 27.9347 18.6399 27.6347 19.0266 27.4147C19.4133 27.188 19.8433 27.0747 20.3166 27.0747C20.7833 27.0747 21.1933 27.1814 21.5466 27.3947C21.9066 27.6014 22.1866 27.888 22.3866 28.2547C22.5933 28.6147 22.6966 29.0247 22.6966 29.4847C22.6966 29.5714 22.6899 29.6614 22.6766 29.7547C22.6699 29.8414 22.6533 29.9414 22.6266 30.0547L18.5666 30.0647V29.0847L22.0166 29.0747L21.4866 29.4847C21.4733 29.198 21.4199 28.958 21.3266 28.7647C21.2399 28.5714 21.1099 28.4247 20.9366 28.3247C20.7699 28.218 20.5633 28.1647 20.3166 28.1647C20.0566 28.1647 19.8299 28.2247 19.6366 28.3447C19.4433 28.458 19.2933 28.6214 19.1866 28.8347C19.0866 29.0414 19.0366 29.288 19.0366 29.5747C19.0366 29.868 19.0899 30.1247 19.1966 30.3447C19.3099 30.558 19.4699 30.7247 19.6766 30.8447C19.8833 30.958 20.1233 31.0147 20.3966 31.0147C20.6433 31.0147 20.8666 30.9747 21.0666 30.8947C21.2666 30.808 21.4399 30.6814 21.5866 30.5147L22.3566 31.2847C22.1233 31.558 21.8366 31.7647 21.4966 31.9047C21.1633 32.0447 20.7999 32.1147 20.4066 32.1147Z" fill="#FF80A4"/>
<path d="M24.7443 0.0149241C24.7346 0.0144733 24.7249 0.0147204 24.7152 0.0156635C23.937 0.0917529 22.8123 1.20118 23.2284 1.88217C23.4294 2.21092 24.025 1.8375 24.3286 1.60676C24.7183 1.31054 25.1538 0.813032 25.072 0.321685C25.0475 0.174435 24.8908 0.0212084 24.7443 0.0149241ZM21.3027 0.362841C20.8124 0.364813 19.7051 1.61089 19.8059 2.42101C19.8448 2.734 20.2374 3.01266 20.5429 2.98753C20.9832 2.95118 21.3084 2.43346 21.4647 2.00853C21.6516 1.50012 21.8797 0.588522 21.392 0.379537C21.3637 0.367874 21.3333 0.362155 21.3027 0.362841ZM21.451 3.82192C21.2026 3.82051 20.9548 3.84702 20.712 3.90097C19.9983 4.05993 19.3654 4.45498 19.0864 4.91755C19.0862 4.91804 19.086 4.91706 19.0857 4.91681C19.0869 4.91866 19.0892 4.9242 19.0962 4.95439C19.1116 5.02167 19.1688 5.15568 19.2517 5.31556C19.4176 5.63532 19.7357 6.07152 19.6298 6.69256C19.4875 7.52757 18.8841 8.03248 18.4377 8.47022C18.4092 8.49813 18.3837 8.52444 18.3567 8.55142C18.3686 8.62659 18.3783 8.70272 18.3857 8.77981C18.4381 9.32692 18.3974 9.90729 18.1812 10.4086C18.2331 10.4527 18.2851 10.4868 18.3345 10.5064C18.7243 10.6605 19.4537 10.4097 19.9576 10.0261C20.2791 9.78142 20.5095 9.38736 20.7343 8.89004C20.9592 8.39271 21.1681 7.80852 21.529 7.26844C21.6596 7.07276 21.8055 6.90432 21.9513 6.75152C21.7984 6.30299 21.7515 5.82058 21.8902 5.3577C22.03 4.89106 22.3181 4.47691 22.6805 4.13454C22.6717 4.12776 22.6628 4.12037 22.6539 4.11482C22.3481 3.92629 21.9144 3.82463 21.451 3.82192ZM24.449 4.3986C24.4236 4.39834 24.3982 4.39993 24.3731 4.40335C24.2319 4.4206 24.0227 4.50057 23.8142 4.63537C23.397 4.90498 23.0025 5.40877 22.9199 5.68461C22.8738 5.83851 22.9002 6.24668 23.0289 6.54161C23.1354 6.78572 23.2498 6.87647 23.3181 6.90783C23.3395 6.86735 23.3675 6.81738 23.3998 6.70427C23.4831 6.41254 23.5246 5.98009 23.7229 5.55602C23.9265 5.12093 24.2462 4.80548 24.4256 4.54591C24.4781 4.46989 24.4827 4.44857 24.5043 4.4039C24.486 4.40071 24.4675 4.39885 24.449 4.3986ZM15.2683 5.31741L11.7464 8.03568C12.0055 8.72067 12.3634 9.98542 12.3634 9.98542L11.7746 10.8074L11.1018 9.85554L10.5673 8.1369H9.80803L8.05666 10.8402L8.41062 12.6248L6.20434 10.6384L0.646556 15.2912L1.29018 16.7364L4.29257 16.3467L7.51631 14.4161L10.5598 14.9205L11.0607 14.9967L10.8084 14.7804L10.8846 14.4469C11.0493 13.7262 11.5969 13.0523 12.3387 12.2671C13.0804 11.482 14.0324 10.6509 15.0385 9.92713C15.1076 9.87742 15.1771 9.82817 15.2469 9.77939C15.3516 9.25921 15.6315 8.77963 15.9228 8.36185C16.1367 8.05502 16.368 7.78948 16.6111 7.58826C16.7326 7.48771 16.8557 7.40133 17.0084 7.33775C17.0847 7.30596 17.1763 7.27595 17.2792 7.2669C17.3949 7.25675 17.5113 7.27571 17.6183 7.32216C17.7189 7.36529 17.8033 7.42105 17.8752 7.485C17.9065 7.45327 17.941 7.41969 17.971 7.38864L15.2683 5.31741ZM17.2362 8.50238C17.1074 8.6187 16.9472 8.79491 16.7983 9.00851C16.4715 9.477 16.2666 10.105 16.2911 10.3259C16.2935 10.3257 16.307 10.3524 16.3471 10.3816C16.4038 10.4229 16.4957 10.4499 16.5167 10.4506C16.6966 10.4567 17.0877 10.1972 17.1858 9.98363C17.283 9.772 17.3512 9.28385 17.3133 8.8888C17.301 8.75756 17.275 8.62802 17.2362 8.50238ZM16.2911 10.3259C16.2902 10.3261 16.2905 10.3296 16.2925 10.3413C16.2917 10.3368 16.2917 10.3309 16.2911 10.3259ZM22.0382 10.1177C22.1323 10.5848 22.1156 11.109 22.0401 11.6424C21.891 12.6945 21.4927 13.8733 20.9829 15.0225C20.7745 15.4911 20.5492 15.9516 20.3075 16.4029L21.5361 16.5897L27 17.9924L26.4897 14.5482L25.2035 12.2735L23.8007 12.7547L22.8335 14.5289L23.3801 11.846L24.6461 11.2876L24.481 10.9957L22.0382 10.1177ZM21.0028 10.5374C20.884 10.6735 20.7509 10.8018 20.5986 10.9177C19.9216 11.433 18.9291 11.9297 17.9477 11.5415C17.7791 11.4745 17.6202 11.384 17.4755 11.2725C17.1904 11.4632 16.8514 11.5715 16.4812 11.559C16.1956 11.5493 15.946 11.4483 15.7241 11.2867C15.6193 11.2103 15.5175 11.1157 15.4323 11.001C14.5645 11.6455 13.7421 12.3727 13.1113 13.0403C12.614 13.5668 12.2494 14.0846 12.0651 14.4146L13.4553 15.6062C13.8717 15.1844 14.4721 14.6505 15.0854 14.1465C15.5019 13.8041 15.9112 13.4903 16.2623 13.2653C16.4377 13.1527 16.5949 13.0617 16.7626 12.9958C16.8464 12.9629 16.9325 12.9337 17.0512 12.9239C17.1699 12.914 17.3569 12.9243 17.528 13.071C17.699 13.2176 17.7428 13.4049 17.7549 13.5269C17.7669 13.6489 17.7544 13.7413 17.7381 13.8321C17.7055 14.0138 17.647 14.1892 17.5711 14.3872C17.4194 14.7832 17.1936 15.2541 16.9416 15.7377C16.5708 16.4493 16.1691 17.1537 15.8412 17.6512L17.2315 18.8429C17.5137 18.5967 17.9427 18.1341 18.3559 17.5355C18.9249 16.7115 19.5214 15.6465 20.0024 14.5619C20.4836 13.4774 20.8483 12.3675 20.9735 11.4824C21.0262 11.1101 21.0321 10.7949 21.0028 10.5374ZM16.3069 14.5799C16.1212 14.7205 15.9382 14.865 15.758 15.0131C15.039 15.6041 14.3208 16.2886 14.0448 16.5894C14.0617 16.8904 14.1225 17.0878 14.1798 17.1521C14.2402 17.2198 14.3809 17.294 14.7952 17.2328C15.0326 16.8993 15.557 16.0484 15.9921 15.2137C16.101 15.0045 16.206 14.7932 16.3069 14.5799ZM13.5687 17.1466L8.88672 22.931C9.2996 22.9582 9.72289 22.9796 10.1554 22.9958L14.3487 17.8152L13.5687 17.1466ZM11.651 17.7832C10.7712 17.7915 9.89171 17.8237 9.01353 17.8798L8.2825 18.8557L7.99176 17.9584C6.72798 18.0694 5.56018 18.2291 4.52679 18.4272L4.4468 21.3648L3.75271 18.5878C3.6034 18.6215 3.45445 18.6568 3.30589 18.6938C2.18796 18.9732 1.29563 19.3079 0.726845 19.644C0.158062 19.98 0 20.2683 0 20.3977C0 20.527 0.158062 20.8153 0.726845 21.1513C1.29563 21.4873 2.18796 21.822 3.30589 22.1013C4.50332 22.4006 5.96228 22.6404 7.59062 22.7994L11.651 17.7832ZM19.1395 18.3132C18.5619 19.1375 18.0389 19.7624 17.4142 20.0438L17.1092 20.1812L15.1769 18.5249L11.5458 23.0108C11.7474 23.0133 11.9499 23.0147 12.154 23.0147C15.6236 23.0147 18.7661 22.6601 21.002 22.1014C22.12 21.8221 23.0124 21.4873 23.5811 21.1513C24.1499 20.8153 24.308 20.527 24.308 20.3977C24.308 20.2683 24.1499 19.9799 23.5811 19.644C23.0124 19.308 22.12 18.9732 21.0021 18.6938C20.9322 18.6764 20.8587 18.6596 20.787 18.6425L19.9381 21.7625L19.8347 18.4378C19.6035 18.3934 19.3717 18.3517 19.1395 18.3132Z" fill="#FF80A4"/>
</svg>
