<svg width="27" height="35" viewBox="0 0 27 35" fill="none" xmlns="http://www.w3.org/2000/svg">
<path d="M6.83324 33.3059C6.26658 33.3059 5.77991 33.2092 5.37324 33.0159C4.97324 32.8226 4.60991 32.5326 4.28324 32.1459L5.18324 31.2459C5.38991 31.5192 5.62991 31.7326 5.90324 31.8859C6.17658 32.0326 6.50991 32.1059 6.90324 32.1059C7.25658 32.1059 7.53658 32.0359 7.74324 31.8959C7.95658 31.7559 8.06324 31.5626 8.06324 31.3159C8.06324 31.1026 8.00324 30.9292 7.88324 30.7959C7.76324 30.6626 7.60324 30.5492 7.40324 30.4559C7.20991 30.3626 6.99324 30.2792 6.75324 30.2059C6.51991 30.1259 6.28324 30.0359 6.04324 29.9359C5.80991 29.8359 5.59324 29.7126 5.39324 29.5659C5.19991 29.4126 5.04324 29.2192 4.92324 28.9859C4.80324 28.7459 4.74324 28.4459 4.74324 28.0859C4.74324 27.6592 4.84658 27.2959 5.05324 26.9959C5.25991 26.6959 5.54324 26.4659 5.90324 26.3059C6.26324 26.1459 6.66991 26.0659 7.12324 26.0659C7.60324 26.0659 8.03658 26.1559 8.42324 26.3359C8.80991 26.5159 9.12658 26.7492 9.37324 27.0359L8.47324 27.9359C8.26658 27.7092 8.05324 27.5426 7.83324 27.4359C7.61991 27.3292 7.37658 27.2759 7.10324 27.2759C6.78991 27.2759 6.54324 27.3359 6.36324 27.4559C6.18324 27.5759 6.09324 27.7492 6.09324 27.9759C6.09324 28.1692 6.15324 28.3259 6.27324 28.4459C6.39324 28.5659 6.54991 28.6692 6.74324 28.7559C6.94324 28.8426 7.15991 28.9259 7.39324 29.0059C7.63324 29.0859 7.86991 29.1759 8.10324 29.2759C8.34324 29.3759 8.55991 29.5059 8.75324 29.6659C8.95324 29.8259 9.11324 30.0326 9.23324 30.2859C9.35324 30.5326 9.41324 30.8392 9.41324 31.2059C9.41324 31.8592 9.18324 32.3726 8.72324 32.7459C8.26324 33.1192 7.63324 33.3059 6.83324 33.3059ZM10.8466 33.2059V28.3759H12.1666V33.2059H10.8466ZM11.5066 27.5959C11.2933 27.5959 11.1166 27.5259 10.9766 27.3859C10.8366 27.2392 10.7666 27.0592 10.7666 26.8459C10.7666 26.6392 10.8366 26.4626 10.9766 26.3159C11.1166 26.1692 11.2933 26.0959 11.5066 26.0959C11.7266 26.0959 11.9033 26.1692 12.0366 26.3159C12.1766 26.4626 12.2466 26.6392 12.2466 26.8459C12.2466 27.0592 12.1766 27.2392 12.0366 27.3859C11.9033 27.5259 11.7266 27.5959 11.5066 27.5959ZM14.5371 33.2059V26.3659H15.8471V33.2059H14.5371ZM13.4071 29.5259V28.3759H16.9771V29.5259H13.4071ZM20.4066 33.3059C19.8999 33.3059 19.4499 33.1992 19.0566 32.9859C18.6633 32.7659 18.3499 32.4659 18.1166 32.0859C17.8899 31.7059 17.7766 31.2726 17.7766 30.7859C17.7766 30.3059 17.8866 29.8792 18.1066 29.5059C18.3333 29.1259 18.6399 28.8259 19.0266 28.6059C19.4133 28.3792 19.8433 28.2659 20.3166 28.2659C20.7833 28.2659 21.1933 28.3726 21.5466 28.5859C21.9066 28.7926 22.1866 29.0792 22.3866 29.4459C22.5933 29.8059 22.6966 30.2159 22.6966 30.6759C22.6966 30.7626 22.6899 30.8526 22.6766 30.9459C22.6699 31.0326 22.6533 31.1326 22.6266 31.2459L18.5666 31.2559V30.2759L22.0166 30.2659L21.4866 30.6759C21.4733 30.3892 21.4199 30.1492 21.3266 29.9559C21.2399 29.7626 21.1099 29.6159 20.9366 29.5159C20.7699 29.4092 20.5633 29.3559 20.3166 29.3559C20.0566 29.3559 19.8299 29.4159 19.6366 29.5359C19.4433 29.6492 19.2933 29.8126 19.1866 30.0259C19.0866 30.2326 19.0366 30.4792 19.0366 30.7659C19.0366 31.0592 19.0899 31.3159 19.1966 31.5359C19.3099 31.7492 19.4699 31.9159 19.6766 32.0359C19.8833 32.1492 20.1233 32.2059 20.3966 32.2059C20.6433 32.2059 20.8666 32.1659 21.0666 32.0859C21.2666 31.9992 21.4399 31.8726 21.5866 31.7059L22.3566 32.4759C22.1233 32.7492 21.8366 32.9559 21.4966 33.0959C21.1633 33.2359 20.7999 33.3059 20.4066 33.3059Z" fill="#FF80A4"/>
<path d="M24.7443 0.0149305C24.7346 0.0144665 24.7249 0.0147209 24.7152 0.0156916C23.937 0.094019 22.8123 1.23608 23.2284 1.93709C23.4294 2.27552 24.025 1.89111 24.3286 1.65359C24.7183 1.34865 25.1538 0.836512 25.072 0.330714C25.0475 0.179133 24.8908 0.0213996 24.7443 0.0149305ZM21.3027 0.37308C20.8124 0.37511 19.7051 1.65784 19.8059 2.49179C19.8448 2.81398 20.2374 3.10084 20.5429 3.07496C20.9832 3.03754 21.3084 2.5046 21.4647 2.06717C21.6516 1.54381 21.8797 0.605398 21.392 0.390268C21.3637 0.378261 21.3333 0.372374 21.3027 0.37308ZM21.451 3.9339C21.2026 3.93245 20.9548 3.95973 20.712 4.01527C19.9983 4.1789 19.3654 4.58557 19.0864 5.06175C19.0862 5.06226 19.086 5.06124 19.0857 5.06099C19.0869 5.06289 19.0892 5.0686 19.0962 5.09968C19.1116 5.16894 19.1688 5.30688 19.2517 5.47146C19.4176 5.80063 19.7357 6.24966 19.6298 6.88897C19.4875 7.74854 18.8841 8.26829 18.4377 8.71891C18.4092 8.74764 18.3837 8.77472 18.3567 8.8025C18.3686 8.87988 18.3783 8.95825 18.3857 9.03761C18.4381 9.60081 18.3974 10.1983 18.1812 10.7143C18.2331 10.7597 18.2851 10.7948 18.3345 10.815C18.7243 10.9737 19.4537 10.7154 19.9576 10.3206C20.2791 10.0687 20.5095 9.66303 20.7343 9.15108C20.9592 8.63913 21.1681 8.03775 21.529 7.48178C21.6596 7.28035 21.8055 7.10695 21.9513 6.94966C21.7984 6.48794 21.7515 5.99134 21.8902 5.51485C22.03 5.03448 22.3181 4.60815 22.6805 4.25571C22.6717 4.24873 22.6628 4.24112 22.6539 4.23541C22.3481 4.04134 21.9144 3.93669 21.451 3.9339ZM24.449 4.52754C24.4236 4.52727 24.3982 4.5289 24.3731 4.53242C24.2319 4.55018 24.0227 4.6325 23.8142 4.77127C23.397 5.04881 23.0025 5.56742 22.9199 5.85137C22.8738 6.0098 22.9002 6.42998 23.0289 6.73358C23.1354 6.98486 23.2498 7.07829 23.3181 7.11057C23.3395 7.0689 23.3675 7.01746 23.3998 6.90102C23.4831 6.60071 23.5246 6.15555 23.7229 5.719C23.9265 5.27111 24.2462 4.94639 24.4256 4.67918C24.4781 4.60092 24.4827 4.57898 24.5043 4.53299C24.486 4.52971 24.4675 4.5278 24.449 4.52754ZM15.2683 5.47337L11.7464 8.27159C12.0055 8.97673 12.3634 10.2787 12.3634 10.2787L11.7746 11.1249L11.1018 10.145L10.5673 8.37579H9.80803L8.05666 11.1586L8.41062 12.9957L6.20434 10.9508L0.646556 15.7405L1.29018 17.2282L4.29257 16.827L7.51631 14.8397L10.5598 15.3589L11.0607 15.4373L10.8084 15.2147L10.8846 14.8714C11.0493 14.1295 11.5969 13.4357 12.3387 12.6275C13.0804 11.8193 14.0324 10.9637 15.0385 10.2187C15.1076 10.1675 15.1771 10.1168 15.2469 10.0666C15.3516 9.53111 15.6315 9.03742 15.9228 8.60735C16.1367 8.2915 16.368 8.01815 16.6111 7.81101C16.7326 7.70751 16.8557 7.61859 17.0084 7.55313C17.0847 7.52041 17.1763 7.48952 17.2792 7.4802C17.3949 7.46975 17.5113 7.48927 17.6183 7.53709C17.7189 7.58148 17.8033 7.63888 17.8752 7.70471C17.9065 7.67205 17.941 7.63749 17.971 7.60552L15.2683 5.47337ZM17.2362 8.75202C17.1074 8.87176 16.9472 9.05315 16.7983 9.27304C16.4715 9.75531 16.2666 10.4018 16.2911 10.6292C16.2935 10.629 16.307 10.6565 16.3471 10.6865C16.4038 10.729 16.4957 10.7568 16.5167 10.7576C16.6966 10.7638 17.0877 10.4967 17.1858 10.2768C17.283 10.059 17.3512 9.55648 17.3133 9.14981C17.301 9.0147 17.275 8.88136 17.2362 8.75202ZM16.2911 10.6292C16.2902 10.6293 16.2905 10.633 16.2925 10.6451C16.2917 10.6404 16.2917 10.6343 16.2911 10.6292ZM22.0382 10.4148C22.1323 10.8957 22.1156 11.4353 22.0401 11.9844C21.891 13.0674 21.4927 14.2809 20.9829 15.4639C20.7745 15.9463 20.5492 16.4203 20.3075 16.8849L21.5361 17.0772L27 18.5212L26.4897 14.9757L25.2035 12.6341L23.8007 13.1294L22.8335 14.9557L23.3801 12.194L24.6461 11.6192L24.481 11.3187L22.0382 10.4148ZM21.0028 10.8469C20.884 10.987 20.7509 11.1191 20.5986 11.2384C19.9216 11.7689 18.9291 12.2802 17.9477 11.8805C17.7791 11.8115 17.6202 11.7184 17.4755 11.6036C17.1904 11.7999 16.8514 11.9114 16.4812 11.8986C16.1956 11.8886 15.946 11.7846 15.7241 11.6182C15.6193 11.5396 15.5175 11.4422 15.4323 11.3241C14.5645 11.9875 13.7421 12.7361 13.1113 13.4234C12.614 13.9654 12.2494 14.4985 12.0651 14.8382L13.4553 16.0648C13.8717 15.6306 14.4721 15.0809 15.0854 14.5621C15.5019 14.2096 15.9112 13.8867 16.2623 13.655C16.4377 13.5391 16.5949 13.4454 16.7626 13.3776C16.8464 13.3438 16.9325 13.3137 17.0512 13.3036C17.1699 13.2934 17.3569 13.304 17.528 13.455C17.699 13.6059 17.7428 13.7987 17.7549 13.9243C17.7669 14.0499 17.7544 14.145 17.7381 14.2385C17.7055 14.4256 17.647 14.6061 17.5711 14.8099C17.4194 15.2175 17.1936 15.7023 16.9416 16.2002C16.5708 16.9327 16.1691 17.6577 15.8412 18.17L17.2315 19.3967C17.5137 19.1432 17.9427 18.6671 18.3559 18.0508C18.9249 17.2026 19.5214 16.1063 20.0024 14.9898C20.4836 13.8734 20.8483 12.7308 20.9735 11.8197C21.0262 11.4365 21.0321 11.112 21.0028 10.8469ZM16.3069 15.0083C16.1212 15.1531 15.9382 15.3018 15.758 15.4542C15.039 16.0627 14.3208 16.7673 14.0448 17.0769C14.0617 17.3867 14.1225 17.5899 14.1798 17.6561C14.2402 17.7259 14.3809 17.8022 14.7952 17.7392C15.0326 17.3959 15.557 16.52 15.9921 15.6607C16.101 15.4454 16.206 15.2279 16.3069 15.0083ZM13.5687 17.6505L8.88672 23.605C9.2996 23.633 9.72289 23.6551 10.1554 23.6717L14.3487 18.3388L13.5687 17.6505ZM11.651 18.3058C10.7712 18.3143 9.89171 18.3475 9.01353 18.4053L8.2825 19.4099L7.99176 18.4861C6.72798 18.6005 5.56018 18.7649 4.52679 18.9688L4.4468 21.9928L3.75271 19.1341C3.6034 19.1687 3.45445 19.2051 3.30589 19.2432C2.18796 19.5308 1.29563 19.8754 0.726845 20.2213C0.158062 20.5672 0 20.864 0 20.9972C0 21.1303 0.158062 21.427 0.726845 21.7729C1.29563 22.1189 2.18796 22.4634 3.30589 22.7509C4.50332 23.059 5.96228 23.3059 7.59062 23.4695L11.651 18.3058ZM19.1395 18.8514C18.5619 19.7 18.0389 20.3432 17.4142 20.6329L17.1092 20.7744L15.1769 19.0694L11.5458 23.6872C11.7474 23.6897 11.9499 23.6912 12.154 23.6912C15.6236 23.6912 18.7661 23.3261 21.002 22.751C22.12 22.4635 23.0124 22.1189 23.5811 21.773C24.1499 21.427 24.308 21.1303 24.308 20.9972C24.308 20.864 24.1499 20.5672 23.5811 20.2213C23.0124 19.8755 22.12 19.5308 21.0021 19.2432C20.9322 19.2252 20.8587 19.208 20.787 19.1904L19.9381 22.4022L19.8347 18.9796C19.6035 18.9339 19.3717 18.8911 19.1395 18.8514Z" fill="#FF80A4"/>
</svg>
