<svg width="43" height="35" viewBox="0 0 43 35" fill="none" xmlns="http://www.w3.org/2000/svg">
<path d="M1.08133 30.7806V29.7206H2.71133C3.04466 29.7206 3.30133 29.6373 3.48133 29.4706C3.668 29.2973 3.76133 29.0606 3.76133 28.7606C3.76133 28.4873 3.668 28.2606 3.48133 28.0806C3.30133 27.8939 3.04466 27.8006 2.71133 27.8006H1.08133V26.6906H2.83133C3.28466 26.6906 3.68133 26.7806 4.02133 26.9606C4.36799 27.1339 4.63466 27.3739 4.82133 27.6806C5.01466 27.9873 5.11133 28.3406 5.11133 28.7406C5.11133 29.1539 5.01466 29.5139 4.82133 29.8206C4.63466 30.1206 4.36799 30.3573 4.02133 30.5306C3.67466 30.6973 3.27133 30.7806 2.81133 30.7806H1.08133ZM0.0813282 33.7206V26.6906H1.44133V33.7206H0.0813282ZM3.92133 33.7206L1.60133 30.6806L2.85133 30.2906L5.57133 33.7206H3.92133ZM8.87438 33.8206C8.36771 33.8206 7.91771 33.7139 7.52438 33.5006C7.13104 33.2806 6.81771 32.9806 6.58438 32.6006C6.35771 32.2206 6.24438 31.7873 6.24438 31.3006C6.24438 30.8206 6.35438 30.3939 6.57438 30.0206C6.80104 29.6406 7.10771 29.3406 7.49438 29.1206C7.88104 28.8939 8.31104 28.7806 8.78438 28.7806C9.25104 28.7806 9.66104 28.8873 10.0144 29.1006C10.3744 29.3073 10.6544 29.5939 10.8544 29.9606C11.061 30.3206 11.1644 30.7306 11.1644 31.1906C11.1644 31.2773 11.1577 31.3673 11.1444 31.4606C11.1377 31.5473 11.121 31.6473 11.0944 31.7606L7.03438 31.7706V30.7906L10.4844 30.7806L9.95438 31.1906C9.94104 30.9039 9.88771 30.6639 9.79438 30.4706C9.70771 30.2773 9.57771 30.1306 9.40438 30.0306C9.23771 29.9239 9.03104 29.8706 8.78438 29.8706C8.52438 29.8706 8.29771 29.9306 8.10438 30.0506C7.91104 30.1639 7.76104 30.3273 7.65438 30.5406C7.55438 30.7473 7.50438 30.9939 7.50438 31.2806C7.50438 31.5739 7.55771 31.8306 7.66438 32.0506C7.77771 32.2639 7.93771 32.4306 8.14438 32.5506C8.35104 32.6639 8.59104 32.7206 8.86438 32.7206C9.11104 32.7206 9.33438 32.6806 9.53438 32.6006C9.73438 32.5139 9.90771 32.3873 10.0544 32.2206L10.8244 32.9906C10.591 33.2639 10.3044 33.4706 9.96438 33.6106C9.63104 33.7506 9.26771 33.8206 8.87438 33.8206ZM13.7059 33.7206L11.8959 28.8906H13.2159L14.3959 32.4006L13.9959 32.4106L15.2059 28.8906H16.1559L17.3659 32.4106L16.9659 32.4006L18.1459 28.8906H19.4659L17.6659 33.7206H16.7159L15.4959 30.3806H15.8659L14.6459 33.7206H13.7059ZM22.5141 33.8206C22.0741 33.8206 21.6774 33.7106 21.3241 33.4906C20.9707 33.2706 20.6941 32.9706 20.4941 32.5906C20.2941 32.2106 20.1941 31.7839 20.1941 31.3106C20.1941 30.8306 20.2941 30.4006 20.4941 30.0206C20.6941 29.6406 20.9707 29.3406 21.3241 29.1206C21.6774 28.9006 22.0741 28.7906 22.5141 28.7906C22.8607 28.7906 23.1707 28.8606 23.4441 29.0006C23.7174 29.1406 23.9341 29.3373 24.0941 29.5906C24.2607 29.8373 24.3507 30.1173 24.3641 30.4306V32.1706C24.3507 32.4906 24.2607 32.7739 24.0941 33.0206C23.9341 33.2673 23.7174 33.4639 23.4441 33.6106C23.1707 33.7506 22.8607 33.8206 22.5141 33.8206ZM22.7541 32.6106C23.1207 32.6106 23.4174 32.4906 23.6441 32.2506C23.8707 32.0039 23.9841 31.6873 23.9841 31.3006C23.9841 31.0473 23.9307 30.8239 23.8241 30.6306C23.7241 30.4306 23.5807 30.2773 23.3941 30.1706C23.2141 30.0573 23.0007 30.0006 22.7541 30.0006C22.5141 30.0006 22.3007 30.0573 22.1141 30.1706C21.9341 30.2773 21.7907 30.4306 21.6841 30.6306C21.5841 30.8239 21.5341 31.0473 21.5341 31.3006C21.5341 31.5606 21.5841 31.7906 21.6841 31.9906C21.7907 32.1839 21.9341 32.3373 22.1141 32.4506C22.3007 32.5573 22.5141 32.6106 22.7541 32.6106ZM23.9141 33.7206V32.4206L24.1241 31.2406L23.9141 30.0806V28.8906H25.2141V33.7206H23.9141ZM26.873 33.7206V28.8906H28.183V33.7206H26.873ZM28.183 31.0506L27.673 30.7106C27.733 30.1173 27.9063 29.6506 28.193 29.3106C28.4796 28.9639 28.893 28.7906 29.433 28.7906C29.6663 28.7906 29.8763 28.8306 30.063 28.9106C30.2496 28.9839 30.4196 29.1073 30.573 29.2806L29.753 30.2206C29.6796 30.1406 29.5896 30.0806 29.483 30.0406C29.383 30.0006 29.2663 29.9806 29.133 29.9806C28.853 29.9806 28.623 30.0706 28.443 30.2506C28.2696 30.4239 28.183 30.6906 28.183 31.0506ZM33.4364 33.8206C32.9897 33.8206 32.5897 33.7106 32.2364 33.4906C31.8831 33.2706 31.6031 32.9706 31.3964 32.5906C31.1964 32.2106 31.0964 31.7839 31.0964 31.3106C31.0964 30.8306 31.1964 30.4006 31.3964 30.0206C31.6031 29.6406 31.8797 29.3406 32.2264 29.1206C32.5797 28.9006 32.9831 28.7906 33.4364 28.7906C33.7831 28.7906 34.0931 28.8606 34.3664 29.0006C34.6464 29.1406 34.8697 29.3373 35.0364 29.5906C35.2097 29.8373 35.3031 30.1173 35.3164 30.4306V32.1506C35.3031 32.4639 35.2131 32.7473 35.0464 33.0006C34.8797 33.2539 34.6564 33.4539 34.3764 33.6006C34.0964 33.7473 33.7831 33.8206 33.4364 33.8206ZM33.6564 32.6106C33.9031 32.6106 34.1164 32.5573 34.2964 32.4506C34.4831 32.3373 34.6264 32.1839 34.7264 31.9906C34.8331 31.7906 34.8864 31.5606 34.8864 31.3006C34.8864 31.0473 34.8331 30.8239 34.7264 30.6306C34.6264 30.4306 34.4831 30.2773 34.2964 30.1706C34.1164 30.0573 33.9064 30.0006 33.6664 30.0006C33.4197 30.0006 33.2031 30.0573 33.0164 30.1706C32.8364 30.2839 32.6931 30.4373 32.5864 30.6306C32.4864 30.8239 32.4364 31.0473 32.4364 31.3006C32.4364 31.5606 32.4864 31.7906 32.5864 31.9906C32.6931 32.1839 32.8397 32.3373 33.0264 32.4506C33.2131 32.5573 33.4231 32.6106 33.6564 32.6106ZM36.1164 33.7206H34.8164V32.4206L35.0264 31.2406L34.8064 30.0806V26.4906H36.1164V33.7206ZM39.4353 33.8306C39.162 33.8306 38.892 33.7939 38.6253 33.7206C38.3653 33.6473 38.1253 33.5473 37.9053 33.4206C37.6853 33.2873 37.4953 33.1273 37.3353 32.9406L38.1153 32.1506C38.282 32.3373 38.4753 32.4773 38.6953 32.5706C38.9153 32.6639 39.1586 32.7106 39.4253 32.7106C39.6386 32.7106 39.7986 32.6806 39.9053 32.6206C40.0186 32.5606 40.0753 32.4706 40.0753 32.3506C40.0753 32.2173 40.0153 32.1139 39.8953 32.0406C39.782 31.9673 39.632 31.9073 39.4453 31.8606C39.2586 31.8073 39.062 31.7506 38.8553 31.6906C38.6553 31.6239 38.462 31.5406 38.2753 31.4406C38.0886 31.3339 37.9353 31.1906 37.8153 31.0106C37.702 30.8239 37.6453 30.5839 37.6453 30.2906C37.6453 29.9839 37.7186 29.7173 37.8653 29.4906C38.0186 29.2639 38.2353 29.0873 38.5153 28.9606C38.7953 28.8339 39.1253 28.7706 39.5053 28.7706C39.9053 28.7706 40.2653 28.8406 40.5853 28.9806C40.912 29.1206 41.182 29.3306 41.3953 29.6106L40.6053 30.4006C40.4586 30.2206 40.292 30.0906 40.1053 30.0106C39.9253 29.9306 39.7286 29.8906 39.5153 29.8906C39.322 29.8906 39.172 29.9206 39.0653 29.9806C38.9653 30.0406 38.9153 30.1239 38.9153 30.2306C38.9153 30.3506 38.972 30.4439 39.0853 30.5106C39.2053 30.5773 39.3586 30.6373 39.5453 30.6906C39.732 30.7373 39.9253 30.7939 40.1253 30.8606C40.332 30.9206 40.5253 31.0073 40.7053 31.1206C40.892 31.2339 41.042 31.3839 41.1553 31.5706C41.2753 31.7573 41.3353 31.9973 41.3353 32.2906C41.3353 32.7639 41.1653 33.1406 40.8253 33.4206C40.4853 33.6939 40.022 33.8306 39.4353 33.8306Z" fill="#808080"/>
<path d="M6.30005 5.65437C6.36818 5.46815 6.63161 5.46815 6.69974 5.65437L6.90327 6.21018C7.06289 6.6462 7.31567 7.04217 7.64399 7.3705C7.97232 7.69883 8.36829 7.95161 8.80432 8.11123L9.36013 8.31476C9.54663 8.38289 9.54663 8.64631 9.36013 8.71444L8.80432 8.91797C8.36829 9.07759 7.97232 9.33037 7.64399 9.6587C7.31567 9.98702 7.06289 10.383 6.90327 10.819L6.69974 11.3748C6.63161 11.5613 6.36818 11.5613 6.30005 11.3748L6.09652 10.819C5.9369 10.383 5.68412 9.98702 5.3558 9.6587C5.02747 9.33037 4.6315 9.07759 4.19547 8.91797L3.63966 8.71444C3.45345 8.64631 3.45345 8.38289 3.63966 8.31476L4.19547 8.11123C4.6315 7.95161 5.02747 7.69883 5.3558 7.3705C5.68412 7.04217 5.9369 6.6462 6.09652 6.21018L6.30005 5.65437Z" fill="#808080"/>
<path d="M22.295 0.0147057L17.4347 4.04716L17.5746 6.86763L20.6526 8.60315L22.5931 17.3287L23.25 16.0391L23.9678 4.75336L25.1053 4.8013L24.5518 13.4789L26.2733 10.0846L26.7721 4.90677L26.8268 4.04716L22.295 0.0147057ZM30.7504 2.43916L27.9157 4.87321L27.6785 7.32308L28.3233 6.06698L30.1725 5.41017C30.3671 4.42255 30.5557 3.43014 30.7504 2.43916ZM34.4184 4.89239L29.2053 6.73339L22.9641 19.0019L23.8522 22.9955H24.3267L33.3052 8.94354L34.3211 9.34626L25.5981 22.9955H27.0823L36 9.00587L34.4184 4.89239ZM13.7241 5.79851L10.4325 10.5496L14.6365 22.9955H20.3302L17.2218 9.82089L18.335 9.65789L21.486 22.9955H22.6965L19.6124 9.12093L13.7241 5.79851ZM35.5194 18.2828L31.5168 18.0335L28.4875 22.7894L32.7334 21.0299L35.5194 18.2828ZM9 16.9404L11.5834 23.0147H13.4686L11.7592 17.9616L9 16.9404Z" fill="#808080"/>
<path d="M36.8667 0.107814C36.9121 -0.0163303 37.0877 -0.0163303 37.1332 0.107814L37.2688 0.478353C37.3753 0.769036 37.5438 1.03302 37.7627 1.2519C37.9815 1.47079 38.2455 1.63931 38.5362 1.74572L38.9068 1.88141C39.0311 1.92683 39.0311 2.10244 38.9068 2.14786L38.5362 2.28355C38.2455 2.38996 37.9815 2.55848 37.7627 2.77737C37.5438 2.99625 37.3753 3.26023 37.2688 3.55092L37.1332 3.92146C37.0877 4.04579 36.9121 4.04579 36.8667 3.92146L36.731 3.55092C36.6246 3.26023 36.4561 2.99625 36.2372 2.77737C36.0183 2.55848 35.7543 2.38996 35.4636 2.28355L35.0931 2.14786C34.969 2.10244 34.969 1.92683 35.0931 1.88141L35.4636 1.74572C35.7543 1.63931 36.0183 1.47079 36.2372 1.2519C36.4561 1.03302 36.6246 0.769036 36.731 0.478353L36.8667 0.107814Z" fill="#808080"/>
</svg>
