<svg width="43" height="35" viewBox="0 0 43 35" fill="none" xmlns="http://www.w3.org/2000/svg">
<path d="M1.08133 29.0747V28.0147H2.71133C3.04466 28.0147 3.30133 27.9314 3.48133 27.7647C3.668 27.5914 3.76133 27.3547 3.76133 27.0547C3.76133 26.7814 3.668 26.5547 3.48133 26.3747C3.30133 26.188 3.04466 26.0947 2.71133 26.0947H1.08133V24.9847H2.83133C3.28466 24.9847 3.68133 25.0747 4.02133 25.2547C4.36799 25.428 4.63466 25.668 4.82133 25.9747C5.01466 26.2814 5.11133 26.6347 5.11133 27.0347C5.11133 27.448 5.01466 27.808 4.82133 28.1147C4.63466 28.4147 4.36799 28.6514 4.02133 28.8247C3.67466 28.9914 3.27133 29.0747 2.81133 29.0747H1.08133ZM0.0813282 32.0147V24.9847H1.44133V32.0147H0.0813282ZM3.92133 32.0147L1.60133 28.9747L2.85133 28.5847L5.57133 32.0147H3.92133ZM8.87438 32.1147C8.36771 32.1147 7.91771 32.008 7.52438 31.7947C7.13104 31.5747 6.81771 31.2747 6.58438 30.8947C6.35771 30.5147 6.24438 30.0814 6.24438 29.5947C6.24438 29.1147 6.35438 28.688 6.57438 28.3147C6.80104 27.9347 7.10771 27.6347 7.49438 27.4147C7.88104 27.188 8.31104 27.0747 8.78438 27.0747C9.25104 27.0747 9.66104 27.1814 10.0144 27.3947C10.3744 27.6014 10.6544 27.888 10.8544 28.2547C11.061 28.6147 11.1644 29.0247 11.1644 29.4847C11.1644 29.5714 11.1577 29.6614 11.1444 29.7547C11.1377 29.8414 11.121 29.9414 11.0944 30.0547L7.03438 30.0647V29.0847L10.4844 29.0747L9.95438 29.4847C9.94104 29.198 9.88771 28.958 9.79438 28.7647C9.70771 28.5714 9.57771 28.4247 9.40438 28.3247C9.23771 28.218 9.03104 28.1647 8.78438 28.1647C8.52438 28.1647 8.29771 28.2247 8.10438 28.3447C7.91104 28.458 7.76104 28.6214 7.65438 28.8347C7.55438 29.0414 7.50438 29.288 7.50438 29.5747C7.50438 29.868 7.55771 30.1247 7.66438 30.3447C7.77771 30.558 7.93771 30.7247 8.14438 30.8447C8.35104 30.958 8.59104 31.0147 8.86438 31.0147C9.11104 31.0147 9.33438 30.9747 9.53438 30.8947C9.73438 30.808 9.90771 30.6814 10.0544 30.5147L10.8244 31.2847C10.591 31.558 10.3044 31.7647 9.96438 31.9047C9.63104 32.0447 9.26771 32.1147 8.87438 32.1147ZM13.7059 32.0147L11.8959 27.1847H13.2159L14.3959 30.6947L13.9959 30.7047L15.2059 27.1847H16.1559L17.3659 30.7047L16.9659 30.6947L18.1459 27.1847H19.4659L17.6659 32.0147H16.7159L15.4959 28.6747H15.8659L14.6459 32.0147H13.7059ZM22.5141 32.1147C22.0741 32.1147 21.6774 32.0047 21.3241 31.7847C20.9707 31.5647 20.6941 31.2647 20.4941 30.8847C20.2941 30.5047 20.1941 30.078 20.1941 29.6047C20.1941 29.1247 20.2941 28.6947 20.4941 28.3147C20.6941 27.9347 20.9707 27.6347 21.3241 27.4147C21.6774 27.1947 22.0741 27.0847 22.5141 27.0847C22.8607 27.0847 23.1707 27.1547 23.4441 27.2947C23.7174 27.4347 23.9341 27.6314 24.0941 27.8847C24.2607 28.1314 24.3507 28.4114 24.3641 28.7247V30.4647C24.3507 30.7847 24.2607 31.068 24.0941 31.3147C23.9341 31.5614 23.7174 31.758 23.4441 31.9047C23.1707 32.0447 22.8607 32.1147 22.5141 32.1147ZM22.7541 30.9047C23.1207 30.9047 23.4174 30.7847 23.6441 30.5447C23.8707 30.298 23.9841 29.9814 23.9841 29.5947C23.9841 29.3414 23.9307 29.118 23.8241 28.9247C23.7241 28.7247 23.5807 28.5714 23.3941 28.4647C23.2141 28.3514 23.0007 28.2947 22.7541 28.2947C22.5141 28.2947 22.3007 28.3514 22.1141 28.4647C21.9341 28.5714 21.7907 28.7247 21.6841 28.9247C21.5841 29.118 21.5341 29.3414 21.5341 29.5947C21.5341 29.8547 21.5841 30.0847 21.6841 30.2847C21.7907 30.478 21.9341 30.6314 22.1141 30.7447C22.3007 30.8514 22.5141 30.9047 22.7541 30.9047ZM23.9141 32.0147V30.7147L24.1241 29.5347L23.9141 28.3747V27.1847H25.2141V32.0147H23.9141ZM26.873 32.0147V27.1847H28.183V32.0147H26.873ZM28.183 29.3447L27.673 29.0047C27.733 28.4114 27.9063 27.9447 28.193 27.6047C28.4796 27.258 28.893 27.0847 29.433 27.0847C29.6663 27.0847 29.8763 27.1247 30.063 27.2047C30.2496 27.278 30.4196 27.4014 30.573 27.5747L29.753 28.5147C29.6796 28.4347 29.5896 28.3747 29.483 28.3347C29.383 28.2947 29.2663 28.2747 29.133 28.2747C28.853 28.2747 28.623 28.3647 28.443 28.5447C28.2696 28.718 28.183 28.9847 28.183 29.3447ZM33.4364 32.1147C32.9897 32.1147 32.5897 32.0047 32.2364 31.7847C31.8831 31.5647 31.6031 31.2647 31.3964 30.8847C31.1964 30.5047 31.0964 30.078 31.0964 29.6047C31.0964 29.1247 31.1964 28.6947 31.3964 28.3147C31.6031 27.9347 31.8797 27.6347 32.2264 27.4147C32.5797 27.1947 32.9831 27.0847 33.4364 27.0847C33.7831 27.0847 34.0931 27.1547 34.3664 27.2947C34.6464 27.4347 34.8697 27.6314 35.0364 27.8847C35.2097 28.1314 35.3031 28.4114 35.3164 28.7247V30.4447C35.3031 30.758 35.2131 31.0414 35.0464 31.2947C34.8797 31.548 34.6564 31.748 34.3764 31.8947C34.0964 32.0414 33.7831 32.1147 33.4364 32.1147ZM33.6564 30.9047C33.9031 30.9047 34.1164 30.8514 34.2964 30.7447C34.4831 30.6314 34.6264 30.478 34.7264 30.2847C34.8331 30.0847 34.8864 29.8547 34.8864 29.5947C34.8864 29.3414 34.8331 29.118 34.7264 28.9247C34.6264 28.7247 34.4831 28.5714 34.2964 28.4647C34.1164 28.3514 33.9064 28.2947 33.6664 28.2947C33.4197 28.2947 33.2031 28.3514 33.0164 28.4647C32.8364 28.578 32.6931 28.7314 32.5864 28.9247C32.4864 29.118 32.4364 29.3414 32.4364 29.5947C32.4364 29.8547 32.4864 30.0847 32.5864 30.2847C32.6931 30.478 32.8397 30.6314 33.0264 30.7447C33.2131 30.8514 33.4231 30.9047 33.6564 30.9047ZM36.1164 32.0147H34.8164V30.7147L35.0264 29.5347L34.8064 28.3747V24.7847H36.1164V32.0147ZM39.4353 32.1247C39.162 32.1247 38.892 32.088 38.6253 32.0147C38.3653 31.9414 38.1253 31.8414 37.9053 31.7147C37.6853 31.5814 37.4953 31.4214 37.3353 31.2347L38.1153 30.4447C38.282 30.6314 38.4753 30.7714 38.6953 30.8647C38.9153 30.958 39.1586 31.0047 39.4253 31.0047C39.6386 31.0047 39.7986 30.9747 39.9053 30.9147C40.0186 30.8547 40.0753 30.7647 40.0753 30.6447C40.0753 30.5114 40.0153 30.408 39.8953 30.3347C39.782 30.2614 39.632 30.2014 39.4453 30.1547C39.2586 30.1014 39.062 30.0447 38.8553 29.9847C38.6553 29.918 38.462 29.8347 38.2753 29.7347C38.0886 29.628 37.9353 29.4847 37.8153 29.3047C37.702 29.118 37.6453 28.878 37.6453 28.5847C37.6453 28.278 37.7186 28.0114 37.8653 27.7847C38.0186 27.558 38.2353 27.3814 38.5153 27.2547C38.7953 27.128 39.1253 27.0647 39.5053 27.0647C39.9053 27.0647 40.2653 27.1347 40.5853 27.2747C40.912 27.4147 41.182 27.6247 41.3953 27.9047L40.6053 28.6947C40.4586 28.5147 40.292 28.3847 40.1053 28.3047C39.9253 28.2247 39.7286 28.1847 39.5153 28.1847C39.322 28.1847 39.172 28.2147 39.0653 28.2747C38.9653 28.3347 38.9153 28.418 38.9153 28.5247C38.9153 28.6447 38.972 28.738 39.0853 28.8047C39.2053 28.8714 39.3586 28.9314 39.5453 28.9847C39.732 29.0314 39.9253 29.088 40.1253 29.1547C40.332 29.2147 40.5253 29.3014 40.7053 29.4147C40.892 29.528 41.042 29.678 41.1553 29.8647C41.2753 30.0514 41.3353 30.2914 41.3353 30.5847C41.3353 31.058 41.1653 31.4347 40.8253 31.7147C40.4853 31.988 40.022 32.1247 39.4353 32.1247Z" fill="#808080"/>
<path d="M6.30005 5.65437C6.36818 5.46815 6.63161 5.46815 6.69974 5.65437L6.90327 6.21018C7.06289 6.6462 7.31567 7.04217 7.64399 7.3705C7.97232 7.69883 8.36829 7.95161 8.80432 8.11123L9.36013 8.31476C9.54663 8.38289 9.54663 8.64631 9.36013 8.71444L8.80432 8.91797C8.36829 9.07759 7.97232 9.33037 7.64399 9.6587C7.31567 9.98702 7.06289 10.383 6.90327 10.819L6.69974 11.3748C6.63161 11.5613 6.36818 11.5613 6.30005 11.3748L6.09652 10.819C5.9369 10.383 5.68412 9.98702 5.3558 9.6587C5.02747 9.33037 4.6315 9.07759 4.19547 8.91797L3.63966 8.71444C3.45345 8.64631 3.45345 8.38289 3.63966 8.31476L4.19547 8.11123C4.6315 7.95161 5.02747 7.69883 5.3558 7.3705C5.68412 7.04217 5.9369 6.6462 6.09652 6.21018L6.30005 5.65437Z" fill="#808080"/>
<path d="M22.295 0L17.4347 4.03246L17.5746 6.85292L20.6526 8.58844L22.5931 17.314L23.25 16.0243L23.9678 4.73865L25.1053 4.78659L24.5518 13.4642L26.2733 10.0699L26.7721 4.89207L26.8268 4.03246L22.295 0ZM30.7504 2.42446L27.9157 4.85851L27.6785 7.30838L28.3233 6.05228L30.1725 5.39546C30.3671 4.40785 30.5557 3.41543 30.7504 2.42446ZM34.4184 4.87768L29.2053 6.71868L22.9641 18.9872L23.8522 22.9808H24.3267L33.3052 8.92884L34.3211 9.33156L25.5981 22.9808H27.0823L36 8.99116L34.4184 4.87768ZM13.7241 5.7838L10.4325 10.5349L14.6365 22.9808H20.3302L17.2218 9.80619L18.335 9.64318L21.486 22.9808H22.6965L19.6124 9.10623L13.7241 5.7838ZM35.5194 18.2681L31.5168 18.0188L28.4875 22.7747L32.7334 21.0152L35.5194 18.2681ZM9 16.9257L11.5834 23H13.4686L11.7592 17.9468L9 16.9257Z" fill="#808080"/>
<path d="M36.8667 0.107814C36.9121 -0.0163303 37.0877 -0.0163303 37.1332 0.107814L37.2688 0.478353C37.3753 0.769036 37.5438 1.03302 37.7627 1.2519C37.9815 1.47079 38.2455 1.63931 38.5362 1.74572L38.9068 1.88141C39.0311 1.92683 39.0311 2.10244 38.9068 2.14786L38.5362 2.28355C38.2455 2.38996 37.9815 2.55848 37.7627 2.77737C37.5438 2.99625 37.3753 3.26023 37.2688 3.55092L37.1332 3.92146C37.0877 4.04579 36.9121 4.04579 36.8667 3.92146L36.731 3.55092C36.6246 3.26023 36.4561 2.99625 36.2372 2.77737C36.0183 2.55848 35.7543 2.38996 35.4636 2.28355L35.0931 2.14786C34.969 2.10244 34.969 1.92683 35.0931 1.88141L35.4636 1.74572C35.7543 1.63931 36.0183 1.47079 36.2372 1.2519C36.4561 1.03302 36.6246 0.769036 36.731 0.478353L36.8667 0.107814Z" fill="#808080"/>
</svg>
