<svg width="128" height="70" viewBox="0 0 128 70" fill="none" xmlns="http://www.w3.org/2000/svg">
<rect width="128" height="70" fill="black"/>
<path d="M44.0813 48.7806V47.7206H45.7113C46.0447 47.7206 46.3013 47.6373 46.4813 47.4706C46.668 47.2973 46.7613 47.0606 46.7613 46.7606C46.7613 46.4873 46.668 46.2606 46.4813 46.0806C46.3013 45.8939 46.0447 45.8006 45.7113 45.8006H44.0813V44.6906H45.8313C46.2847 44.6906 46.6813 44.7806 47.0213 44.9606C47.368 45.1339 47.6347 45.3739 47.8213 45.6806C48.0147 45.9873 48.1113 46.3406 48.1113 46.7406C48.1113 47.1539 48.0147 47.5139 47.8213 47.8206C47.6347 48.1206 47.368 48.3573 47.0213 48.5306C46.6747 48.6973 46.2713 48.7806 45.8113 48.7806H44.0813ZM43.0813 51.7206V44.6906H44.4413V51.7206H43.0813ZM46.9213 51.7206L44.6013 48.6806L45.8513 48.2906L48.5713 51.7206H46.9213ZM51.8744 51.8206C51.3677 51.8206 50.9177 51.7139 50.5244 51.5006C50.131 51.2806 49.8177 50.9806 49.5844 50.6006C49.3577 50.2206 49.2444 49.7873 49.2444 49.3006C49.2444 48.8206 49.3544 48.3939 49.5744 48.0206C49.801 47.6406 50.1077 47.3406 50.4944 47.1206C50.881 46.8939 51.311 46.7806 51.7844 46.7806C52.251 46.7806 52.661 46.8873 53.0144 47.1006C53.3744 47.3073 53.6544 47.5939 53.8544 47.9606C54.061 48.3206 54.1644 48.7306 54.1644 49.1906C54.1644 49.2773 54.1577 49.3673 54.1444 49.4606C54.1377 49.5473 54.121 49.6473 54.0944 49.7606L50.0344 49.7706V48.7906L53.4844 48.7806L52.9544 49.1906C52.941 48.9039 52.8877 48.6639 52.7944 48.4706C52.7077 48.2773 52.5777 48.1306 52.4044 48.0306C52.2377 47.9239 52.031 47.8706 51.7844 47.8706C51.5244 47.8706 51.2977 47.9306 51.1044 48.0506C50.911 48.1639 50.761 48.3273 50.6544 48.5406C50.5544 48.7473 50.5044 48.9939 50.5044 49.2806C50.5044 49.5739 50.5577 49.8306 50.6644 50.0506C50.7777 50.2639 50.9377 50.4306 51.1444 50.5506C51.351 50.6639 51.591 50.7206 51.8644 50.7206C52.111 50.7206 52.3344 50.6806 52.5344 50.6006C52.7344 50.5139 52.9077 50.3873 53.0544 50.2206L53.8244 50.9906C53.591 51.2639 53.3044 51.4706 52.9644 51.6106C52.631 51.7506 52.2677 51.8206 51.8744 51.8206ZM56.7059 51.7206L54.8959 46.8906H56.2159L57.3959 50.4006L56.9959 50.4106L58.2059 46.8906H59.1559L60.3659 50.4106L59.9659 50.4006L61.1459 46.8906H62.4659L60.6659 51.7206H59.7159L58.4959 48.3806H58.8659L57.6459 51.7206H56.7059ZM65.5141 51.8206C65.0741 51.8206 64.6774 51.7106 64.3241 51.4906C63.9707 51.2706 63.6941 50.9706 63.4941 50.5906C63.2941 50.2106 63.1941 49.7839 63.1941 49.3106C63.1941 48.8306 63.2941 48.4006 63.4941 48.0206C63.6941 47.6406 63.9707 47.3406 64.3241 47.1206C64.6774 46.9006 65.0741 46.7906 65.5141 46.7906C65.8607 46.7906 66.1707 46.8606 66.4441 47.0006C66.7174 47.1406 66.9341 47.3373 67.0941 47.5906C67.2607 47.8373 67.3507 48.1173 67.3641 48.4306V50.1706C67.3507 50.4906 67.2607 50.7739 67.0941 51.0206C66.9341 51.2673 66.7174 51.4639 66.4441 51.6106C66.1707 51.7506 65.8607 51.8206 65.5141 51.8206ZM65.7541 50.6106C66.1207 50.6106 66.4174 50.4906 66.6441 50.2506C66.8707 50.0039 66.9841 49.6873 66.9841 49.3006C66.9841 49.0473 66.9307 48.8239 66.8241 48.6306C66.7241 48.4306 66.5807 48.2773 66.3941 48.1706C66.2141 48.0573 66.0007 48.0006 65.7541 48.0006C65.5141 48.0006 65.3007 48.0573 65.1141 48.1706C64.9341 48.2773 64.7907 48.4306 64.6841 48.6306C64.5841 48.8239 64.5341 49.0473 64.5341 49.3006C64.5341 49.5606 64.5841 49.7906 64.6841 49.9906C64.7907 50.1839 64.9341 50.3373 65.1141 50.4506C65.3007 50.5573 65.5141 50.6106 65.7541 50.6106ZM66.9141 51.7206V50.4206L67.1241 49.2406L66.9141 48.0806V46.8906H68.2141V51.7206H66.9141ZM69.873 51.7206V46.8906H71.183V51.7206H69.873ZM71.183 49.0506L70.673 48.7106C70.733 48.1173 70.9063 47.6506 71.193 47.3106C71.4796 46.9639 71.893 46.7906 72.433 46.7906C72.6663 46.7906 72.8763 46.8306 73.063 46.9106C73.2496 46.9839 73.4196 47.1073 73.573 47.2806L72.753 48.2206C72.6796 48.1406 72.5896 48.0806 72.483 48.0406C72.383 48.0006 72.2663 47.9806 72.133 47.9806C71.853 47.9806 71.623 48.0706 71.443 48.2506C71.2696 48.4239 71.183 48.6906 71.183 49.0506ZM76.4364 51.8206C75.9897 51.8206 75.5897 51.7106 75.2364 51.4906C74.8831 51.2706 74.6031 50.9706 74.3964 50.5906C74.1964 50.2106 74.0964 49.7839 74.0964 49.3106C74.0964 48.8306 74.1964 48.4006 74.3964 48.0206C74.6031 47.6406 74.8797 47.3406 75.2264 47.1206C75.5797 46.9006 75.9831 46.7906 76.4364 46.7906C76.7831 46.7906 77.0931 46.8606 77.3664 47.0006C77.6464 47.1406 77.8697 47.3373 78.0364 47.5906C78.2097 47.8373 78.3031 48.1173 78.3164 48.4306V50.1506C78.3031 50.4639 78.2131 50.7473 78.0464 51.0006C77.8797 51.2539 77.6564 51.4539 77.3764 51.6006C77.0964 51.7473 76.7831 51.8206 76.4364 51.8206ZM76.6564 50.6106C76.9031 50.6106 77.1164 50.5573 77.2964 50.4506C77.4831 50.3373 77.6264 50.1839 77.7264 49.9906C77.8331 49.7906 77.8864 49.5606 77.8864 49.3006C77.8864 49.0473 77.8331 48.8239 77.7264 48.6306C77.6264 48.4306 77.4831 48.2773 77.2964 48.1706C77.1164 48.0573 76.9064 48.0006 76.6664 48.0006C76.4197 48.0006 76.2031 48.0573 76.0164 48.1706C75.8364 48.2839 75.6931 48.4373 75.5864 48.6306C75.4864 48.8239 75.4364 49.0473 75.4364 49.3006C75.4364 49.5606 75.4864 49.7906 75.5864 49.9906C75.6931 50.1839 75.8397 50.3373 76.0264 50.4506C76.2131 50.5573 76.4231 50.6106 76.6564 50.6106ZM79.1164 51.7206H77.8164V50.4206L78.0264 49.2406L77.8064 48.0806V44.4906H79.1164V51.7206ZM82.4353 51.8306C82.162 51.8306 81.892 51.7939 81.6253 51.7206C81.3653 51.6473 81.1253 51.5473 80.9053 51.4206C80.6853 51.2873 80.4953 51.1273 80.3353 50.9406L81.1153 50.1506C81.282 50.3373 81.4753 50.4773 81.6953 50.5706C81.9153 50.6639 82.1586 50.7106 82.4253 50.7106C82.6386 50.7106 82.7986 50.6806 82.9053 50.6206C83.0186 50.5606 83.0753 50.4706 83.0753 50.3506C83.0753 50.2173 83.0153 50.1139 82.8953 50.0406C82.782 49.9673 82.632 49.9073 82.4453 49.8606C82.2586 49.8073 82.062 49.7506 81.8553 49.6906C81.6553 49.6239 81.462 49.5406 81.2753 49.4406C81.0886 49.3339 80.9353 49.1906 80.8153 49.0106C80.702 48.8239 80.6453 48.5839 80.6453 48.2906C80.6453 47.9839 80.7186 47.7173 80.8653 47.4906C81.0186 47.2639 81.2353 47.0873 81.5153 46.9606C81.7953 46.8339 82.1253 46.7706 82.5053 46.7706C82.9053 46.7706 83.2653 46.8406 83.5853 46.9806C83.912 47.1206 84.182 47.3306 84.3953 47.6106L83.6053 48.4006C83.4586 48.2206 83.292 48.0906 83.1053 48.0106C82.9253 47.9306 82.7286 47.8906 82.5153 47.8906C82.322 47.8906 82.172 47.9206 82.0653 47.9806C81.9653 48.0406 81.9153 48.1239 81.9153 48.2306C81.9153 48.3506 81.972 48.4439 82.0853 48.5106C82.2053 48.5773 82.3586 48.6373 82.5453 48.6906C82.732 48.7373 82.9253 48.7939 83.1253 48.8606C83.332 48.9206 83.5253 49.0073 83.7053 49.1206C83.892 49.2339 84.042 49.3839 84.1553 49.5706C84.2753 49.7573 84.3353 49.9973 84.3353 50.2906C84.3353 50.7639 84.1653 51.1406 83.8253 51.4206C83.4853 51.6939 83.022 51.8306 82.4353 51.8306Z" fill="#808080"/>
<path d="M49.3001 23.6544C49.3682 23.4682 49.6316 23.4682 49.6997 23.6544L49.9033 24.2102C50.0629 24.6462 50.3157 25.0422 50.644 25.3705C50.9723 25.6988 51.3683 25.9516 51.8043 26.1112L52.3601 26.3148C52.5466 26.3829 52.5466 26.6463 52.3601 26.7144L51.8043 26.918C51.3683 27.0776 50.9723 27.3304 50.644 27.6587C50.3157 27.987 50.0629 28.383 49.9033 28.819L49.6997 29.3748C49.6316 29.5613 49.3682 29.5613 49.3001 29.3748L49.0965 28.819C48.9369 28.383 48.6841 27.987 48.3558 27.6587C48.0275 27.3304 47.6315 27.0776 47.1955 26.918L46.6397 26.7144C46.4534 26.6463 46.4534 26.3829 46.6397 26.3148L47.1955 26.1112C47.6315 25.9516 48.0275 25.6988 48.3558 25.3705C48.6841 25.0422 48.9369 24.6462 49.0965 24.2102L49.3001 23.6544Z" fill="#808080"/>
<path d="M65.295 18.0147L60.4347 22.0472L60.5746 24.8676L63.6526 26.6031L65.5931 35.3287L66.25 34.0391L66.9678 22.7534L68.1053 22.8013L67.5518 31.4789L69.2733 28.0846L69.7721 22.9068L69.8268 22.0472L65.295 18.0147ZM73.7504 20.4392L70.9157 22.8732L70.6785 25.3231L71.3233 24.067L73.1725 23.4102C73.3671 22.4226 73.5557 21.4301 73.7504 20.4392ZM77.4184 22.8924L72.2053 24.7334L65.9641 37.0019L66.8522 40.9955H67.3267L76.3052 26.9435L77.3211 27.3463L68.5981 40.9955H70.0823L79 27.0059L77.4184 22.8924ZM56.7241 23.7985L53.4325 28.5496L57.6365 40.9955H63.3302L60.2218 27.8209L61.335 27.6579L64.486 40.9955H65.6965L62.6124 27.1209L56.7241 23.7985ZM78.5194 36.2828L74.5168 36.0335L71.4875 40.7894L75.7334 39.0299L78.5194 36.2828ZM52 34.9404L54.5834 41.0147H56.4686L54.7592 35.9616L52 34.9404Z" fill="#808080"/>
<path d="M79.8667 18.1078C79.9121 17.9837 80.0877 17.9837 80.1332 18.1078L80.2688 18.4784C80.3753 18.769 80.5438 19.033 80.7627 19.2519C80.9815 19.4708 81.2455 19.6393 81.5362 19.7457L81.9068 19.8814C82.0311 19.9268 82.0311 20.1024 81.9068 20.1479L81.5362 20.2836C81.2455 20.39 80.9815 20.5585 80.7627 20.7774C80.5438 20.9963 80.3753 21.2602 80.2688 21.5509L80.1332 21.9215C80.0877 22.0458 79.9121 22.0458 79.8667 21.9215L79.731 21.5509C79.6246 21.2602 79.4561 20.9963 79.2372 20.7774C79.0183 20.5585 78.7543 20.39 78.4636 20.2836L78.0931 20.1479C77.969 20.1024 77.969 19.9268 78.0931 19.8814L78.4636 19.7457C78.7543 19.6393 79.0183 19.4708 79.2372 19.2519C79.4561 19.033 79.6246 18.769 79.731 18.4784L79.8667 18.1078Z" fill="#808080"/>
</svg>
