<svg width="27" height="35" viewBox="0 0 27 35" fill="none" xmlns="http://www.w3.org/2000/svg">
<path d="M6.83324 31.2912C6.26658 31.2912 5.77991 31.1945 5.37324 31.0012C4.97324 30.8078 4.60991 30.5178 4.28324 30.1312L5.18324 29.2312C5.38991 29.5045 5.62991 29.7178 5.90324 29.8712C6.17658 30.0178 6.50991 30.0912 6.90324 30.0912C7.25658 30.0912 7.53658 30.0212 7.74324 29.8812C7.95658 29.7412 8.06324 29.5478 8.06324 29.3012C8.06324 29.0878 8.00324 28.9145 7.88324 28.7812C7.76324 28.6478 7.60324 28.5345 7.40324 28.4412C7.20991 28.3478 6.99324 28.2645 6.75324 28.1912C6.51991 28.1112 6.28324 28.0212 6.04324 27.9212C5.80991 27.8212 5.59324 27.6978 5.39324 27.5512C5.19991 27.3978 5.04324 27.2045 4.92324 26.9712C4.80324 26.7312 4.74324 26.4312 4.74324 26.0712C4.74324 25.6445 4.84658 25.2812 5.05324 24.9812C5.25991 24.6812 5.54324 24.4512 5.90324 24.2912C6.26324 24.1312 6.66991 24.0512 7.12324 24.0512C7.60324 24.0512 8.03658 24.1412 8.42324 24.3212C8.80991 24.5012 9.12658 24.7345 9.37324 25.0212L8.47324 25.9212C8.26658 25.6945 8.05324 25.5278 7.83324 25.4212C7.61991 25.3145 7.37658 25.2612 7.10324 25.2612C6.78991 25.2612 6.54324 25.3212 6.36324 25.4412C6.18324 25.5612 6.09324 25.7345 6.09324 25.9612C6.09324 26.1545 6.15324 26.3112 6.27324 26.4312C6.39324 26.5512 6.54991 26.6545 6.74324 26.7412C6.94324 26.8278 7.15991 26.9112 7.39324 26.9912C7.63324 27.0712 7.86991 27.1612 8.10324 27.2612C8.34324 27.3612 8.55991 27.4912 8.75324 27.6512C8.95324 27.8112 9.11324 28.0178 9.23324 28.2712C9.35324 28.5178 9.41324 28.8245 9.41324 29.1912C9.41324 29.8445 9.18324 30.3578 8.72324 30.7312C8.26324 31.1045 7.63324 31.2912 6.83324 31.2912ZM10.8466 31.1912V26.3612H12.1666V31.1912H10.8466ZM11.5066 25.5812C11.2933 25.5812 11.1166 25.5112 10.9766 25.3712C10.8366 25.2245 10.7666 25.0445 10.7666 24.8312C10.7666 24.6245 10.8366 24.4478 10.9766 24.3012C11.1166 24.1545 11.2933 24.0812 11.5066 24.0812C11.7266 24.0812 11.9033 24.1545 12.0366 24.3012C12.1766 24.4478 12.2466 24.6245 12.2466 24.8312C12.2466 25.0445 12.1766 25.2245 12.0366 25.3712C11.9033 25.5112 11.7266 25.5812 11.5066 25.5812ZM14.5371 31.1912V24.3512H15.8471V31.1912H14.5371ZM13.4071 27.5112V26.3612H16.9771V27.5112H13.4071ZM20.4066 31.2912C19.8999 31.2912 19.4499 31.1845 19.0566 30.9712C18.6633 30.7512 18.3499 30.4512 18.1166 30.0712C17.8899 29.6912 17.7766 29.2578 17.7766 28.7712C17.7766 28.2912 17.8866 27.8645 18.1066 27.4912C18.3333 27.1112 18.6399 26.8112 19.0266 26.5912C19.4133 26.3645 19.8433 26.2512 20.3166 26.2512C20.7833 26.2512 21.1933 26.3578 21.5466 26.5712C21.9066 26.7778 22.1866 27.0645 22.3866 27.4312C22.5933 27.7912 22.6966 28.2012 22.6966 28.6612C22.6966 28.7478 22.6899 28.8378 22.6766 28.9312C22.6699 29.0178 22.6533 29.1178 22.6266 29.2312L18.5666 29.2412V28.2612L22.0166 28.2512L21.4866 28.6612C21.4733 28.3745 21.4199 28.1345 21.3266 27.9412C21.2399 27.7478 21.1099 27.6012 20.9366 27.5012C20.7699 27.3945 20.5633 27.3412 20.3166 27.3412C20.0566 27.3412 19.8299 27.4012 19.6366 27.5212C19.4433 27.6345 19.2933 27.7978 19.1866 28.0112C19.0866 28.2178 19.0366 28.4645 19.0366 28.7512C19.0366 29.0445 19.0899 29.3012 19.1966 29.5212C19.3099 29.7345 19.4699 29.9012 19.6766 30.0212C19.8833 30.1345 20.1233 30.1912 20.3966 30.1912C20.6433 30.1912 20.8666 30.1512 21.0666 30.0712C21.2666 29.9845 21.4399 29.8578 21.5866 29.6912L22.3566 30.4612C22.1233 30.7345 21.8366 30.9412 21.4966 31.0812C21.1633 31.2212 20.7999 31.2912 20.4066 31.2912Z" fill="#808080"/>
<path d="M24.7443 0.728145C24.7346 0.727714 24.7249 0.72795 24.7152 0.728851C23.937 0.801584 22.8123 1.86207 23.2284 2.51301C23.4294 2.82726 24.025 2.47031 24.3286 2.24976C24.7183 1.9666 25.1538 1.49104 25.072 1.02137C25.0475 0.880618 24.8908 0.734093 24.7444 0.728086L24.7443 0.728145ZM21.3027 1.06071C20.8124 1.0626 19.7051 2.2537 19.8059 3.02808C19.8448 3.32726 20.2374 3.59363 20.5429 3.5696C20.9832 3.53486 21.3084 3.03998 21.4647 2.6338C21.6516 2.14781 21.8797 1.27644 21.392 1.07667C21.3637 1.06552 21.3333 1.06006 21.3027 1.06071ZM21.451 4.36719C21.2026 4.36584 20.9548 4.39118 20.712 4.44275C19.9983 4.59469 19.3654 4.97231 19.0864 5.41448C19.0862 5.41495 19.086 5.41401 19.0857 5.41377C19.0869 5.41554 19.0892 5.42084 19.0962 5.4497C19.1116 5.51401 19.1688 5.6421 19.2517 5.79493C19.4176 6.10058 19.7357 6.51754 19.6298 7.11118C19.4875 7.90935 18.8841 8.39198 18.4377 8.81041C18.4092 8.83709 18.3837 8.86224 18.3567 8.88803C18.3686 8.95988 18.3783 9.03265 18.3857 9.10635C18.4381 9.62932 18.3974 10.1841 18.1812 10.6632C18.2331 10.7054 18.2851 10.738 18.3345 10.7568C18.7243 10.9041 19.4537 10.6643 19.9576 10.2977C20.2791 10.0638 20.5095 9.68709 20.7343 9.21171C20.9592 8.73633 21.1681 8.1779 21.529 7.66165C21.6596 7.47461 21.8055 7.31359 21.9513 7.16754C21.7984 6.7388 21.7515 6.27767 21.8902 5.83521C22.03 5.38915 22.3181 4.99328 22.6805 4.66601C22.6717 4.65953 22.6628 4.65247 22.6539 4.64716C22.3481 4.46695 21.9144 4.36978 21.451 4.36719ZM24.449 4.91842C24.4236 4.91817 24.3982 4.91969 24.3731 4.92296C24.2319 4.93945 24.0227 5.01589 23.8142 5.14475C23.397 5.40246 23.0025 5.88403 22.9199 6.14769C22.8738 6.29481 22.9002 6.68497 23.0289 6.96689C23.1354 7.20023 23.2498 7.28697 23.3181 7.31695C23.3395 7.27826 23.3675 7.2305 23.3998 7.12237C23.4831 6.84351 23.5246 6.43014 23.7229 6.02478C23.9265 5.60888 24.2462 5.30735 24.4256 5.05924C24.4781 4.98656 24.4827 4.96619 24.5043 4.92349C24.486 4.92044 24.4675 4.91878 24.449 4.91854V4.91842ZM15.2683 5.79669L11.7464 8.39504C12.0055 9.04981 12.3634 10.2588 12.3634 10.2588L11.7746 11.0445L11.1018 10.1346L10.5673 8.4918H9.80803L8.05666 11.0758L8.41062 12.7817L6.20434 10.8829L0.646556 15.3305L1.29018 16.7119L4.29257 16.3394L7.51632 14.494L10.5598 14.9761L11.0607 15.0489L10.8084 14.8422L10.8846 14.5234C11.0493 13.8345 11.5969 13.1903 12.3387 12.4398C13.0804 11.6893 14.0324 10.8949 15.0385 10.203C15.1076 10.1555 15.1771 10.1085 15.2469 10.0618C15.3516 9.56459 15.6315 9.10617 15.9228 8.70682C16.1367 8.41353 16.368 8.15971 16.6111 7.96736C16.7326 7.87125 16.8557 7.78868 17.0084 7.7279C17.0847 7.69752 17.1763 7.66884 17.2792 7.66018C17.3949 7.65048 17.5113 7.66861 17.6183 7.713C17.7189 7.75423 17.8033 7.80753 17.8752 7.86866C17.9065 7.83833 17.941 7.80623 17.971 7.77655L15.2683 5.79657V5.79669ZM17.2362 8.84115C17.1074 8.95234 16.9472 9.12078 16.7983 9.32496C16.4715 9.77278 16.2666 10.3731 16.2911 10.5843C16.2935 10.584 16.307 10.6096 16.3471 10.6375C16.4038 10.677 16.4957 10.7028 16.5167 10.7035C16.6966 10.7092 17.0877 10.4612 17.1858 10.2571C17.283 10.0548 17.3512 9.58815 17.3133 9.21053C17.301 9.08507 17.2751 8.96125 17.2362 8.84115H17.2362ZM16.2911 10.5843C16.2901 10.5844 16.2905 10.5878 16.2925 10.599C16.2917 10.5946 16.2917 10.589 16.2911 10.5843H16.2911ZM22.0382 10.3852C22.1323 10.8317 22.1156 11.3328 22.0401 11.8426C21.891 12.8483 21.4927 13.9751 20.9829 15.0737C20.7745 15.5216 20.5492 15.9617 20.3075 16.3932L21.5361 16.5717L27 17.9125L26.4897 14.6202L25.2035 12.4459L23.8007 12.9059L22.8335 14.6018L23.3801 12.0373L24.6461 11.5035L24.481 11.2245L22.0381 10.3851L22.0382 10.3852ZM21.0028 10.7864C20.884 10.9165 20.7509 11.0392 20.5986 11.1499C19.9216 11.6425 18.9291 12.1173 17.9477 11.7462C17.7791 11.6821 17.6202 11.5956 17.4755 11.4891C17.1904 11.6714 16.8514 11.7749 16.4812 11.7629C16.1956 11.7537 15.946 11.6571 15.7241 11.5026C15.6193 11.4296 15.5175 11.3392 15.4323 11.2296C14.5645 11.8456 13.7421 12.5407 13.1113 13.1789C12.614 13.6821 12.2494 14.1771 12.0651 14.4926L13.4553 15.6315C13.8717 15.2284 14.4721 14.718 15.0854 14.2363C15.5019 13.9089 15.9112 13.6091 16.2623 13.3939C16.4377 13.2863 16.5949 13.1993 16.7626 13.1364C16.8464 13.1049 16.9325 13.077 17.0512 13.0676C17.1699 13.0582 17.3569 13.068 17.528 13.2082C17.699 13.3483 17.7428 13.5274 17.7549 13.644C17.7669 13.7606 17.7544 13.8489 17.7381 13.9357C17.7055 14.1095 17.647 14.2771 17.5711 14.4664C17.4194 14.8449 17.1936 15.295 16.9416 15.7573C16.5708 16.4375 16.1691 17.1108 15.8412 17.5864L17.2315 18.7255C17.5137 18.4901 17.9427 18.048 18.3559 17.4758C18.9249 16.6881 19.5214 15.6701 20.0024 14.6334C20.4836 13.5967 20.8483 12.5357 20.9735 11.6897C21.0262 11.3339 21.032 11.0325 21.0028 10.7863L21.0028 10.7864ZM16.3069 14.6505C16.1212 14.785 15.9382 14.9231 15.758 15.0646C15.039 15.6296 14.3208 16.2839 14.0448 16.5714C14.0617 16.8591 14.1225 17.0478 14.1798 17.1092C14.2402 17.174 14.3809 17.2449 14.7952 17.1864C15.0326 16.8676 15.557 16.0543 15.9921 15.2563C16.101 15.0565 16.206 14.8545 16.3068 14.6505H16.3069ZM13.5687 17.104L8.88672 22.6332C9.2996 22.6592 9.72289 22.6797 10.1554 22.6951L14.3487 17.7432L13.5687 17.104ZM11.651 17.7125C10.7712 17.7204 9.89171 17.7512 9.01353 17.8049L8.2825 18.7377L7.99176 17.88C6.72798 17.9861 5.56018 18.1388 4.52679 18.3281L4.4468 21.1361L3.75271 18.4817C3.6034 18.5138 3.45445 18.5476 3.30589 18.583C2.18796 18.85 1.29563 19.17 0.726845 19.4912C0.158062 19.8124 0 20.088 0 20.2116C0 20.3353 0.158062 20.6108 0.726845 20.932C1.29563 21.2532 2.18796 21.5732 3.30589 21.8401C4.50332 22.1262 5.96228 22.3555 7.59062 22.5074L11.6508 17.7125H11.651ZM19.1395 18.2191C18.5619 19.0071 18.0389 19.6044 17.4142 19.8734L17.1092 20.0048L15.1769 18.4215L11.5458 22.7095C11.7474 22.7119 11.9499 22.7132 12.154 22.7132C15.6236 22.7132 18.7661 22.3742 21.002 21.8402C22.12 21.5732 23.0124 21.2532 23.5811 20.9321C24.1499 20.6108 24.308 20.3353 24.308 20.2116C24.308 20.088 24.1499 19.8123 23.5811 19.4912C23.0124 19.1701 22.12 18.85 21.0021 18.583C20.9322 18.5663 20.8587 18.5503 20.787 18.534L19.9381 21.5163L19.8347 18.3382C19.6035 18.2958 19.3717 18.2561 19.1395 18.2192V18.2191Z" fill="#808080"/>
</svg>
