<svg width="71" height="35" viewBox="0 0 71 35" fill="none" xmlns="http://www.w3.org/2000/svg">
<path d="M0.5 8C0.5 3.58172 4.08172 0 8.5 0H62.5C66.9183 0 70.5 3.58172 70.5 8V27C70.5 31.4183 66.9183 35 62.5 35H8.5C4.08172 35 0.5 31.4183 0.5 27V8Z" fill="#383838"/>
<path d="M42.1667 16.8866V17.4999C42.1659 18.9376 41.7004 20.3364 40.8396 21.4878C39.9788 22.6393 38.7689 23.4816 37.3903 23.8892C36.0117 24.2968 34.5382 24.2479 33.1897 23.7497C31.8412 23.2515 30.6898 22.3307 29.9073 21.1247C29.1249 19.9186 28.7532 18.492 28.8478 17.0575C28.9424 15.623 29.4982 14.2575 30.4322 13.1647C31.3663 12.0718 32.6286 11.3102 34.0308 10.9934C35.4331 10.6766 36.9002 10.8215 38.2134 11.4066M42.1667 12.1666L35.5 18.8399L33.5 16.84" stroke="#B3B3B3" stroke-width="1.6" stroke-linecap="round" stroke-linejoin="round"/>
</svg>
