<svg width="17" height="17" viewBox="0 0 17 17" fill="none" xmlns="http://www.w3.org/2000/svg">
<g clip-path="url(#clip0_344_110)">
<path d="M3.83337 10.5H3.16671C2.81309 10.5 2.47395 10.3596 2.2239 10.1095C1.97385 9.85947 1.83337 9.52033 1.83337 9.16671V3.16671C1.83337 2.81309 1.97385 2.47395 2.2239 2.2239C2.47395 1.97385 2.81309 1.83337 3.16671 1.83337H9.16671C9.52033 1.83337 9.85947 1.97385 10.1095 2.2239C10.3596 2.47395 10.5 2.81309 10.5 3.16671V3.83337M7.83337 6.50004H13.8334C14.5698 6.50004 15.1667 7.09699 15.1667 7.83337V13.8334C15.1667 14.5698 14.5698 15.1667 13.8334 15.1667H7.83337C7.09699 15.1667 6.50004 14.5698 6.50004 13.8334V7.83337C6.50004 7.09699 7.09699 6.50004 7.83337 6.50004Z" stroke="white" stroke-width="2" stroke-linecap="round" stroke-linejoin="round"/>
</g>
<defs>
<clipPath id="clip0_344_110">
<rect width="16" height="16" fill="white" transform="translate(0.5 0.5)"/>
</clipPath>
</defs>
</svg>
