<svg width="51" height="35" viewBox="0 0 51 35" fill="none" xmlns="http://www.w3.org/2000/svg">
<path d="M0.5 16.2C0.5 10.4107 0.5 7.51599 1.66234 5.3207C2.60035 3.54913 4.04913 2.10035 5.8207 1.16234C8.01599 0 10.9107 0 16.7 0H34.3C40.0893 0 42.984 0 45.1793 1.16234C46.9509 2.10035 48.3997 3.54913 49.3377 5.3207C50.5 7.51599 50.5 10.4107 50.5 16.2V18.8C50.5 24.5893 50.5 27.484 49.3377 29.6793C48.3997 31.4509 46.9509 32.8997 45.1793 33.8377C42.984 35 40.0893 35 34.3 35H16.7C10.9107 35 8.01599 35 5.8207 33.8377C4.04913 32.8997 2.60035 31.4509 1.66234 29.6793C0.5 27.484 0.5 24.5893 0.5 18.8V16.2Z" fill="#FF2361"/>
<g clip-path="url(#clip0_371_514)">
<path d="M20.8334 19.5H20.1667C19.8131 19.5 19.4739 19.3596 19.2239 19.1095C18.9738 18.8595 18.8334 18.5203 18.8334 18.1667V12.1667C18.8334 11.8131 18.9738 11.4739 19.2239 11.2239C19.4739 10.9738 19.8131 10.8334 20.1667 10.8334H26.1667C26.5203 10.8334 26.8595 10.9738 27.1095 11.2239C27.3596 11.4739 27.5 11.8131 27.5 12.1667V12.8334M24.8334 15.5H30.8334C31.5698 15.5 32.1667 16.097 32.1667 16.8334V22.8334C32.1667 23.5698 31.5698 24.1667 30.8334 24.1667H24.8334C24.097 24.1667 23.5 23.5698 23.5 22.8334V16.8334C23.5 16.097 24.097 15.5 24.8334 15.5Z" stroke="white" stroke-width="2" stroke-linecap="round" stroke-linejoin="round"/>
</g>
<defs>
<clipPath id="clip0_371_514">
<rect width="16" height="16" fill="white" transform="translate(17.5 9.5)"/>
</clipPath>
</defs>
</svg>
