<svg width="50" height="55" viewBox="0 0 50 55" fill="none" xmlns="http://www.w3.org/2000/svg">
<g clip-path="url(#clip0_160_102)">
<rect x="1" y="1" width="48" height="53" rx="10" fill="black"/>
<path d="M12.4839 23.5V22.169H14.4529C14.9516 22.169 15.3879 22.0663 15.7619 21.861C16.1359 21.6483 16.4256 21.3513 16.6309 20.97C16.8436 20.5887 16.9499 20.1377 16.9499 19.617C16.9499 19.111 16.8436 18.671 16.6309 18.297C16.4183 17.9157 16.1249 17.6223 15.7509 17.417C15.3769 17.2043 14.9443 17.098 14.4529 17.098H12.4509V15.767H14.4749C15.0469 15.767 15.5749 15.8623 16.0589 16.053C16.5503 16.2437 16.9756 16.515 17.3349 16.867C17.7016 17.2117 17.9839 17.6187 18.1819 18.088C18.3873 18.5573 18.4899 19.0707 18.4899 19.628C18.4899 20.1853 18.3873 20.7023 18.1819 21.179C17.9839 21.6483 17.7053 22.059 17.3459 22.411C16.9866 22.7557 16.5613 23.0233 16.0699 23.214C15.5859 23.4047 15.0616 23.5 14.4969 23.5H12.4839ZM11.4609 23.5V15.767H12.9569V23.5H11.4609ZM22.2467 23.61C21.7627 23.61 21.3264 23.489 20.9377 23.247C20.5491 23.005 20.2447 22.675 20.0247 22.257C19.8047 21.839 19.6947 21.3697 19.6947 20.849C19.6947 20.321 19.8047 19.848 20.0247 19.43C20.2447 19.012 20.5491 18.682 20.9377 18.44C21.3264 18.198 21.7627 18.077 22.2467 18.077C22.6281 18.077 22.9691 18.154 23.2697 18.308C23.5704 18.462 23.8087 18.6783 23.9847 18.957C24.1681 19.2283 24.2671 19.5363 24.2817 19.881V21.795C24.2671 22.147 24.1681 22.4587 23.9847 22.73C23.8087 23.0013 23.5704 23.2177 23.2697 23.379C22.9691 23.533 22.6281 23.61 22.2467 23.61ZM22.5107 22.279C22.9141 22.279 23.2404 22.147 23.4897 21.883C23.7391 21.6117 23.8637 21.2633 23.8637 20.838C23.8637 20.5593 23.8051 20.3137 23.6877 20.101C23.5777 19.881 23.4201 19.7123 23.2147 19.595C23.0167 19.4703 22.7821 19.408 22.5107 19.408C22.2467 19.408 22.0121 19.4703 21.8067 19.595C21.6087 19.7123 21.4511 19.881 21.3337 20.101C21.2237 20.3137 21.1687 20.5593 21.1687 20.838C21.1687 21.124 21.2237 21.377 21.3337 21.597C21.4511 21.8097 21.6087 21.9783 21.8067 22.103C22.0121 22.2203 22.2467 22.279 22.5107 22.279ZM23.7867 23.5V22.07L24.0177 20.772L23.7867 19.496V18.187H25.2167V23.5H23.7867ZM28.6635 23.544L26.4415 18.187H28.0035L29.4775 22.279H28.9495L30.4785 18.187H32.0515L29.6865 23.544H28.6635ZM27.1895 25.722L28.8065 22.301L29.6865 23.544L28.7185 25.722H27.1895ZM37.063 23.5V15.767H38.537V23.5H37.063ZM35.545 17.065V15.767H38.427V17.065H35.545Z" fill="white"/>
<g filter="url(#filter0_i_160_102)">
<circle cx="17.5" cy="35" r="5.5" fill="#EDB413"/>
</g>
<circle cx="17.5" cy="35" r="5" stroke="#FDD835"/>
<g clip-path="url(#clip1_160_102)">
<path d="M17.7222 31.7933L18.4605 33.4954C18.4883 33.5594 18.5326 33.6148 18.5887 33.6557C18.6449 33.6965 18.7108 33.7214 18.7797 33.7277L20.5784 33.8907C20.7819 33.9207 20.8631 34.1729 20.7155 34.3182L19.3606 35.4686C19.2509 35.5618 19.201 35.7082 19.2312 35.8495L19.625 37.713C19.6596 37.9176 19.4473 38.0739 19.2652 37.9769L17.6953 37.0477C17.6361 37.0125 17.5687 36.994 17.5 36.994C17.4313 36.994 17.3639 37.0125 17.3047 37.0477L15.7348 37.9763C15.5532 38.0728 15.3404 37.917 15.375 37.7124L15.7688 35.849C15.7984 35.7076 15.7491 35.5612 15.6394 35.4681L14.2839 34.3187C14.1369 34.174 14.2181 33.9212 14.4211 33.8913L16.2197 33.7283C16.2886 33.722 16.3546 33.6971 16.4107 33.6562C16.4669 33.6153 16.5112 33.56 16.539 33.496L17.2773 31.7938C17.3689 31.6075 17.6311 31.6075 17.7222 31.7933Z" fill="#FDD835"/>
<path d="M17.6684 33.5974L17.5433 32.3433C17.5384 32.2734 17.5241 32.1537 17.6349 32.1537C17.7227 32.1537 17.7704 32.3383 17.7704 32.3383L18.1456 33.3452C18.2872 33.7283 18.229 33.8597 18.0924 33.9373C17.9355 34.026 17.7041 33.9567 17.6684 33.5974Z" fill="#ECC338"/>
<path d="M19.2158 35.3572L20.2921 34.5084C20.3453 34.4635 20.4413 34.392 20.3645 34.3105C20.3036 34.2461 20.139 34.3387 20.139 34.3387L19.1972 34.7108C18.9163 34.8089 18.7298 34.9542 18.7134 35.1371C18.692 35.3811 18.9086 35.569 19.2158 35.3572Z" fill="#FDD835"/>
</g>
<g style="mix-blend-mode:overlay" filter="url(#filter1_f_160_102)">
<circle cx="17.5932" cy="33.4152" r="2.98305" fill="white"/>
</g>
<path d="M27.903 39.5V31.866H28.926V39.5H27.903ZM26.341 32.79V31.866H28.816V32.79H26.341ZM33.4435 39.61C32.8715 39.61 32.3471 39.4487 31.8705 39.126C31.4011 38.8033 31.0271 38.3487 30.7485 37.762C30.4698 37.168 30.3305 36.4713 30.3305 35.672C30.3305 34.8727 30.4661 34.1797 30.7375 33.593C31.0161 33.0063 31.3901 32.5553 31.8595 32.24C32.3288 31.9173 32.8458 31.756 33.4105 31.756C33.9898 31.756 34.5141 31.9173 34.9835 32.24C35.4528 32.5553 35.8231 33.0063 36.0945 33.593C36.3731 34.1797 36.5125 34.8763 36.5125 35.683C36.5125 36.4823 36.3731 37.179 36.0945 37.773C35.8231 38.3597 35.4528 38.8143 34.9835 39.137C34.5215 39.4523 34.0081 39.61 33.4435 39.61ZM33.4215 38.631C33.8248 38.631 34.1768 38.521 34.4775 38.301C34.7855 38.0737 35.0275 37.74 35.2035 37.3C35.3795 36.86 35.4675 36.3173 35.4675 35.672C35.4675 35.0267 35.3795 34.4877 35.2035 34.055C35.0275 33.615 34.7855 33.285 34.4775 33.065C34.1695 32.8377 33.8138 32.724 33.4105 32.724C33.0145 32.724 32.6625 32.8377 32.3545 33.065C32.0465 33.285 31.8045 33.615 31.6285 34.055C31.4598 34.4877 31.3755 35.0267 31.3755 35.672C31.3755 36.3173 31.4598 36.86 31.6285 37.3C31.8045 37.74 32.0465 38.0737 32.3545 38.301C32.6625 38.521 33.0181 38.631 33.4215 38.631Z" fill="white"/>
</g>
<rect x="0.5" y="0.5" width="49" height="54" rx="10.5" stroke="white"/>
<defs>
<filter id="filter0_i_160_102" x="12" y="29.5" width="11" height="11" filterUnits="userSpaceOnUse" color-interpolation-filters="sRGB">
<feFlood flood-opacity="0" result="BackgroundImageFix"/>
<feBlend mode="normal" in="SourceGraphic" in2="BackgroundImageFix" result="shape"/>
<feColorMatrix in="SourceAlpha" type="matrix" values="0 0 0 0 0 0 0 0 0 0 0 0 0 0 0 0 0 0 127 0" result="hardAlpha"/>
<feMorphology radius="2" operator="erode" in="SourceAlpha" result="effect1_innerShadow_160_102"/>
<feOffset/>
<feGaussianBlur stdDeviation="1.5"/>
<feComposite in2="hardAlpha" operator="arithmetic" k2="-1" k3="1"/>
<feColorMatrix type="matrix" values="0 0 0 0 0.956863 0 0 0 0 0.705882 0 0 0 0 0 0 0 0 1 0"/>
<feBlend mode="normal" in2="shape" result="effect1_innerShadow_160_102"/>
</filter>
<filter id="filter1_f_160_102" x="-2.47458" y="13.3474" width="40.1356" height="40.1356" filterUnits="userSpaceOnUse" color-interpolation-filters="sRGB">
<feFlood flood-opacity="0" result="BackgroundImageFix"/>
<feBlend mode="normal" in="SourceGraphic" in2="BackgroundImageFix" result="shape"/>
<feGaussianBlur stdDeviation="8.54237" result="effect1_foregroundBlur_160_102"/>
</filter>
<clipPath id="clip0_160_102">
<rect x="1" y="1" width="48" height="53" rx="10" fill="white"/>
</clipPath>
<clipPath id="clip1_160_102">
<rect width="7.02128" height="7.09677" fill="white" transform="translate(13.9894 31.3925)"/>
</clipPath>
</defs>
</svg>
