<svg width="50" height="55" viewBox="0 0 50 55" fill="none" xmlns="http://www.w3.org/2000/svg">
<g clip-path="url(#clip0_163_104)">
<rect x="1.91306" y="1" width="48" height="53" rx="10" fill="black"/>
<path d="M12.3765 23.5V22.169H14.3455C14.8442 22.169 15.2805 22.0663 15.6545 21.861C16.0285 21.6483 16.3182 21.3513 16.5235 20.97C16.7362 20.5887 16.8425 20.1377 16.8425 19.617C16.8425 19.111 16.7362 18.671 16.5235 18.297C16.3108 17.9157 16.0175 17.6223 15.6435 17.417C15.2695 17.2043 14.8368 17.098 14.3455 17.098H12.3435V15.767H14.3675C14.9395 15.767 15.4675 15.8623 15.9515 16.053C16.4428 16.2437 16.8682 16.515 17.2275 16.867C17.5942 17.2117 17.8765 17.6187 18.0745 18.088C18.2798 18.5573 18.3825 19.0707 18.3825 19.628C18.3825 20.1853 18.2798 20.7023 18.0745 21.179C17.8765 21.6483 17.5978 22.059 17.2385 22.411C16.8792 22.7557 16.4538 23.0233 15.9625 23.214C15.4785 23.4047 14.9542 23.5 14.3895 23.5H12.3765ZM11.3535 23.5V15.767H12.8495V23.5H11.3535ZM22.1393 23.61C21.6553 23.61 21.2189 23.489 20.8303 23.247C20.4416 23.005 20.1373 22.675 19.9173 22.257C19.6973 21.839 19.5873 21.3697 19.5873 20.849C19.5873 20.321 19.6973 19.848 19.9173 19.43C20.1373 19.012 20.4416 18.682 20.8303 18.44C21.2189 18.198 21.6553 18.077 22.1393 18.077C22.5206 18.077 22.8616 18.154 23.1623 18.308C23.4629 18.462 23.7013 18.6783 23.8773 18.957C24.0606 19.2283 24.1596 19.5363 24.1743 19.881V21.795C24.1596 22.147 24.0606 22.4587 23.8773 22.73C23.7013 23.0013 23.4629 23.2177 23.1623 23.379C22.8616 23.533 22.5206 23.61 22.1393 23.61ZM22.4033 22.279C22.8066 22.279 23.1329 22.147 23.3823 21.883C23.6316 21.6117 23.7563 21.2633 23.7563 20.838C23.7563 20.5593 23.6976 20.3137 23.5803 20.101C23.4703 19.881 23.3126 19.7123 23.1073 19.595C22.9093 19.4703 22.6746 19.408 22.4033 19.408C22.1393 19.408 21.9046 19.4703 21.6993 19.595C21.5013 19.7123 21.3436 19.881 21.2263 20.101C21.1163 20.3137 21.0613 20.5593 21.0613 20.838C21.0613 21.124 21.1163 21.377 21.2263 21.597C21.3436 21.8097 21.5013 21.9783 21.6993 22.103C21.9046 22.2203 22.1393 22.279 22.4033 22.279ZM23.6793 23.5V22.07L23.9103 20.772L23.6793 19.496V18.187H25.1093V23.5H23.6793ZM28.5561 23.544L26.3341 18.187H27.8961L29.3701 22.279H28.8421L30.3711 18.187H31.9441L29.5791 23.544H28.5561ZM27.0821 25.722L28.6991 22.301L29.5791 23.544L28.6111 25.722H27.0821ZM35.4705 22.642L38.3855 19.595C38.5909 19.375 38.7559 19.1807 38.8805 19.012C39.0125 18.836 39.1079 18.671 39.1665 18.517C39.2252 18.3557 39.2545 18.1943 39.2545 18.033C39.2545 17.7103 39.1482 17.4573 38.9355 17.274C38.7302 17.0907 38.4625 16.999 38.1325 16.999C37.7952 16.999 37.4945 17.087 37.2305 17.263C36.9739 17.439 36.7319 17.7177 36.5045 18.099L35.4815 17.23C35.7895 16.7093 36.1709 16.317 36.6255 16.053C37.0875 15.7817 37.6155 15.646 38.2095 15.646C38.7155 15.646 39.1555 15.745 39.5295 15.943C39.9109 16.141 40.2042 16.416 40.4095 16.768C40.6149 17.12 40.7175 17.5307 40.7175 18C40.7175 18.3153 40.6772 18.6013 40.5965 18.858C40.5232 19.1147 40.3949 19.3713 40.2115 19.628C40.0355 19.8773 39.7899 20.1597 39.4745 20.475L37.3515 22.642H35.4705ZM35.4705 23.5V22.642L36.7465 22.202H40.8825V23.5H35.4705Z" fill="white"/>
<g filter="url(#filter0_i_163_104)">
<circle cx="17.4131" cy="35" r="5.5" fill="#EDB413"/>
</g>
<circle cx="17.4131" cy="35" r="5" stroke="#FDD835"/>
<g clip-path="url(#clip1_163_104)">
<path d="M17.6352 31.7933L18.3735 33.4954C18.4013 33.5594 18.4456 33.6148 18.5018 33.6557C18.5579 33.6965 18.6239 33.7214 18.6928 33.7277L20.4914 33.8907C20.695 33.9207 20.7761 34.1729 20.6286 34.3182L19.2737 35.4686C19.164 35.5618 19.1141 35.7082 19.1442 35.8495L19.5381 37.713C19.5726 37.9176 19.3604 38.0739 19.1782 37.9769L17.6083 37.0477C17.5491 37.0125 17.4817 36.994 17.4131 36.994C17.3444 36.994 17.277 37.0125 17.2178 37.0477L15.6479 37.9763C15.4663 38.0728 15.2535 37.917 15.288 37.7124L15.6819 35.849C15.7115 35.7076 15.6621 35.5612 15.5524 35.4681L14.197 34.3187C14.05 34.174 14.1312 33.9212 14.3341 33.8913L16.1328 33.7283C16.2017 33.722 16.2676 33.6971 16.3238 33.6562C16.38 33.6153 16.4242 33.56 16.452 33.496L17.1903 31.7938C17.282 31.6075 17.5442 31.6075 17.6352 31.7933Z" fill="#FDD835"/>
<path d="M17.5814 33.5974L17.4564 32.3433C17.4514 32.2734 17.4372 32.1537 17.548 32.1537C17.6357 32.1537 17.6835 32.3383 17.6835 32.3383L18.0587 33.3452C18.2002 33.7283 18.142 33.8597 18.0055 33.9373C17.8486 34.026 17.6171 33.9567 17.5814 33.5974Z" fill="#ECC338"/>
<path d="M19.1289 35.3572L20.2051 34.5084C20.2583 34.4635 20.3543 34.392 20.2775 34.3105C20.2166 34.2461 20.052 34.3387 20.052 34.3387L19.1102 34.7108C18.8294 34.8089 18.6429 34.9542 18.6264 35.1371C18.605 35.3811 18.8217 35.569 19.1289 35.3572Z" fill="#FDD835"/>
</g>
<g style="mix-blend-mode:overlay" filter="url(#filter1_f_163_104)">
<circle cx="17.5063" cy="33.4152" r="2.98305" fill="white"/>
</g>
<path d="M26.2761 38.873L29.0921 35.903C29.3781 35.6097 29.6017 35.3567 29.7631 35.144C29.9244 34.924 30.0381 34.7223 30.1041 34.539C30.1774 34.3557 30.2141 34.165 30.2141 33.967C30.2141 33.5783 30.0894 33.274 29.8401 33.054C29.5907 32.834 29.2681 32.724 28.8721 32.724C28.4834 32.724 28.1424 32.8193 27.8491 33.01C27.5557 33.1933 27.2954 33.4793 27.0681 33.868L26.3421 33.263C26.6427 32.7643 27.0057 32.3903 27.4311 32.141C27.8564 31.8843 28.3477 31.756 28.9051 31.756C29.3744 31.756 29.7814 31.8477 30.1261 32.031C30.4781 32.2143 30.7494 32.471 30.9401 32.801C31.1307 33.131 31.2261 33.516 31.2261 33.956C31.2261 34.2713 31.1857 34.5537 31.1051 34.803C31.0317 35.0523 30.8961 35.309 30.6981 35.573C30.5074 35.8297 30.2397 36.1377 29.8951 36.497L27.6181 38.84L26.2761 38.873ZM26.2761 39.5V38.873L27.1561 38.576H31.4021V39.5H26.2761ZM35.4942 39.61C34.9222 39.61 34.3979 39.4487 33.9212 39.126C33.4519 38.8033 33.0779 38.3487 32.7992 37.762C32.5206 37.168 32.3812 36.4713 32.3812 35.672C32.3812 34.8727 32.5169 34.1797 32.7882 33.593C33.0669 33.0063 33.4409 32.5553 33.9102 32.24C34.3796 31.9173 34.8966 31.756 35.4612 31.756C36.0406 31.756 36.5649 31.9173 37.0342 32.24C37.5036 32.5553 37.8739 33.0063 38.1452 33.593C38.4239 34.1797 38.5632 34.8763 38.5632 35.683C38.5632 36.4823 38.4239 37.179 38.1452 37.773C37.8739 38.3597 37.5036 38.8143 37.0342 39.137C36.5722 39.4523 36.0589 39.61 35.4942 39.61ZM35.4722 38.631C35.8756 38.631 36.2276 38.521 36.5282 38.301C36.8362 38.0737 37.0782 37.74 37.2542 37.3C37.4302 36.86 37.5182 36.3173 37.5182 35.672C37.5182 35.0267 37.4302 34.4877 37.2542 34.055C37.0782 33.615 36.8362 33.285 36.5282 33.065C36.2202 32.8377 35.8646 32.724 35.4612 32.724C35.0652 32.724 34.7132 32.8377 34.4052 33.065C34.0972 33.285 33.8552 33.615 33.6792 34.055C33.5106 34.4877 33.4262 35.0267 33.4262 35.672C33.4262 36.3173 33.5106 36.86 33.6792 37.3C33.8552 37.74 34.0972 38.0737 34.4052 38.301C34.7132 38.521 35.0689 38.631 35.4722 38.631Z" fill="white"/>
</g>
<rect x="1.41306" y="0.5" width="49" height="54" rx="10.5" stroke="white"/>
<defs>
<filter id="filter0_i_163_104" x="11.9131" y="29.5" width="11" height="11" filterUnits="userSpaceOnUse" color-interpolation-filters="sRGB">
<feFlood flood-opacity="0" result="BackgroundImageFix"/>
<feBlend mode="normal" in="SourceGraphic" in2="BackgroundImageFix" result="shape"/>
<feColorMatrix in="SourceAlpha" type="matrix" values="0 0 0 0 0 0 0 0 0 0 0 0 0 0 0 0 0 0 127 0" result="hardAlpha"/>
<feMorphology radius="2" operator="erode" in="SourceAlpha" result="effect1_innerShadow_163_104"/>
<feOffset/>
<feGaussianBlur stdDeviation="1.5"/>
<feComposite in2="hardAlpha" operator="arithmetic" k2="-1" k3="1"/>
<feColorMatrix type="matrix" values="0 0 0 0 0.956863 0 0 0 0 0.705882 0 0 0 0 0 0 0 0 1 0"/>
<feBlend mode="normal" in2="shape" result="effect1_innerShadow_163_104"/>
</filter>
<filter id="filter1_f_163_104" x="-2.56152" y="13.3474" width="40.1356" height="40.1356" filterUnits="userSpaceOnUse" color-interpolation-filters="sRGB">
<feFlood flood-opacity="0" result="BackgroundImageFix"/>
<feBlend mode="normal" in="SourceGraphic" in2="BackgroundImageFix" result="shape"/>
<feGaussianBlur stdDeviation="8.54237" result="effect1_foregroundBlur_163_104"/>
</filter>
<clipPath id="clip0_163_104">
<rect x="1.91306" y="1" width="48" height="53" rx="10" fill="white"/>
</clipPath>
<clipPath id="clip1_163_104">
<rect width="7.02128" height="7.09677" fill="white" transform="translate(13.9024 31.3925)"/>
</clipPath>
</defs>
</svg>
