<svg width="48" height="55" viewBox="0 0 48 55" fill="none" xmlns="http://www.w3.org/2000/svg">
<g clip-path="url(#clip0_160_102)">
<rect x="1" y="1" width="48.5217" height="55" rx="10" fill="black"/>
<path d="M12.7448 24.5V23.169H14.7138C15.2125 23.169 15.6488 23.0663 16.0228 22.861C16.3968 22.6483 16.6865 22.3513 16.8918 21.97C17.1045 21.5887 17.2108 21.1377 17.2108 20.617C17.2108 20.111 17.1045 19.671 16.8918 19.297C16.6791 18.9157 16.3858 18.6223 16.0118 18.417C15.6378 18.2043 15.2051 18.098 14.7138 18.098H12.7118V16.767H14.7358C15.3078 16.767 15.8358 16.8623 16.3198 17.053C16.8111 17.2437 17.2365 17.515 17.5958 17.867C17.9625 18.2117 18.2448 18.6187 18.4428 19.088C18.6481 19.5573 18.7508 20.0707 18.7508 20.628C18.7508 21.1853 18.6481 21.7023 18.4428 22.179C18.2448 22.6483 17.9661 23.059 17.6068 23.411C17.2475 23.7557 16.8221 24.0233 16.3308 24.214C15.8468 24.4047 15.3225 24.5 14.7578 24.5H12.7448ZM11.7218 24.5V16.767H13.2178V24.5H11.7218ZM22.5076 24.61C22.0236 24.61 21.5873 24.489 21.1986 24.247C20.8099 24.005 20.5056 23.675 20.2856 23.257C20.0656 22.839 19.9556 22.3697 19.9556 21.849C19.9556 21.321 20.0656 20.848 20.2856 20.43C20.5056 20.012 20.8099 19.682 21.1986 19.44C21.5873 19.198 22.0236 19.077 22.5076 19.077C22.8889 19.077 23.2299 19.154 23.5306 19.308C23.8313 19.462 24.0696 19.6783 24.2456 19.957C24.4289 20.2283 24.5279 20.5363 24.5426 20.881V22.795C24.5279 23.147 24.4289 23.4587 24.2456 23.73C24.0696 24.0013 23.8313 24.2177 23.5306 24.379C23.2299 24.533 22.8889 24.61 22.5076 24.61ZM22.7716 23.279C23.1749 23.279 23.5013 23.147 23.7506 22.883C23.9999 22.6117 24.1246 22.2633 24.1246 21.838C24.1246 21.5593 24.0659 21.3137 23.9486 21.101C23.8386 20.881 23.6809 20.7123 23.4756 20.595C23.2776 20.4703 23.0429 20.408 22.7716 20.408C22.5076 20.408 22.2729 20.4703 22.0676 20.595C21.8696 20.7123 21.7119 20.881 21.5946 21.101C21.4846 21.3137 21.4296 21.5593 21.4296 21.838C21.4296 22.124 21.4846 22.377 21.5946 22.597C21.7119 22.8097 21.8696 22.9783 22.0676 23.103C22.2729 23.2203 22.5076 23.279 22.7716 23.279ZM24.0476 24.5V23.07L24.2786 21.772L24.0476 20.496V19.187H25.4776V24.5H24.0476ZM28.9244 24.544L26.7024 19.187H28.2644L29.7384 23.279H29.2104L30.7394 19.187H32.3124L29.9474 24.544H28.9244ZM27.4504 26.722L29.0674 23.301L29.9474 24.544L28.9794 26.722H27.4504ZM37.3239 24.5V16.767H38.7979V24.5H37.3239ZM35.8059 18.065V16.767H38.6879V18.065H35.8059Z" fill="white"/>
<g filter="url(#filter0_i_160_102)">
<circle cx="17.7609" cy="36" r="5.5" fill="#EDB413"/>
</g>
<circle cx="17.7609" cy="36" r="5" stroke="#FDD835"/>
<g clip-path="url(#clip1_160_102)">
<path d="M17.983 32.7933L18.7213 34.4954C18.7491 34.5594 18.7934 34.6148 18.8496 34.6557C18.9057 34.6965 18.9717 34.7214 19.0406 34.7277L20.8393 34.8907C21.0428 34.9207 21.1239 35.1729 20.9764 35.3182L19.6215 36.4686C19.5118 36.5618 19.4619 36.7082 19.492 36.8495L19.8859 38.713C19.9205 38.9176 19.7082 39.0739 19.5261 38.9769L17.9561 38.0477C17.8969 38.0125 17.8295 37.994 17.7609 37.994C17.6922 37.994 17.6248 38.0125 17.5656 38.0477L15.9957 38.9763C15.8141 39.0728 15.6013 38.917 15.6358 38.7124L16.0297 36.849C16.0593 36.7076 16.0099 36.5612 15.9002 36.4681L14.5448 35.3187C14.3978 35.174 14.479 34.9212 14.6819 34.8913L16.4806 34.7283C16.5495 34.722 16.6155 34.6971 16.6716 34.6562C16.7278 34.6153 16.772 34.56 16.7998 34.496L17.5382 32.7938C17.6298 32.6075 17.892 32.6075 17.983 32.7933Z" fill="#FDD835"/>
<path d="M17.9293 34.5974L17.8042 33.3433C17.7993 33.2734 17.785 33.1537 17.8958 33.1537C17.9836 33.1537 18.0313 33.3383 18.0313 33.3383L18.4065 34.3452C18.548 34.7283 18.4899 34.8597 18.3533 34.9373C18.1964 35.026 17.9649 34.9567 17.9293 34.5974Z" fill="#ECC338"/>
<path d="M19.4767 36.3572L20.5529 35.5084C20.6061 35.4635 20.7021 35.392 20.6253 35.3105C20.5644 35.2461 20.3999 35.3387 20.3999 35.3387L19.458 35.7108C19.1772 35.8089 18.9907 35.9542 18.9742 36.1371C18.9528 36.3811 19.1695 36.569 19.4767 36.3572Z" fill="#FDD835"/>
</g>
<g style="mix-blend-mode:overlay" filter="url(#filter1_f_160_102)">
<circle cx="17.8541" cy="34.4152" r="2.98305" fill="white"/>
</g>
<path d="M28.1639 40.5V32.866H29.1869V40.5H28.1639ZM26.6019 33.79V32.866H29.0769V33.79H26.6019ZM33.7043 40.61C33.1323 40.61 32.608 40.4487 32.1313 40.126C31.662 39.8033 31.288 39.3487 31.0093 38.762C30.7307 38.168 30.5913 37.4713 30.5913 36.672C30.5913 35.8727 30.727 35.1797 30.9983 34.593C31.277 34.0063 31.651 33.5553 32.1203 33.24C32.5897 32.9173 33.1067 32.756 33.6713 32.756C34.2507 32.756 34.775 32.9173 35.2443 33.24C35.7137 33.5553 36.084 34.0063 36.3553 34.593C36.634 35.1797 36.7733 35.8763 36.7733 36.683C36.7733 37.4823 36.634 38.179 36.3553 38.773C36.084 39.3597 35.7137 39.8143 35.2443 40.137C34.7823 40.4523 34.269 40.61 33.7043 40.61ZM33.6823 39.631C34.0857 39.631 34.4377 39.521 34.7383 39.301C35.0463 39.0737 35.2883 38.74 35.4643 38.3C35.6403 37.86 35.7283 37.3173 35.7283 36.672C35.7283 36.0267 35.6403 35.4877 35.4643 35.055C35.2883 34.615 35.0463 34.285 34.7383 34.065C34.4303 33.8377 34.0747 33.724 33.6713 33.724C33.2753 33.724 32.9233 33.8377 32.6153 34.065C32.3073 34.285 32.0653 34.615 31.8893 35.055C31.7207 35.4877 31.6363 36.0267 31.6363 36.672C31.6363 37.3173 31.7207 37.86 31.8893 38.3C32.0653 38.74 32.3073 39.0737 32.6153 39.301C32.9233 39.521 33.279 39.631 33.6823 39.631Z" fill="white"/>
</g>
<rect x="0.5" y="0.5" width="49.5217" height="56" rx="10.5" stroke="white"/>
<defs>
<filter id="filter0_i_160_102" x="12.2609" y="30.5" width="11" height="11" filterUnits="userSpaceOnUse" color-interpolation-filters="sRGB">
<feFlood flood-opacity="0" result="BackgroundImageFix"/>
<feBlend mode="normal" in="SourceGraphic" in2="BackgroundImageFix" result="shape"/>
<feColorMatrix in="SourceAlpha" type="matrix" values="0 0 0 0 0 0 0 0 0 0 0 0 0 0 0 0 0 0 127 0" result="hardAlpha"/>
<feMorphology radius="2" operator="erode" in="SourceAlpha" result="effect1_innerShadow_160_102"/>
<feOffset/>
<feGaussianBlur stdDeviation="1.5"/>
<feComposite in2="hardAlpha" operator="arithmetic" k2="-1" k3="1"/>
<feColorMatrix type="matrix" values="0 0 0 0 0.956863 0 0 0 0 0.705882 0 0 0 0 0 0 0 0 1 0"/>
<feBlend mode="normal" in2="shape" result="effect1_innerShadow_160_102"/>
</filter>
<filter id="filter1_f_160_102" x="-2.21371" y="14.3474" width="40.1356" height="40.1356" filterUnits="userSpaceOnUse" color-interpolation-filters="sRGB">
<feFlood flood-opacity="0" result="BackgroundImageFix"/>
<feBlend mode="normal" in="SourceGraphic" in2="BackgroundImageFix" result="shape"/>
<feGaussianBlur stdDeviation="8.54237" result="effect1_foregroundBlur_160_102"/>
</filter>
<clipPath id="clip0_160_102">
<rect x="1" y="1" width="48.5217" height="55" rx="10" fill="white"/>
</clipPath>
<clipPath id="clip1_160_102">
<rect width="7.02128" height="7.09677" fill="white" transform="translate(14.2502 32.3925)"/>
</clipPath>
</defs>
</svg>
