<svg width="48" height="55" viewBox="0 0 48 55" fill="none" xmlns="http://www.w3.org/2000/svg">
<g clip-path="url(#clip0_163_104)">
<rect x="1.91306" y="1" width="48.5217" height="55" rx="10" fill="black"/>
<path d="M12.6374 24.5V23.169H14.6064C15.105 23.169 15.5414 23.0663 15.9154 22.861C16.2894 22.6483 16.579 22.3513 16.7844 21.97C16.997 21.5887 17.1034 21.1377 17.1034 20.617C17.1034 20.111 16.997 19.671 16.7844 19.297C16.5717 18.9157 16.2784 18.6223 15.9044 18.417C15.5304 18.2043 15.0977 18.098 14.6064 18.098H12.6044V16.767H14.6284C15.2004 16.767 15.7284 16.8623 16.2124 17.053C16.7037 17.2437 17.129 17.515 17.4884 17.867C17.855 18.2117 18.1374 18.6187 18.3354 19.088C18.5407 19.5573 18.6434 20.0707 18.6434 20.628C18.6434 21.1853 18.5407 21.7023 18.3354 22.179C18.1374 22.6483 17.8587 23.059 17.4994 23.411C17.14 23.7557 16.7147 24.0233 16.2234 24.214C15.7394 24.4047 15.215 24.5 14.6504 24.5H12.6374ZM11.6144 24.5V16.767H13.1104V24.5H11.6144ZM22.4001 24.61C21.9161 24.61 21.4798 24.489 21.0911 24.247C20.7025 24.005 20.3981 23.675 20.1781 23.257C19.9581 22.839 19.8481 22.3697 19.8481 21.849C19.8481 21.321 19.9581 20.848 20.1781 20.43C20.3981 20.012 20.7025 19.682 21.0911 19.44C21.4798 19.198 21.9161 19.077 22.4001 19.077C22.7815 19.077 23.1225 19.154 23.4231 19.308C23.7238 19.462 23.9621 19.6783 24.1381 19.957C24.3215 20.2283 24.4205 20.5363 24.4351 20.881V22.795C24.4205 23.147 24.3215 23.4587 24.1381 23.73C23.9621 24.0013 23.7238 24.2177 23.4231 24.379C23.1225 24.533 22.7815 24.61 22.4001 24.61ZM22.6641 23.279C23.0675 23.279 23.3938 23.147 23.6431 22.883C23.8925 22.6117 24.0171 22.2633 24.0171 21.838C24.0171 21.5593 23.9585 21.3137 23.8411 21.101C23.7311 20.881 23.5735 20.7123 23.3681 20.595C23.1701 20.4703 22.9355 20.408 22.6641 20.408C22.4001 20.408 22.1655 20.4703 21.9601 20.595C21.7621 20.7123 21.6045 20.881 21.4871 21.101C21.3771 21.3137 21.3221 21.5593 21.3221 21.838C21.3221 22.124 21.3771 22.377 21.4871 22.597C21.6045 22.8097 21.7621 22.9783 21.9601 23.103C22.1655 23.2203 22.4001 23.279 22.6641 23.279ZM23.9401 24.5V23.07L24.1711 21.772L23.9401 20.496V19.187H25.3701V24.5H23.9401ZM28.8169 24.544L26.5949 19.187H28.1569L29.6309 23.279H29.1029L30.6319 19.187H32.2049L29.8399 24.544H28.8169ZM27.3429 26.722L28.9599 23.301L29.8399 24.544L28.8719 26.722H27.3429ZM35.7314 23.642L38.6464 20.595C38.8517 20.375 39.0167 20.1807 39.1414 20.012C39.2734 19.836 39.3687 19.671 39.4274 19.517C39.4861 19.3557 39.5154 19.1943 39.5154 19.033C39.5154 18.7103 39.4091 18.4573 39.1964 18.274C38.9911 18.0907 38.7234 17.999 38.3934 17.999C38.0561 17.999 37.7554 18.087 37.4914 18.263C37.2347 18.439 36.9927 18.7177 36.7654 19.099L35.7424 18.23C36.0504 17.7093 36.4317 17.317 36.8864 17.053C37.3484 16.7817 37.8764 16.646 38.4704 16.646C38.9764 16.646 39.4164 16.745 39.7904 16.943C40.1717 17.141 40.4651 17.416 40.6704 17.768C40.8757 18.12 40.9784 18.5307 40.9784 19C40.9784 19.3153 40.9381 19.6013 40.8574 19.858C40.7841 20.1147 40.6557 20.3713 40.4724 20.628C40.2964 20.8773 40.0507 21.1597 39.7354 21.475L37.6124 23.642H35.7314ZM35.7314 24.5V23.642L37.0074 23.202H41.1434V24.5H35.7314Z" fill="white"/>
<g filter="url(#filter0_i_163_104)">
<circle cx="17.6739" cy="36" r="5.5" fill="#EDB413"/>
</g>
<circle cx="17.6739" cy="36" r="5" stroke="#FDD835"/>
<g clip-path="url(#clip1_163_104)">
<path d="M17.8961 32.7933L18.6344 34.4954C18.6622 34.5594 18.7065 34.6148 18.7626 34.6557C18.8188 34.6965 18.8847 34.7214 18.9537 34.7277L20.7523 34.8907C20.9558 34.9207 21.037 35.1729 20.8894 35.3182L19.5346 36.4686C19.4248 36.5618 19.3749 36.7082 19.4051 36.8495L19.7989 38.713C19.8335 38.9176 19.6212 39.0739 19.4391 38.9769L17.8692 38.0477C17.81 38.0125 17.7426 37.994 17.6739 37.994C17.6053 37.994 17.5378 38.0125 17.4786 38.0477L15.9087 38.9763C15.7272 39.0728 15.5143 38.917 15.5489 38.7124L15.9427 36.849C15.9724 36.7076 15.923 36.5612 15.8133 36.4681L14.4578 35.3187C14.3108 35.174 14.392 34.9212 14.595 34.8913L16.3936 34.7283C16.4625 34.722 16.5285 34.6971 16.5847 34.6562C16.6408 34.6153 16.6851 34.56 16.7129 34.496L17.4512 32.7938C17.5428 32.6075 17.805 32.6075 17.8961 32.7933Z" fill="#FDD835"/>
<path d="M17.8423 34.5974L17.7172 33.3433C17.7123 33.2734 17.698 33.1537 17.8088 33.1537C17.8966 33.1537 17.9443 33.3383 17.9443 33.3383L18.3195 34.3452C18.461 34.7283 18.4029 34.8597 18.2663 34.9373C18.1094 35.026 17.878 34.9567 17.8423 34.5974Z" fill="#ECC338"/>
<path d="M19.3897 36.3572L20.4659 35.5084C20.5192 35.4635 20.6152 35.392 20.5384 35.3105C20.4775 35.2461 20.3129 35.3387 20.3129 35.3387L19.3711 35.7108C19.0902 35.8089 18.9037 35.9542 18.8873 36.1371C18.8659 36.3811 19.0825 36.569 19.3897 36.3572Z" fill="#FDD835"/>
</g>
<g style="mix-blend-mode:overlay" filter="url(#filter1_f_163_104)">
<circle cx="17.7671" cy="34.4152" r="2.98305" fill="white"/>
</g>
<path d="M26.5369 39.873L29.3529 36.903C29.6389 36.6097 29.8626 36.3567 30.0239 36.144C30.1853 35.924 30.2989 35.7223 30.3649 35.539C30.4383 35.3557 30.4749 35.165 30.4749 34.967C30.4749 34.5783 30.3503 34.274 30.1009 34.054C29.8516 33.834 29.5289 33.724 29.1329 33.724C28.7443 33.724 28.4033 33.8193 28.1099 34.01C27.8166 34.1933 27.5563 34.4793 27.3289 34.868L26.6029 34.263C26.9036 33.7643 27.2666 33.3903 27.6919 33.141C28.1173 32.8843 28.6086 32.756 29.1659 32.756C29.6353 32.756 30.0423 32.8477 30.3869 33.031C30.7389 33.2143 31.0103 33.471 31.2009 33.801C31.3916 34.131 31.4869 34.516 31.4869 34.956C31.4869 35.2713 31.4466 35.5537 31.3659 35.803C31.2926 36.0523 31.1569 36.309 30.9589 36.573C30.7683 36.8297 30.5006 37.1377 30.1559 37.497L27.8789 39.84L26.5369 39.873ZM26.5369 40.5V39.873L27.4169 39.576H31.6629V40.5H26.5369ZM35.7551 40.61C35.1831 40.61 34.6588 40.4487 34.1821 40.126C33.7128 39.8033 33.3388 39.3487 33.0601 38.762C32.7814 38.168 32.6421 37.4713 32.6421 36.672C32.6421 35.8727 32.7778 35.1797 33.0491 34.593C33.3278 34.0063 33.7018 33.5553 34.1711 33.24C34.6404 32.9173 35.1574 32.756 35.7221 32.756C36.3014 32.756 36.8258 32.9173 37.2951 33.24C37.7644 33.5553 38.1348 34.0063 38.4061 34.593C38.6848 35.1797 38.8241 35.8763 38.8241 36.683C38.8241 37.4823 38.6848 38.179 38.4061 38.773C38.1348 39.3597 37.7644 39.8143 37.2951 40.137C36.8331 40.4523 36.3198 40.61 35.7551 40.61ZM35.7331 39.631C36.1364 39.631 36.4884 39.521 36.7891 39.301C37.0971 39.0737 37.3391 38.74 37.5151 38.3C37.6911 37.86 37.7791 37.3173 37.7791 36.672C37.7791 36.0267 37.6911 35.4877 37.5151 35.055C37.3391 34.615 37.0971 34.285 36.7891 34.065C36.4811 33.8377 36.1254 33.724 35.7221 33.724C35.3261 33.724 34.9741 33.8377 34.6661 34.065C34.3581 34.285 34.1161 34.615 33.9401 35.055C33.7714 35.4877 33.6871 36.0267 33.6871 36.672C33.6871 37.3173 33.7714 37.86 33.9401 38.3C34.1161 38.74 34.3581 39.0737 34.6661 39.301C34.9741 39.521 35.3298 39.631 35.7331 39.631Z" fill="white"/>
</g>
<rect x="1.41306" y="0.5" width="49.5217" height="56" rx="10.5" stroke="white"/>
<defs>
<filter id="filter0_i_163_104" x="12.1739" y="30.5" width="11" height="11" filterUnits="userSpaceOnUse" color-interpolation-filters="sRGB">
<feFlood flood-opacity="0" result="BackgroundImageFix"/>
<feBlend mode="normal" in="SourceGraphic" in2="BackgroundImageFix" result="shape"/>
<feColorMatrix in="SourceAlpha" type="matrix" values="0 0 0 0 0 0 0 0 0 0 0 0 0 0 0 0 0 0 127 0" result="hardAlpha"/>
<feMorphology radius="2" operator="erode" in="SourceAlpha" result="effect1_innerShadow_163_104"/>
<feOffset/>
<feGaussianBlur stdDeviation="1.5"/>
<feComposite in2="hardAlpha" operator="arithmetic" k2="-1" k3="1"/>
<feColorMatrix type="matrix" values="0 0 0 0 0.956863 0 0 0 0 0.705882 0 0 0 0 0 0 0 0 1 0"/>
<feBlend mode="normal" in2="shape" result="effect1_innerShadow_163_104"/>
</filter>
<filter id="filter1_f_163_104" x="-2.30066" y="14.3474" width="40.1356" height="40.1356" filterUnits="userSpaceOnUse" color-interpolation-filters="sRGB">
<feFlood flood-opacity="0" result="BackgroundImageFix"/>
<feBlend mode="normal" in="SourceGraphic" in2="BackgroundImageFix" result="shape"/>
<feGaussianBlur stdDeviation="8.54237" result="effect1_foregroundBlur_163_104"/>
</filter>
<clipPath id="clip0_163_104">
<rect x="1.91306" y="1" width="48.5217" height="55" rx="10" fill="white"/>
</clipPath>
<clipPath id="clip1_163_104">
<rect width="7.02128" height="7.09677" fill="white" transform="translate(14.1633 32.3925)"/>
</clipPath>
</defs>
</svg>
