<svg width="50" height="55" viewBox="0 0 50 55" fill="none" xmlns="http://www.w3.org/2000/svg">
<g clip-path="url(#clip0_163_106)">
<rect x="1.82608" y="1" width="48" height="53" rx="10" fill="black"/>
<path d="M12.3056 23.5V22.169H14.2746C14.7733 22.169 15.2096 22.0663 15.5836 21.861C15.9576 21.6483 16.2473 21.3513 16.4526 20.97C16.6653 20.5887 16.7716 20.1377 16.7716 19.617C16.7716 19.111 16.6653 18.671 16.4526 18.297C16.24 17.9157 15.9466 17.6223 15.5726 17.417C15.1986 17.2043 14.766 17.098 14.2746 17.098H12.2726V15.767H14.2966C14.8686 15.767 15.3966 15.8623 15.8806 16.053C16.372 16.2437 16.7973 16.515 17.1566 16.867C17.5233 17.2117 17.8056 17.6187 18.0036 18.088C18.209 18.5573 18.3116 19.0707 18.3116 19.628C18.3116 20.1853 18.209 20.7023 18.0036 21.179C17.8056 21.6483 17.527 22.059 17.1676 22.411C16.8083 22.7557 16.383 23.0233 15.8916 23.214C15.4076 23.4047 14.8833 23.5 14.3186 23.5H12.3056ZM11.2826 23.5V15.767H12.7786V23.5H11.2826ZM22.0684 23.61C21.5844 23.61 21.1481 23.489 20.7594 23.247C20.3707 23.005 20.0664 22.675 19.8464 22.257C19.6264 21.839 19.5164 21.3697 19.5164 20.849C19.5164 20.321 19.6264 19.848 19.8464 19.43C20.0664 19.012 20.3707 18.682 20.7594 18.44C21.1481 18.198 21.5844 18.077 22.0684 18.077C22.4497 18.077 22.7907 18.154 23.0914 18.308C23.3921 18.462 23.6304 18.6783 23.8064 18.957C23.9897 19.2283 24.0887 19.5363 24.1034 19.881V21.795C24.0887 22.147 23.9897 22.4587 23.8064 22.73C23.6304 23.0013 23.3921 23.2177 23.0914 23.379C22.7907 23.533 22.4497 23.61 22.0684 23.61ZM22.3324 22.279C22.7357 22.279 23.0621 22.147 23.3114 21.883C23.5607 21.6117 23.6854 21.2633 23.6854 20.838C23.6854 20.5593 23.6267 20.3137 23.5094 20.101C23.3994 19.881 23.2417 19.7123 23.0364 19.595C22.8384 19.4703 22.6037 19.408 22.3324 19.408C22.0684 19.408 21.8337 19.4703 21.6284 19.595C21.4304 19.7123 21.2727 19.881 21.1554 20.101C21.0454 20.3137 20.9904 20.5593 20.9904 20.838C20.9904 21.124 21.0454 21.377 21.1554 21.597C21.2727 21.8097 21.4304 21.9783 21.6284 22.103C21.8337 22.2203 22.0684 22.279 22.3324 22.279ZM23.6084 23.5V22.07L23.8394 20.772L23.6084 19.496V18.187H25.0384V23.5H23.6084ZM28.4852 23.544L26.2632 18.187H27.8252L29.2992 22.279H28.7712L30.3002 18.187H31.8732L29.5082 23.544H28.4852ZM27.0112 25.722L28.6282 22.301L29.5082 23.544L28.5402 25.722H27.0112ZM37.8527 23.61C37.332 23.61 36.8553 23.5183 36.4227 23.335C35.99 23.1443 35.627 22.873 35.3337 22.521L36.3237 21.542C36.4703 21.762 36.6793 21.938 36.9507 22.07C37.222 22.202 37.5153 22.268 37.8307 22.268C38.124 22.268 38.377 22.2167 38.5897 22.114C38.8023 22.004 38.9673 21.8537 39.0847 21.663C39.2093 21.465 39.2717 21.2377 39.2717 20.981C39.2717 20.7097 39.2093 20.4787 39.0847 20.288C38.9673 20.0973 38.795 19.9507 38.5677 19.848C38.3403 19.7453 38.069 19.694 37.7537 19.694C37.6143 19.694 37.4713 19.705 37.3247 19.727C37.178 19.7417 37.0533 19.7673 36.9507 19.804L37.6107 18.968C37.794 18.9093 37.9737 18.8617 38.1497 18.825C38.333 18.781 38.5017 18.759 38.6557 18.759C39.0517 18.759 39.4073 18.8543 39.7227 19.045C40.0453 19.2283 40.2983 19.4923 40.4817 19.837C40.6723 20.1743 40.7677 20.574 40.7677 21.036C40.7677 21.5493 40.6467 22.0003 40.4047 22.389C40.1627 22.7703 39.8217 23.071 39.3817 23.291C38.949 23.5037 38.4393 23.61 37.8527 23.61ZM36.9507 19.804V18.946L38.9307 16.647L40.6467 16.625L38.6007 18.968L36.9507 19.804ZM35.7627 17.065V15.767H40.6467V16.625L39.4257 17.065H35.7627Z" fill="white"/>
<g filter="url(#filter0_i_163_106)">
<circle cx="17.3261" cy="35" r="5.5" fill="#EDB413"/>
</g>
<circle cx="17.3261" cy="35" r="5" stroke="#FDD835"/>
<g clip-path="url(#clip1_163_106)">
<path d="M17.5482 31.7933L18.2866 33.4954C18.3144 33.5594 18.3586 33.6148 18.4148 33.6557C18.4709 33.6965 18.5369 33.7214 18.6058 33.7277L20.4045 33.8907C20.608 33.9207 20.6892 34.1729 20.5416 34.3182L19.1867 35.4686C19.077 35.5618 19.0271 35.7082 19.0573 35.8495L19.4511 37.713C19.4857 37.9176 19.2734 38.0739 19.0913 37.9769L17.5214 37.0477C17.4622 37.0125 17.3947 36.994 17.3261 36.994C17.2574 36.994 17.19 37.0125 17.1308 37.0477L15.5609 37.9763C15.3793 38.0728 15.1665 37.917 15.201 37.7124L15.5949 35.849C15.6245 35.7076 15.5751 35.5612 15.4654 35.4681L14.11 34.3187C13.963 34.174 14.0442 33.9212 14.2471 33.8913L16.0458 33.7283C16.1147 33.722 16.1807 33.6971 16.2368 33.6562C16.293 33.6153 16.3373 33.56 16.365 33.496L17.1034 31.7938C17.195 31.6075 17.4572 31.6075 17.5482 31.7933Z" fill="#FDD835"/>
<path d="M17.4945 33.5974L17.3694 32.3433C17.3645 32.2734 17.3502 32.1537 17.461 32.1537C17.5488 32.1537 17.5965 32.3383 17.5965 32.3383L17.9717 33.3452C18.1132 33.7283 18.0551 33.8597 17.9185 33.9373C17.7616 34.026 17.5301 33.9567 17.4945 33.5974Z" fill="#ECC338"/>
<path d="M19.0419 35.3572L20.1181 34.5084C20.1713 34.4635 20.2673 34.392 20.1905 34.3105C20.1296 34.2461 19.9651 34.3387 19.9651 34.3387L19.0232 34.7108C18.7424 34.8089 18.5559 34.9542 18.5394 35.1371C18.518 35.3811 18.7347 35.569 19.0419 35.3572Z" fill="#FDD835"/>
</g>
<g style="mix-blend-mode:overlay" filter="url(#filter1_f_163_106)">
<circle cx="17.4193" cy="33.4152" r="2.98305" fill="white"/>
</g>
<path d="M28.5431 39.61C28.0444 39.61 27.5897 39.5183 27.1791 39.335C26.7757 39.1443 26.4347 38.8693 26.1561 38.51L26.8601 37.806C27.0287 38.0627 27.2597 38.268 27.5531 38.422C27.8464 38.5687 28.1727 38.642 28.5321 38.642C28.8694 38.642 29.1591 38.5797 29.4011 38.455C29.6504 38.323 29.8447 38.1397 29.9841 37.905C30.1307 37.6703 30.2041 37.399 30.2041 37.091C30.2041 36.7757 30.1307 36.5043 29.9841 36.277C29.8447 36.0423 29.6467 35.8627 29.3901 35.738C29.1334 35.6133 28.8291 35.551 28.4771 35.551C28.3451 35.551 28.2131 35.562 28.0811 35.584C27.9491 35.5987 27.8207 35.6243 27.6961 35.661L28.1361 35.067C28.2754 35.001 28.4257 34.9497 28.5871 34.913C28.7484 34.8763 28.9097 34.858 29.0711 34.858C29.4817 34.858 29.8484 34.9533 30.1711 35.144C30.5011 35.3347 30.7614 35.6023 30.9521 35.947C31.1501 36.2917 31.2491 36.6913 31.2491 37.146C31.2491 37.63 31.1317 38.059 30.8971 38.433C30.6697 38.7997 30.3544 39.0893 29.9511 39.302C29.5477 39.5073 29.0784 39.61 28.5431 39.61ZM27.6961 35.661V35.034L29.9291 32.493L31.1611 32.482L28.8621 35.089L27.6961 35.661ZM26.5191 32.79V31.866H31.1611V32.482L30.2591 32.79H26.5191ZM35.375 39.61C34.803 39.61 34.2787 39.4487 33.802 39.126C33.3327 38.8033 32.9587 38.3487 32.68 37.762C32.4014 37.168 32.262 36.4713 32.262 35.672C32.262 34.8727 32.3977 34.1797 32.669 33.593C32.9477 33.0063 33.3217 32.5553 33.791 32.24C34.2604 31.9173 34.7774 31.756 35.342 31.756C35.9214 31.756 36.4457 31.9173 36.915 32.24C37.3844 32.5553 37.7547 33.0063 38.026 33.593C38.3047 34.1797 38.444 34.8763 38.444 35.683C38.444 36.4823 38.3047 37.179 38.026 37.773C37.7547 38.3597 37.3844 38.8143 36.915 39.137C36.453 39.4523 35.9397 39.61 35.375 39.61ZM35.353 38.631C35.7564 38.631 36.1084 38.521 36.409 38.301C36.717 38.0737 36.959 37.74 37.135 37.3C37.311 36.86 37.399 36.3173 37.399 35.672C37.399 35.0267 37.311 34.4877 37.135 34.055C36.959 33.615 36.717 33.285 36.409 33.065C36.101 32.8377 35.7454 32.724 35.342 32.724C34.946 32.724 34.594 32.8377 34.286 33.065C33.978 33.285 33.736 33.615 33.56 34.055C33.3914 34.4877 33.307 35.0267 33.307 35.672C33.307 36.3173 33.3914 36.86 33.56 37.3C33.736 37.74 33.978 38.0737 34.286 38.301C34.594 38.521 34.9497 38.631 35.353 38.631Z" fill="white"/>
</g>
<rect x="1.32608" y="0.5" width="49" height="54" rx="10.5" stroke="white"/>
<defs>
<filter id="filter0_i_163_106" x="11.8261" y="29.5" width="11" height="11" filterUnits="userSpaceOnUse" color-interpolation-filters="sRGB">
<feFlood flood-opacity="0" result="BackgroundImageFix"/>
<feBlend mode="normal" in="SourceGraphic" in2="BackgroundImageFix" result="shape"/>
<feColorMatrix in="SourceAlpha" type="matrix" values="0 0 0 0 0 0 0 0 0 0 0 0 0 0 0 0 0 0 127 0" result="hardAlpha"/>
<feMorphology radius="2" operator="erode" in="SourceAlpha" result="effect1_innerShadow_163_106"/>
<feOffset/>
<feGaussianBlur stdDeviation="1.5"/>
<feComposite in2="hardAlpha" operator="arithmetic" k2="-1" k3="1"/>
<feColorMatrix type="matrix" values="0 0 0 0 0.956863 0 0 0 0 0.705882 0 0 0 0 0 0 0 0 1 0"/>
<feBlend mode="normal" in2="shape" result="effect1_innerShadow_163_106"/>
</filter>
<filter id="filter1_f_163_106" x="-2.6485" y="13.3474" width="40.1356" height="40.1356" filterUnits="userSpaceOnUse" color-interpolation-filters="sRGB">
<feFlood flood-opacity="0" result="BackgroundImageFix"/>
<feBlend mode="normal" in="SourceGraphic" in2="BackgroundImageFix" result="shape"/>
<feGaussianBlur stdDeviation="8.54237" result="effect1_foregroundBlur_163_106"/>
</filter>
<clipPath id="clip0_163_106">
<rect x="1.82608" y="1" width="48" height="53" rx="10" fill="white"/>
</clipPath>
<clipPath id="clip1_163_106">
<rect width="7.02128" height="7.09677" fill="white" transform="translate(13.8154 31.3925)"/>
</clipPath>
</defs>
</svg>
