<svg width="50" height="55" viewBox="0 0 50 55" fill="none" xmlns="http://www.w3.org/2000/svg">
<g clip-path="url(#clip0_163_108)">
<rect x="1.73914" y="1" width="48" height="53" rx="10" fill="black"/>
<path d="M11.9233 23.5V22.169H13.8923C14.3909 22.169 14.8273 22.0663 15.2013 21.861C15.5753 21.6483 15.8649 21.3513 16.0703 20.97C16.2829 20.5887 16.3893 20.1377 16.3893 19.617C16.3893 19.111 16.2829 18.671 16.0703 18.297C15.8576 17.9157 15.5643 17.6223 15.1903 17.417C14.8163 17.2043 14.3836 17.098 13.8923 17.098H11.8903V15.767H13.9143C14.4863 15.767 15.0143 15.8623 15.4983 16.053C15.9896 16.2437 16.4149 16.515 16.7743 16.867C17.1409 17.2117 17.4233 17.6187 17.6213 18.088C17.8266 18.5573 17.9293 19.0707 17.9293 19.628C17.9293 20.1853 17.8266 20.7023 17.6213 21.179C17.4233 21.6483 17.1446 22.059 16.7853 22.411C16.4259 22.7557 16.0006 23.0233 15.5093 23.214C15.0253 23.4047 14.5009 23.5 13.9363 23.5H11.9233ZM10.9003 23.5V15.767H12.3963V23.5H10.9003ZM21.6861 23.61C21.202 23.61 20.7657 23.489 20.377 23.247C19.9884 23.005 19.684 22.675 19.464 22.257C19.244 21.839 19.134 21.3697 19.134 20.849C19.134 20.321 19.244 19.848 19.464 19.43C19.684 19.012 19.9884 18.682 20.377 18.44C20.7657 18.198 21.202 18.077 21.6861 18.077C22.0674 18.077 22.4084 18.154 22.709 18.308C23.0097 18.462 23.2481 18.6783 23.424 18.957C23.6074 19.2283 23.7064 19.5363 23.7211 19.881V21.795C23.7064 22.147 23.6074 22.4587 23.424 22.73C23.2481 23.0013 23.0097 23.2177 22.709 23.379C22.4084 23.533 22.0674 23.61 21.6861 23.61ZM21.95 22.279C22.3534 22.279 22.6797 22.147 22.9291 21.883C23.1784 21.6117 23.303 21.2633 23.303 20.838C23.303 20.5593 23.2444 20.3137 23.1271 20.101C23.0171 19.881 22.8594 19.7123 22.6541 19.595C22.456 19.4703 22.2214 19.408 21.95 19.408C21.686 19.408 21.4514 19.4703 21.246 19.595C21.048 19.7123 20.8904 19.881 20.773 20.101C20.663 20.3137 20.608 20.5593 20.608 20.838C20.608 21.124 20.663 21.377 20.773 21.597C20.8904 21.8097 21.048 21.9783 21.246 22.103C21.4514 22.2203 21.686 22.279 21.95 22.279ZM23.226 23.5V22.07L23.4571 20.772L23.226 19.496V18.187H24.6561V23.5H23.226ZM28.1028 23.544L25.8808 18.187H27.4428L28.9168 22.279H28.3888L29.9178 18.187H31.4908L29.1258 23.544H28.1028ZM26.6288 25.722L28.2458 22.301L29.1258 23.544L28.1578 25.722H26.6288ZM35.0063 20.772L37.6463 15.767H39.2963L36.5903 20.772H35.0063ZM35.0063 21.652V20.772L35.5563 20.343H41.1003V21.652H35.0063ZM38.6583 23.5V18.572H40.1323V23.5H38.6583Z" fill="white"/>
<g filter="url(#filter0_i_163_108)">
<circle cx="17.2391" cy="35" r="5.5" fill="#EDB413"/>
</g>
<circle cx="17.2391" cy="35" r="5" stroke="#FDD835"/>
<g clip-path="url(#clip1_163_108)">
<path d="M17.4613 31.7933L18.1996 33.4954C18.2274 33.5594 18.2717 33.6148 18.3278 33.6557C18.384 33.6965 18.45 33.7214 18.5189 33.7277L20.3175 33.8907C20.521 33.9207 20.6022 34.1729 20.4547 34.3182L19.0998 35.4686C18.9901 35.5618 18.9401 35.7082 18.9703 35.8495L19.3642 37.713C19.3987 37.9176 19.1864 38.0739 19.0043 37.9769L17.4344 37.0477C17.3752 37.0125 17.3078 36.994 17.2391 36.994C17.1705 36.994 17.1031 37.0125 17.0439 37.0477L15.4739 37.9763C15.2924 38.0728 15.0795 37.917 15.1141 37.7124L15.5079 35.849C15.5376 35.7076 15.4882 35.5612 15.3785 35.4681L14.0231 34.3187C13.8761 34.174 13.9572 33.9212 14.1602 33.8913L15.9588 33.7283C16.0278 33.722 16.0937 33.6971 16.1499 33.6562C16.206 33.6153 16.2503 33.56 16.2781 33.496L17.0164 31.7938C17.108 31.6075 17.3702 31.6075 17.4613 31.7933Z" fill="#FDD835"/>
<path d="M17.4075 33.5974L17.2824 32.3433C17.2775 32.2734 17.2632 32.1537 17.3741 32.1537C17.4618 32.1537 17.5095 32.3383 17.5095 32.3383L17.8847 33.3452C18.0263 33.7283 17.9681 33.8597 17.8315 33.9373C17.6747 34.026 17.4432 33.9567 17.4075 33.5974Z" fill="#ECC338"/>
<path d="M18.9549 35.3572L20.0312 34.5084C20.0844 34.4635 20.1804 34.392 20.1036 34.3105C20.0427 34.2461 19.8781 34.3387 19.8781 34.3387L18.9363 34.7108C18.6554 34.8089 18.4689 34.9542 18.4525 35.1371C18.4311 35.3811 18.6478 35.569 18.9549 35.3572Z" fill="#FDD835"/>
</g>
<g style="mix-blend-mode:overlay" filter="url(#filter1_f_163_108)">
<circle cx="17.3324" cy="33.4152" r="2.98305" fill="white"/>
</g>
<path d="M26.1021 36.871L28.8851 31.866H30.0511L27.2131 36.871H26.1021ZM26.1021 37.509V36.871L26.5421 36.585H31.9541V37.509H26.1021ZM29.8311 39.5V34.451H30.8541V39.5H29.8311ZM35.9434 39.61C35.3714 39.61 34.847 39.4487 34.3704 39.126C33.901 38.8033 33.527 38.3487 33.2484 37.762C32.9697 37.168 32.8304 36.4713 32.8304 35.672C32.8304 34.8727 32.966 34.1797 33.2374 33.593C33.516 33.0063 33.89 32.5553 34.3594 32.24C34.8287 31.9173 35.3457 31.756 35.9104 31.756C36.4897 31.756 37.014 31.9173 37.4834 32.24C37.9527 32.5553 38.323 33.0063 38.5944 33.593C38.873 34.1797 39.0124 34.8763 39.0124 35.683C39.0124 36.4823 38.873 37.179 38.5944 37.773C38.323 38.3597 37.9527 38.8143 37.4834 39.137C37.0214 39.4523 36.508 39.61 35.9434 39.61ZM35.9214 38.631C36.3247 38.631 36.6767 38.521 36.9774 38.301C37.2854 38.0737 37.5274 37.74 37.7034 37.3C37.8794 36.86 37.9674 36.3173 37.9674 35.672C37.9674 35.0267 37.8794 34.4877 37.7034 34.055C37.5274 33.615 37.2854 33.285 36.9774 33.065C36.6694 32.8377 36.3137 32.724 35.9104 32.724C35.5144 32.724 35.1624 32.8377 34.8544 33.065C34.5464 33.285 34.3044 33.615 34.1284 34.055C33.9597 34.4877 33.8754 35.0267 33.8754 35.672C33.8754 36.3173 33.9597 36.86 34.1284 37.3C34.3044 37.74 34.5464 38.0737 34.8544 38.301C35.1624 38.521 35.518 38.631 35.9214 38.631Z" fill="white"/>
</g>
<rect x="1.23914" y="0.5" width="49" height="54" rx="10.5" stroke="white"/>
<defs>
<filter id="filter0_i_163_108" x="11.7391" y="29.5" width="11" height="11" filterUnits="userSpaceOnUse" color-interpolation-filters="sRGB">
<feFlood flood-opacity="0" result="BackgroundImageFix"/>
<feBlend mode="normal" in="SourceGraphic" in2="BackgroundImageFix" result="shape"/>
<feColorMatrix in="SourceAlpha" type="matrix" values="0 0 0 0 0 0 0 0 0 0 0 0 0 0 0 0 0 0 127 0" result="hardAlpha"/>
<feMorphology radius="2" operator="erode" in="SourceAlpha" result="effect1_innerShadow_163_108"/>
<feOffset/>
<feGaussianBlur stdDeviation="1.5"/>
<feComposite in2="hardAlpha" operator="arithmetic" k2="-1" k3="1"/>
<feColorMatrix type="matrix" values="0 0 0 0 0.956863 0 0 0 0 0.705882 0 0 0 0 0 0 0 0 1 0"/>
<feBlend mode="normal" in2="shape" result="effect1_innerShadow_163_108"/>
</filter>
<filter id="filter1_f_163_108" x="-2.73544" y="13.3474" width="40.1356" height="40.1356" filterUnits="userSpaceOnUse" color-interpolation-filters="sRGB">
<feFlood flood-opacity="0" result="BackgroundImageFix"/>
<feBlend mode="normal" in="SourceGraphic" in2="BackgroundImageFix" result="shape"/>
<feGaussianBlur stdDeviation="8.54237" result="effect1_foregroundBlur_163_108"/>
</filter>
<clipPath id="clip0_163_108">
<rect x="1.73914" y="1" width="48" height="53" rx="10" fill="white"/>
</clipPath>
<clipPath id="clip1_163_108">
<rect width="7.02128" height="7.09677" fill="white" transform="translate(13.7285 31.3925)"/>
</clipPath>
</defs>
</svg>
