<svg width="50" height="55" viewBox="0 0 50 55" fill="none" xmlns="http://www.w3.org/2000/svg">
<g clip-path="url(#clip0_163_110)">
<rect x="1.65216" y="1" width="48" height="53" rx="10" fill="black"/>
<path d="M12.1156 23.5V22.169H14.0846C14.5833 22.169 15.0196 22.0663 15.3936 21.861C15.7676 21.6483 16.0573 21.3513 16.2626 20.97C16.4753 20.5887 16.5816 20.1377 16.5816 19.617C16.5816 19.111 16.4753 18.671 16.2626 18.297C16.0499 17.9157 15.7566 17.6223 15.3826 17.417C15.0086 17.2043 14.5759 17.098 14.0846 17.098H12.0826V15.767H14.1066C14.6786 15.767 15.2066 15.8623 15.6906 16.053C16.1819 16.2437 16.6073 16.515 16.9666 16.867C17.3333 17.2117 17.6156 17.6187 17.8136 18.088C18.0189 18.5573 18.1216 19.0707 18.1216 19.628C18.1216 20.1853 18.0189 20.7023 17.8136 21.179C17.6156 21.6483 17.3369 22.059 16.9776 22.411C16.6183 22.7557 16.1929 23.0233 15.7016 23.214C15.2176 23.4047 14.6933 23.5 14.1286 23.5H12.1156ZM11.0926 23.5V15.767H12.5886V23.5H11.0926ZM21.8784 23.61C21.3944 23.61 20.958 23.489 20.5694 23.247C20.1807 23.005 19.8764 22.675 19.6564 22.257C19.4364 21.839 19.3264 21.3697 19.3264 20.849C19.3264 20.321 19.4364 19.848 19.6564 19.43C19.8764 19.012 20.1807 18.682 20.5694 18.44C20.958 18.198 21.3944 18.077 21.8784 18.077C22.2597 18.077 22.6007 18.154 22.9014 18.308C23.202 18.462 23.4404 18.6783 23.6164 18.957C23.7997 19.2283 23.8987 19.5363 23.9134 19.881V21.795C23.8987 22.147 23.7997 22.4587 23.6164 22.73C23.4404 23.0013 23.202 23.2177 22.9014 23.379C22.6007 23.533 22.2597 23.61 21.8784 23.61ZM22.1424 22.279C22.5457 22.279 22.872 22.147 23.1214 21.883C23.3707 21.6117 23.4954 21.2633 23.4954 20.838C23.4954 20.5593 23.4367 20.3137 23.3194 20.101C23.2094 19.881 23.0517 19.7123 22.8464 19.595C22.6484 19.4703 22.4137 19.408 22.1424 19.408C21.8784 19.408 21.6437 19.4703 21.4384 19.595C21.2404 19.7123 21.0827 19.881 20.9654 20.101C20.8554 20.3137 20.8004 20.5593 20.8004 20.838C20.8004 21.124 20.8554 21.377 20.9654 21.597C21.0827 21.8097 21.2404 21.9783 21.4384 22.103C21.6437 22.2203 21.8784 22.279 22.1424 22.279ZM23.4184 23.5V22.07L23.6494 20.772L23.4184 19.496V18.187H24.8484V23.5H23.4184ZM28.2952 23.544L26.0732 18.187H27.6352L29.1092 22.279H28.5812L30.1102 18.187H31.6832L29.3182 23.544H28.2952ZM26.8212 25.722L28.4382 22.301L29.3182 23.544L28.3502 25.722H26.8212ZM37.6736 23.61C37.1383 23.61 36.6506 23.5183 36.2106 23.335C35.7706 23.1443 35.404 22.873 35.1106 22.521L36.1006 21.542C36.2473 21.762 36.4563 21.938 36.7276 22.07C37.0063 22.202 37.3106 22.268 37.6406 22.268C37.9413 22.268 38.2016 22.213 38.4216 22.103C38.649 21.993 38.825 21.839 38.9496 21.641C39.0816 21.4357 39.1476 21.1973 39.1476 20.926C39.1476 20.64 39.0816 20.398 38.9496 20.2C38.825 20.002 38.6563 19.8517 38.4436 19.749C38.231 19.6463 37.9926 19.595 37.7286 19.595C37.45 19.595 37.197 19.6317 36.9696 19.705C36.7496 19.771 36.537 19.881 36.3316 20.035L36.4196 19.089C36.559 18.9423 36.7056 18.825 36.8596 18.737C37.0136 18.6417 37.186 18.572 37.3766 18.528C37.5746 18.4767 37.8056 18.451 38.0696 18.451C38.6343 18.451 39.1036 18.5683 39.4776 18.803C39.859 19.0303 40.1486 19.3383 40.3466 19.727C40.5446 20.1083 40.6436 20.53 40.6436 20.992C40.6436 21.498 40.519 21.949 40.2696 22.345C40.0203 22.741 39.672 23.0527 39.2246 23.28C38.7846 23.5 38.2676 23.61 37.6736 23.61ZM36.3316 20.035L35.6166 19.331L35.9686 15.767H37.3216L36.9256 19.386L36.3316 20.035ZM36.1996 17.065L35.9686 15.767H40.2146V17.065H36.1996Z" fill="white"/>
<g filter="url(#filter0_i_163_110)">
<circle cx="17.1522" cy="35" r="5.5" fill="#EDB413"/>
</g>
<circle cx="17.1522" cy="35" r="5" stroke="#FDD835"/>
<g clip-path="url(#clip1_163_110)">
<path d="M17.3743 31.7933L18.1126 33.4954C18.1404 33.5594 18.1847 33.6148 18.2409 33.6557C18.297 33.6965 18.363 33.7214 18.4319 33.7277L20.2305 33.8907C20.4341 33.9207 20.5152 34.1729 20.3677 34.3182L19.0128 35.4686C18.9031 35.5618 18.8532 35.7082 18.8833 35.8495L19.2772 37.713C19.3117 37.9176 19.0995 38.0739 18.9174 37.9769L17.3474 37.0477C17.2882 37.0125 17.2208 36.994 17.1522 36.994C17.0835 36.994 17.0161 37.0125 16.9569 37.0477L15.387 37.9763C15.2054 38.0728 14.9926 37.917 15.0271 37.7124L15.421 35.849C15.4506 35.7076 15.4012 35.5612 15.2915 35.4681L13.9361 34.3187C13.7891 34.174 13.8703 33.9212 14.0732 33.8913L15.8719 33.7283C15.9408 33.722 16.0068 33.6971 16.0629 33.6562C16.1191 33.6153 16.1633 33.56 16.1911 33.496L16.9295 31.7938C17.0211 31.6075 17.2833 31.6075 17.3743 31.7933Z" fill="#FDD835"/>
<path d="M17.3205 33.5974L17.1955 32.3433C17.1905 32.2734 17.1763 32.1537 17.2871 32.1537C17.3748 32.1537 17.4226 32.3383 17.4226 32.3383L17.7978 33.3452C17.9393 33.7283 17.8811 33.8597 17.7446 33.9373C17.5877 34.026 17.3562 33.9567 17.3205 33.5974Z" fill="#ECC338"/>
<path d="M18.868 35.3572L19.9442 34.5084C19.9974 34.4635 20.0934 34.392 20.0166 34.3105C19.9557 34.2461 19.7911 34.3387 19.7911 34.3387L18.8493 34.7108C18.5685 34.8089 18.382 34.9542 18.3655 35.1371C18.3441 35.3811 18.5608 35.569 18.868 35.3572Z" fill="#FDD835"/>
</g>
<g style="mix-blend-mode:overlay" filter="url(#filter1_f_163_110)">
<circle cx="17.2454" cy="33.4152" r="2.98305" fill="white"/>
</g>
<path d="M28.3802 39.61C27.8595 39.61 27.3938 39.5183 26.9832 39.335C26.5798 39.1443 26.2388 38.8693 25.9602 38.51L26.6642 37.806C26.8328 38.0627 27.0638 38.268 27.3572 38.422C27.6578 38.5687 27.9915 38.642 28.3582 38.642C28.7028 38.642 29.0035 38.576 29.2602 38.444C29.5242 38.312 29.7295 38.1287 29.8762 37.894C30.0302 37.652 30.1072 37.366 30.1072 37.036C30.1072 36.6987 30.0338 36.4127 29.8872 36.178C29.7405 35.9433 29.5425 35.7673 29.2932 35.65C29.0512 35.5253 28.7835 35.463 28.4902 35.463C28.1895 35.463 27.9145 35.4997 27.6652 35.573C27.4232 35.6463 27.1922 35.771 26.9722 35.947L26.9832 35.287C27.1078 35.133 27.2508 35.0083 27.4122 34.913C27.5735 34.8177 27.7568 34.7443 27.9622 34.693C28.1675 34.6417 28.4058 34.616 28.6772 34.616C29.2052 34.616 29.6525 34.726 30.0192 34.946C30.3858 35.166 30.6645 35.463 30.8552 35.837C31.0532 36.211 31.1522 36.629 31.1522 37.091C31.1522 37.575 31.0312 38.0077 30.7892 38.389C30.5545 38.7703 30.2282 39.071 29.8102 39.291C29.3922 39.5037 28.9155 39.61 28.3802 39.61ZM26.9722 35.947L26.4112 35.386L26.7522 31.866H27.6982L27.3132 35.485L26.9722 35.947ZM26.9612 32.79L26.7522 31.866H30.7672V32.79H26.9612ZM35.2333 39.61C34.6613 39.61 34.137 39.4487 33.6603 39.126C33.191 38.8033 32.817 38.3487 32.5383 37.762C32.2597 37.168 32.1203 36.4713 32.1203 35.672C32.1203 34.8727 32.256 34.1797 32.5273 33.593C32.806 33.0063 33.18 32.5553 33.6493 32.24C34.1187 31.9173 34.6357 31.756 35.2003 31.756C35.7797 31.756 36.304 31.9173 36.7733 32.24C37.2427 32.5553 37.613 33.0063 37.8843 33.593C38.163 34.1797 38.3023 34.8763 38.3023 35.683C38.3023 36.4823 38.163 37.179 37.8843 37.773C37.613 38.3597 37.2427 38.8143 36.7733 39.137C36.3113 39.4523 35.798 39.61 35.2333 39.61ZM35.2113 38.631C35.6147 38.631 35.9667 38.521 36.2673 38.301C36.5753 38.0737 36.8173 37.74 36.9933 37.3C37.1693 36.86 37.2573 36.3173 37.2573 35.672C37.2573 35.0267 37.1693 34.4877 36.9933 34.055C36.8173 33.615 36.5753 33.285 36.2673 33.065C35.9593 32.8377 35.6037 32.724 35.2003 32.724C34.8043 32.724 34.4523 32.8377 34.1443 33.065C33.8363 33.285 33.5943 33.615 33.4183 34.055C33.2497 34.4877 33.1653 35.0267 33.1653 35.672C33.1653 36.3173 33.2497 36.86 33.4183 37.3C33.5943 37.74 33.8363 38.0737 34.1443 38.301C34.4523 38.521 34.808 38.631 35.2113 38.631Z" fill="white"/>
</g>
<rect x="1.15216" y="0.5" width="49" height="54" rx="10.5" stroke="white"/>
<defs>
<filter id="filter0_i_163_110" x="11.6522" y="29.5" width="11" height="11" filterUnits="userSpaceOnUse" color-interpolation-filters="sRGB">
<feFlood flood-opacity="0" result="BackgroundImageFix"/>
<feBlend mode="normal" in="SourceGraphic" in2="BackgroundImageFix" result="shape"/>
<feColorMatrix in="SourceAlpha" type="matrix" values="0 0 0 0 0 0 0 0 0 0 0 0 0 0 0 0 0 0 127 0" result="hardAlpha"/>
<feMorphology radius="2" operator="erode" in="SourceAlpha" result="effect1_innerShadow_163_110"/>
<feOffset/>
<feGaussianBlur stdDeviation="1.5"/>
<feComposite in2="hardAlpha" operator="arithmetic" k2="-1" k3="1"/>
<feColorMatrix type="matrix" values="0 0 0 0 0.956863 0 0 0 0 0.705882 0 0 0 0 0 0 0 0 1 0"/>
<feBlend mode="normal" in2="shape" result="effect1_innerShadow_163_110"/>
</filter>
<filter id="filter1_f_163_110" x="-2.82242" y="13.3474" width="40.1356" height="40.1356" filterUnits="userSpaceOnUse" color-interpolation-filters="sRGB">
<feFlood flood-opacity="0" result="BackgroundImageFix"/>
<feBlend mode="normal" in="SourceGraphic" in2="BackgroundImageFix" result="shape"/>
<feGaussianBlur stdDeviation="8.54237" result="effect1_foregroundBlur_163_110"/>
</filter>
<clipPath id="clip0_163_110">
<rect x="1.65216" y="1" width="48" height="53" rx="10" fill="white"/>
</clipPath>
<clipPath id="clip1_163_110">
<rect width="7.02128" height="7.09677" fill="white" transform="translate(13.6415 31.3925)"/>
</clipPath>
</defs>
</svg>
