<svg width="50" height="55" viewBox="0 0 50 55" fill="none" xmlns="http://www.w3.org/2000/svg">
<g clip-path="url(#clip0_163_112)">
<rect x="1.56519" y="1" width="48" height="53" rx="10" fill="black"/>
<path d="M11.9427 23.5V22.169H13.9117C14.4104 22.169 14.8467 22.0663 15.2207 21.861C15.5947 21.6483 15.8844 21.3513 16.0897 20.97C16.3024 20.5887 16.4087 20.1377 16.4087 19.617C16.4087 19.111 16.3024 18.671 16.0897 18.297C15.877 17.9157 15.5837 17.6223 15.2097 17.417C14.8357 17.2043 14.403 17.098 13.9117 17.098H11.9097V15.767H13.9337C14.5057 15.767 15.0337 15.8623 15.5177 16.053C16.009 16.2437 16.4344 16.515 16.7937 16.867C17.1604 17.2117 17.4427 17.6187 17.6407 18.088C17.846 18.5573 17.9487 19.0707 17.9487 19.628C17.9487 20.1853 17.846 20.7023 17.6407 21.179C17.4427 21.6483 17.164 22.059 16.8047 22.411C16.4454 22.7557 16.02 23.0233 15.5287 23.214C15.0447 23.4047 14.5204 23.5 13.9557 23.5H11.9427ZM10.9197 23.5V15.767H12.4157V23.5H10.9197ZM21.7055 23.61C21.2215 23.61 20.7851 23.489 20.3965 23.247C20.0078 23.005 19.7035 22.675 19.4835 22.257C19.2635 21.839 19.1535 21.3697 19.1535 20.849C19.1535 20.321 19.2635 19.848 19.4835 19.43C19.7035 19.012 20.0078 18.682 20.3965 18.44C20.7851 18.198 21.2215 18.077 21.7055 18.077C22.0868 18.077 22.4278 18.154 22.7285 18.308C23.0291 18.462 23.2675 18.6783 23.4435 18.957C23.6268 19.2283 23.7258 19.5363 23.7405 19.881V21.795C23.7258 22.147 23.6268 22.4587 23.4435 22.73C23.2675 23.0013 23.0291 23.2177 22.7285 23.379C22.4278 23.533 22.0868 23.61 21.7055 23.61ZM21.9695 22.279C22.3728 22.279 22.6991 22.147 22.9485 21.883C23.1978 21.6117 23.3225 21.2633 23.3225 20.838C23.3225 20.5593 23.2638 20.3137 23.1465 20.101C23.0365 19.881 22.8788 19.7123 22.6735 19.595C22.4755 19.4703 22.2408 19.408 21.9695 19.408C21.7055 19.408 21.4708 19.4703 21.2655 19.595C21.0675 19.7123 20.9098 19.881 20.7925 20.101C20.6825 20.3137 20.6275 20.5593 20.6275 20.838C20.6275 21.124 20.6825 21.377 20.7925 21.597C20.9098 21.8097 21.0675 21.9783 21.2655 22.103C21.4708 22.2203 21.7055 22.279 21.9695 22.279ZM23.2455 23.5V22.07L23.4765 20.772L23.2455 19.496V18.187H24.6755V23.5H23.2455ZM28.1223 23.544L25.9003 18.187H27.4623L28.9363 22.279H28.4083L29.9373 18.187H31.5103L29.1453 23.544H28.1223ZM26.6483 25.722L28.2653 22.301L29.1453 23.544L28.1773 25.722H26.6483ZM37.8747 23.61C37.3467 23.61 36.8701 23.4927 36.4447 23.258C36.0267 23.016 35.6931 22.6933 35.4437 22.29C35.2017 21.8793 35.0807 21.4247 35.0807 20.926C35.0807 20.244 35.3154 19.5583 35.7847 18.869L37.9297 15.767H39.6457L37.3027 19.045L36.7527 19.199C36.8334 19.0303 36.9287 18.8837 37.0387 18.759C37.1561 18.6343 37.3064 18.539 37.4897 18.473C37.6731 18.407 37.9041 18.374 38.1827 18.374C38.6447 18.374 39.0627 18.484 39.4367 18.704C39.8107 18.9167 40.1114 19.2137 40.3387 19.595C40.5661 19.969 40.6797 20.4017 40.6797 20.893C40.6797 21.399 40.5551 21.8573 40.3057 22.268C40.0564 22.6787 39.7191 23.005 39.2937 23.247C38.8684 23.489 38.3954 23.61 37.8747 23.61ZM37.8747 22.268C38.1314 22.268 38.3587 22.2093 38.5567 22.092C38.7547 21.9673 38.9124 21.8023 39.0297 21.597C39.1471 21.3843 39.2057 21.146 39.2057 20.882C39.2057 20.618 39.1471 20.3833 39.0297 20.178C38.9124 19.9653 38.7547 19.8003 38.5567 19.683C38.3587 19.5657 38.1314 19.507 37.8747 19.507C37.6181 19.507 37.3871 19.5693 37.1817 19.694C36.9837 19.8113 36.8261 19.9727 36.7087 20.178C36.5987 20.3833 36.5437 20.618 36.5437 20.882C36.5437 21.146 36.5987 21.3843 36.7087 21.597C36.8261 21.8023 36.9837 21.9673 37.1817 22.092C37.3871 22.2093 37.6181 22.268 37.8747 22.268Z" fill="white"/>
<g filter="url(#filter0_i_163_112)">
<circle cx="17.0652" cy="35" r="5.5" fill="#EDB413"/>
</g>
<circle cx="17.0652" cy="35" r="5" stroke="#FDD835"/>
<g clip-path="url(#clip1_163_112)">
<path d="M17.2873 31.7933L18.0257 33.4954C18.0535 33.5594 18.0977 33.6148 18.1539 33.6557C18.21 33.6965 18.276 33.7214 18.3449 33.7277L20.1436 33.8907C20.3471 33.9207 20.4283 34.1729 20.2807 34.3182L18.9258 35.4686C18.8161 35.5618 18.7662 35.7082 18.7964 35.8495L19.1902 37.713C19.2248 37.9176 19.0125 38.0739 18.8304 37.9769L17.2605 37.0477C17.2013 37.0125 17.1338 36.994 17.0652 36.994C16.9965 36.994 16.9291 37.0125 16.8699 37.0477L15.3 37.9763C15.1184 38.0728 14.9056 37.917 14.9401 37.7124L15.334 35.849C15.3636 35.7076 15.3143 35.5612 15.2045 35.4681L13.8491 34.3187C13.7021 34.174 13.7833 33.9212 13.9862 33.8913L15.7849 33.7283C15.8538 33.722 15.9198 33.6971 15.9759 33.6562C16.0321 33.6153 16.0764 33.56 16.1041 33.496L16.8425 31.7938C16.9341 31.6075 17.1963 31.6075 17.2873 31.7933Z" fill="#FDD835"/>
<path d="M17.2336 33.5974L17.1085 32.3433C17.1036 32.2734 17.0893 32.1537 17.2001 32.1537C17.2879 32.1537 17.3356 32.3383 17.3356 32.3383L17.7108 33.3452C17.8523 33.7283 17.7942 33.8597 17.6576 33.9373C17.5007 34.026 17.2692 33.9567 17.2336 33.5974Z" fill="#ECC338"/>
<path d="M18.781 35.3572L19.8572 34.5084C19.9105 34.4635 20.0064 34.392 19.9297 34.3105C19.8688 34.2461 19.7042 34.3387 19.7042 34.3387L18.7624 34.7108C18.4815 34.8089 18.295 34.9542 18.2786 35.1371C18.2572 35.3811 18.4738 35.569 18.781 35.3572Z" fill="#FDD835"/>
</g>
<g style="mix-blend-mode:overlay" filter="url(#filter1_f_163_112)">
<circle cx="17.1584" cy="33.4152" r="2.98305" fill="white"/>
</g>
<path d="M28.6672 39.61C28.1612 39.61 27.7065 39.4927 27.3032 39.258C26.9072 39.0233 26.5919 38.708 26.3572 38.312C26.1225 37.916 26.0052 37.476 26.0052 36.992C26.0052 36.3173 26.2399 35.6463 26.7092 34.979L28.9532 31.866H30.1522L27.8532 35.001L27.4792 35.199C27.5672 35.045 27.6735 34.9167 27.7982 34.814C27.9229 34.704 28.0769 34.6197 28.2602 34.561C28.4435 34.5023 28.6599 34.473 28.9092 34.473C29.3565 34.473 29.7599 34.5793 30.1192 34.792C30.4859 35.0047 30.7792 35.298 30.9992 35.672C31.2265 36.0387 31.3402 36.4677 31.3402 36.959C31.3402 37.443 31.2192 37.8867 30.9772 38.29C30.7425 38.6933 30.4199 39.016 30.0092 39.258C29.6059 39.4927 29.1585 39.61 28.6672 39.61ZM28.6672 38.642C28.9752 38.642 29.2502 38.5687 29.4922 38.422C29.7415 38.268 29.9359 38.0663 30.0752 37.817C30.2219 37.5603 30.2952 37.2743 30.2952 36.959C30.2952 36.6437 30.2219 36.3613 30.0752 36.112C29.9359 35.8553 29.7415 35.6537 29.4922 35.507C29.2502 35.3603 28.9752 35.287 28.6672 35.287C28.3592 35.287 28.0805 35.3603 27.8312 35.507C27.5892 35.6537 27.3949 35.8553 27.2482 36.112C27.1089 36.3613 27.0392 36.6437 27.0392 36.959C27.0392 37.2743 27.1089 37.5603 27.2482 37.817C27.3949 38.0737 27.5892 38.2753 27.8312 38.422C28.0805 38.5687 28.3592 38.642 28.6672 38.642ZM35.4042 39.61C34.8322 39.61 34.3078 39.4487 33.8312 39.126C33.3618 38.8033 32.9878 38.3487 32.7092 37.762C32.4305 37.168 32.2912 36.4713 32.2912 35.672C32.2912 34.8727 32.4268 34.1797 32.6982 33.593C32.9768 33.0063 33.3508 32.5553 33.8202 32.24C34.2895 31.9173 34.8065 31.756 35.3712 31.756C35.9505 31.756 36.4748 31.9173 36.9442 32.24C37.4135 32.5553 37.7838 33.0063 38.0552 33.593C38.3338 34.1797 38.4732 34.8763 38.4732 35.683C38.4732 36.4823 38.3338 37.179 38.0552 37.773C37.7838 38.3597 37.4135 38.8143 36.9442 39.137C36.4822 39.4523 35.9688 39.61 35.4042 39.61ZM35.3822 38.631C35.7855 38.631 36.1375 38.521 36.4382 38.301C36.7462 38.0737 36.9882 37.74 37.1642 37.3C37.3402 36.86 37.4282 36.3173 37.4282 35.672C37.4282 35.0267 37.3402 34.4877 37.1642 34.055C36.9882 33.615 36.7462 33.285 36.4382 33.065C36.1302 32.8377 35.7745 32.724 35.3712 32.724C34.9752 32.724 34.6232 32.8377 34.3152 33.065C34.0072 33.285 33.7652 33.615 33.5892 34.055C33.4205 34.4877 33.3362 35.0267 33.3362 35.672C33.3362 36.3173 33.4205 36.86 33.5892 37.3C33.7652 37.74 34.0072 38.0737 34.3152 38.301C34.6232 38.521 34.9788 38.631 35.3822 38.631Z" fill="white"/>
</g>
<rect x="1.06519" y="0.5" width="49" height="54" rx="10.5" stroke="white"/>
<defs>
<filter id="filter0_i_163_112" x="11.5652" y="29.5" width="11" height="11" filterUnits="userSpaceOnUse" color-interpolation-filters="sRGB">
<feFlood flood-opacity="0" result="BackgroundImageFix"/>
<feBlend mode="normal" in="SourceGraphic" in2="BackgroundImageFix" result="shape"/>
<feColorMatrix in="SourceAlpha" type="matrix" values="0 0 0 0 0 0 0 0 0 0 0 0 0 0 0 0 0 0 127 0" result="hardAlpha"/>
<feMorphology radius="2" operator="erode" in="SourceAlpha" result="effect1_innerShadow_163_112"/>
<feOffset/>
<feGaussianBlur stdDeviation="1.5"/>
<feComposite in2="hardAlpha" operator="arithmetic" k2="-1" k3="1"/>
<feColorMatrix type="matrix" values="0 0 0 0 0.956863 0 0 0 0 0.705882 0 0 0 0 0 0 0 0 1 0"/>
<feBlend mode="normal" in2="shape" result="effect1_innerShadow_163_112"/>
</filter>
<filter id="filter1_f_163_112" x="-2.90941" y="13.3474" width="40.1356" height="40.1356" filterUnits="userSpaceOnUse" color-interpolation-filters="sRGB">
<feFlood flood-opacity="0" result="BackgroundImageFix"/>
<feBlend mode="normal" in="SourceGraphic" in2="BackgroundImageFix" result="shape"/>
<feGaussianBlur stdDeviation="8.54237" result="effect1_foregroundBlur_163_112"/>
</filter>
<clipPath id="clip0_163_112">
<rect x="1.56519" y="1" width="48" height="53" rx="10" fill="white"/>
</clipPath>
<clipPath id="clip1_163_112">
<rect width="7.02128" height="7.09677" fill="white" transform="translate(13.5546 31.3925)"/>
</clipPath>
</defs>
</svg>
