<svg width="50" height="55" viewBox="0 0 50 55" fill="none" xmlns="http://www.w3.org/2000/svg">
<g clip-path="url(#clip0_163_114)">
<rect x="1.47827" y="1" width="48" height="53" rx="10" fill="black"/>
<path d="M12.0921 23.5V22.169H14.0611C14.5598 22.169 14.9961 22.0663 15.3701 21.861C15.7441 21.6483 16.0338 21.3513 16.2391 20.97C16.4518 20.5887 16.5581 20.1377 16.5581 19.617C16.5581 19.111 16.4518 18.671 16.2391 18.297C16.0264 17.9157 15.7331 17.6223 15.3591 17.417C14.9851 17.2043 14.5524 17.098 14.0611 17.098H12.0591V15.767H14.0831C14.6551 15.767 15.1831 15.8623 15.6671 16.053C16.1584 16.2437 16.5838 16.515 16.9431 16.867C17.3098 17.2117 17.5921 17.6187 17.7901 18.088C17.9954 18.5573 18.0981 19.0707 18.0981 19.628C18.0981 20.1853 17.9954 20.7023 17.7901 21.179C17.5921 21.6483 17.3134 22.059 16.9541 22.411C16.5948 22.7557 16.1694 23.0233 15.6781 23.214C15.1941 23.4047 14.6698 23.5 14.1051 23.5H12.0921ZM11.0691 23.5V15.767H12.5651V23.5H11.0691ZM21.8549 23.61C21.3709 23.61 20.9345 23.489 20.5459 23.247C20.1572 23.005 19.8529 22.675 19.6329 22.257C19.4129 21.839 19.3029 21.3697 19.3029 20.849C19.3029 20.321 19.4129 19.848 19.6329 19.43C19.8529 19.012 20.1572 18.682 20.5459 18.44C20.9345 18.198 21.3709 18.077 21.8549 18.077C22.2362 18.077 22.5772 18.154 22.8779 18.308C23.1785 18.462 23.4169 18.6783 23.5929 18.957C23.7762 19.2283 23.8752 19.5363 23.8899 19.881V21.795C23.8752 22.147 23.7762 22.4587 23.5929 22.73C23.4169 23.0013 23.1785 23.2177 22.8779 23.379C22.5772 23.533 22.2362 23.61 21.8549 23.61ZM22.1189 22.279C22.5222 22.279 22.8485 22.147 23.0979 21.883C23.3472 21.6117 23.4719 21.2633 23.4719 20.838C23.4719 20.5593 23.4132 20.3137 23.2959 20.101C23.1859 19.881 23.0282 19.7123 22.8229 19.595C22.6249 19.4703 22.3902 19.408 22.1189 19.408C21.8549 19.408 21.6202 19.4703 21.4149 19.595C21.2169 19.7123 21.0592 19.881 20.9419 20.101C20.8319 20.3137 20.7769 20.5593 20.7769 20.838C20.7769 21.124 20.8319 21.377 20.9419 21.597C21.0592 21.8097 21.2169 21.9783 21.4149 22.103C21.6202 22.2203 21.8549 22.279 22.1189 22.279ZM23.3949 23.5V22.07L23.6259 20.772L23.3949 19.496V18.187H24.8249V23.5H23.3949ZM28.2717 23.544L26.0497 18.187H27.6117L29.0857 22.279H28.5577L30.0867 18.187H31.6597L29.2947 23.544H28.2717ZM26.7977 25.722L28.4147 22.301L29.2947 23.544L28.3267 25.722H26.7977ZM36.2201 23.5L38.9371 16.636H40.4111L37.7711 23.5H36.2201ZM35.1531 17.065V15.767H40.4111V16.636L39.8501 17.065H35.1531Z" fill="white"/>
<g filter="url(#filter0_i_163_114)">
<circle cx="14.4783" cy="35" r="5.5" fill="#EDB413"/>
</g>
<circle cx="14.4783" cy="35" r="5" stroke="#FDD835"/>
<g clip-path="url(#clip1_163_114)">
<path d="M14.7004 31.7933L15.4388 33.4954C15.4665 33.5594 15.5108 33.6148 15.567 33.6557C15.6231 33.6965 15.6891 33.7214 15.758 33.7277L17.5567 33.8907C17.7602 33.9207 17.8413 34.1729 17.6938 34.3182L16.3389 35.4686C16.2292 35.5618 16.1793 35.7082 16.2095 35.8495L16.6033 37.713C16.6379 37.9176 16.4256 38.0739 16.2435 37.9769L14.6735 37.0477C14.6143 37.0125 14.5469 36.994 14.4783 36.994C14.4096 36.994 14.3422 37.0125 14.283 37.0477L12.7131 37.9763C12.5315 38.0728 12.3187 37.917 12.3532 37.7124L12.7471 35.849C12.7767 35.7076 12.7273 35.5612 12.6176 35.4681L11.2622 34.3187C11.1152 34.174 11.1964 33.9212 11.3993 33.8913L13.198 33.7283C13.2669 33.722 13.3329 33.6971 13.389 33.6562C13.4452 33.6153 13.4894 33.56 13.5172 33.496L14.2556 31.7938C14.3472 31.6075 14.6094 31.6075 14.7004 31.7933Z" fill="#FDD835"/>
<path d="M14.6467 33.5974L14.5216 32.3433C14.5167 32.2734 14.5024 32.1537 14.6132 32.1537C14.701 32.1537 14.7487 32.3383 14.7487 32.3383L15.1239 33.3452C15.2654 33.7283 15.2073 33.8597 15.0707 33.9373C14.9138 34.026 14.6823 33.9567 14.6467 33.5974Z" fill="#ECC338"/>
<path d="M16.1941 35.3572L17.2703 34.5084C17.3235 34.4635 17.4195 34.392 17.3427 34.3105C17.2819 34.2461 17.1173 34.3387 17.1173 34.3387L16.1755 34.7108C15.8946 34.8089 15.7081 34.9542 15.6916 35.1371C15.6702 35.3811 15.8869 35.569 16.1941 35.3572Z" fill="#FDD835"/>
</g>
<g style="mix-blend-mode:overlay" filter="url(#filter1_f_163_114)">
<circle cx="14.5715" cy="33.4152" r="2.98305" fill="white"/>
</g>
<path d="M24.8813 39.5V31.866H25.9043V39.5H24.8813ZM23.3193 32.79V31.866H25.7943V32.79H23.3193ZM30.4217 39.61C29.8497 39.61 29.3254 39.4487 28.8487 39.126C28.3794 38.8033 28.0054 38.3487 27.7267 37.762C27.4481 37.168 27.3087 36.4713 27.3087 35.672C27.3087 34.8727 27.4444 34.1797 27.7157 33.593C27.9944 33.0063 28.3684 32.5553 28.8377 32.24C29.3071 31.9173 29.8241 31.756 30.3887 31.756C30.9681 31.756 31.4924 31.9173 31.9617 32.24C32.4311 32.5553 32.8014 33.0063 33.0727 33.593C33.3514 34.1797 33.4907 34.8763 33.4907 35.683C33.4907 36.4823 33.3514 37.179 33.0727 37.773C32.8014 38.3597 32.4311 38.8143 31.9617 39.137C31.4997 39.4523 30.9864 39.61 30.4217 39.61ZM30.3997 38.631C30.8031 38.631 31.1551 38.521 31.4557 38.301C31.7637 38.0737 32.0057 37.74 32.1817 37.3C32.3577 36.86 32.4457 36.3173 32.4457 35.672C32.4457 35.0267 32.3577 34.4877 32.1817 34.055C32.0057 33.615 31.7637 33.285 31.4557 33.065C31.1477 32.8377 30.7921 32.724 30.3887 32.724C29.9927 32.724 29.6407 32.8377 29.3327 33.065C29.0247 33.285 28.7827 33.615 28.6067 34.055C28.4381 34.4877 28.3537 35.0267 28.3537 35.672C28.3537 36.3173 28.4381 36.86 28.6067 37.3C28.7827 37.74 29.0247 38.0737 29.3327 38.301C29.6407 38.521 29.9964 38.631 30.3997 38.631ZM37.6405 39.61C37.0685 39.61 36.5442 39.4487 36.0675 39.126C35.5982 38.8033 35.2242 38.3487 34.9455 37.762C34.6668 37.168 34.5275 36.4713 34.5275 35.672C34.5275 34.8727 34.6632 34.1797 34.9345 33.593C35.2132 33.0063 35.5872 32.5553 36.0565 32.24C36.5258 31.9173 37.0428 31.756 37.6075 31.756C38.1868 31.756 38.7112 31.9173 39.1805 32.24C39.6498 32.5553 40.0202 33.0063 40.2915 33.593C40.5702 34.1797 40.7095 34.8763 40.7095 35.683C40.7095 36.4823 40.5702 37.179 40.2915 37.773C40.0202 38.3597 39.6498 38.8143 39.1805 39.137C38.7185 39.4523 38.2052 39.61 37.6405 39.61ZM37.6185 38.631C38.0218 38.631 38.3738 38.521 38.6745 38.301C38.9825 38.0737 39.2245 37.74 39.4005 37.3C39.5765 36.86 39.6645 36.3173 39.6645 35.672C39.6645 35.0267 39.5765 34.4877 39.4005 34.055C39.2245 33.615 38.9825 33.285 38.6745 33.065C38.3665 32.8377 38.0108 32.724 37.6075 32.724C37.2115 32.724 36.8595 32.8377 36.5515 33.065C36.2435 33.285 36.0015 33.615 35.8255 34.055C35.6568 34.4877 35.5725 35.0267 35.5725 35.672C35.5725 36.3173 35.6568 36.86 35.8255 37.3C36.0015 37.74 36.2435 38.0737 36.5515 38.301C36.8595 38.521 37.2152 38.631 37.6185 38.631Z" fill="white"/>
</g>
<rect x="0.978271" y="0.5" width="49" height="54" rx="10.5" stroke="white"/>
<defs>
<filter id="filter0_i_163_114" x="8.97827" y="29.5" width="11" height="11" filterUnits="userSpaceOnUse" color-interpolation-filters="sRGB">
<feFlood flood-opacity="0" result="BackgroundImageFix"/>
<feBlend mode="normal" in="SourceGraphic" in2="BackgroundImageFix" result="shape"/>
<feColorMatrix in="SourceAlpha" type="matrix" values="0 0 0 0 0 0 0 0 0 0 0 0 0 0 0 0 0 0 127 0" result="hardAlpha"/>
<feMorphology radius="2" operator="erode" in="SourceAlpha" result="effect1_innerShadow_163_114"/>
<feOffset/>
<feGaussianBlur stdDeviation="1.5"/>
<feComposite in2="hardAlpha" operator="arithmetic" k2="-1" k3="1"/>
<feColorMatrix type="matrix" values="0 0 0 0 0.956863 0 0 0 0 0.705882 0 0 0 0 0 0 0 0 1 0"/>
<feBlend mode="normal" in2="shape" result="effect1_innerShadow_163_114"/>
</filter>
<filter id="filter1_f_163_114" x="-5.49632" y="13.3474" width="40.1356" height="40.1356" filterUnits="userSpaceOnUse" color-interpolation-filters="sRGB">
<feFlood flood-opacity="0" result="BackgroundImageFix"/>
<feBlend mode="normal" in="SourceGraphic" in2="BackgroundImageFix" result="shape"/>
<feGaussianBlur stdDeviation="8.54237" result="effect1_foregroundBlur_163_114"/>
</filter>
<clipPath id="clip0_163_114">
<rect x="1.47827" y="1" width="48" height="53" rx="10" fill="white"/>
</clipPath>
<clipPath id="clip1_163_114">
<rect width="7.02128" height="7.09677" fill="white" transform="translate(10.9676 31.3925)"/>
</clipPath>
</defs>
</svg>
