<svg width="350" height="40" viewBox="0 0 350 40" fill="none" xmlns="http://www.w3.org/2000/svg">
<path d="M0 8C0 3.58172 3.58172 0 8 0H342C346.418 0 350 3.58172 350 8V32C350 36.4183 346.418 40 342 40H8C3.58172 40 0 36.4183 0 32V8Z" fill="#F5F5F5"/>
<path d="M159.868 26.16C159.047 26.16 158.284 26.016 157.58 25.728C156.876 25.4293 156.257 25.0187 155.724 24.496C155.201 23.9627 154.796 23.344 154.508 22.64C154.231 21.936 154.092 21.1787 154.092 20.368C154.092 19.5573 154.231 18.8 154.508 18.096C154.796 17.392 155.201 16.7787 155.724 16.256C156.257 15.7333 156.871 15.3227 157.564 15.024C158.268 14.7253 159.036 14.576 159.868 14.576C160.764 14.576 161.553 14.7253 162.236 15.024C162.919 15.312 163.521 15.712 164.044 16.224L162.572 17.696C162.263 17.3547 161.884 17.088 161.436 16.896C160.988 16.704 160.465 16.608 159.868 16.608C159.345 16.608 158.865 16.6987 158.428 16.88C158.001 17.0507 157.628 17.3067 157.308 17.648C156.988 17.9787 156.743 18.3787 156.572 18.848C156.401 19.3067 156.316 19.8133 156.316 20.368C156.316 20.9333 156.401 21.4453 156.572 21.904C156.743 22.3627 156.988 22.7627 157.308 23.104C157.628 23.4347 158.001 23.6907 158.428 23.872C158.865 24.0533 159.345 24.144 159.868 24.144C160.497 24.144 161.036 24.048 161.484 23.856C161.943 23.664 162.327 23.392 162.636 23.04L164.108 24.512C163.585 25.0347 162.977 25.44 162.284 25.728C161.591 26.016 160.785 26.16 159.868 26.16ZM165.397 26V14.432H167.493V26H165.397ZM172.582 26.16C171.878 26.16 171.243 25.984 170.678 25.632C170.113 25.28 169.67 24.8 169.35 24.192C169.03 23.584 168.87 22.9013 168.87 22.144C168.87 21.376 169.03 20.688 169.35 20.08C169.67 19.472 170.113 18.992 170.678 18.64C171.243 18.288 171.878 18.112 172.582 18.112C173.137 18.112 173.633 18.224 174.07 18.448C174.507 18.672 174.854 18.9867 175.11 19.392C175.377 19.7867 175.521 20.2347 175.542 20.736V23.52C175.521 24.032 175.377 24.4853 175.11 24.88C174.854 25.2747 174.507 25.5893 174.07 25.824C173.633 26.048 173.137 26.16 172.582 26.16ZM172.966 24.224C173.553 24.224 174.027 24.032 174.39 23.648C174.753 23.2533 174.934 22.7467 174.934 22.128C174.934 21.7227 174.849 21.3653 174.678 21.056C174.518 20.736 174.289 20.4907 173.99 20.32C173.702 20.1387 173.361 20.048 172.966 20.048C172.582 20.048 172.241 20.1387 171.942 20.32C171.654 20.4907 171.425 20.736 171.254 21.056C171.094 21.3653 171.014 21.7227 171.014 22.128C171.014 22.544 171.094 22.912 171.254 23.232C171.425 23.5413 171.654 23.7867 171.942 23.968C172.241 24.1387 172.582 24.224 172.966 24.224ZM174.822 26V23.92L175.158 22.032L174.822 20.176V18.272H176.902V26H174.822ZM178.756 26V18.272H180.868V26H178.756ZM179.812 17.024C179.471 17.024 179.188 16.912 178.964 16.688C178.74 16.4533 178.628 16.1653 178.628 15.824C178.628 15.4933 178.74 15.2107 178.964 14.976C179.188 14.7413 179.471 14.624 179.812 14.624C180.164 14.624 180.447 14.7413 180.66 14.976C180.884 15.2107 180.996 15.4933 180.996 15.824C180.996 16.1653 180.884 16.4533 180.66 16.688C180.447 16.912 180.164 17.024 179.812 17.024ZM182.725 26V18.272H184.821V26H182.725ZM187.765 26V21.44C187.765 20.992 187.621 20.6453 187.333 20.4C187.056 20.144 186.709 20.016 186.293 20.016C186.016 20.016 185.765 20.0747 185.541 20.192C185.317 20.2987 185.141 20.4587 185.013 20.672C184.885 20.8853 184.821 21.1413 184.821 21.44L184.005 21.04C184.005 20.4427 184.133 19.9253 184.389 19.488C184.656 19.0507 185.013 18.7147 185.461 18.48C185.909 18.2347 186.416 18.112 186.981 18.112C187.514 18.112 188 18.2347 188.437 18.48C188.874 18.7147 189.221 19.0507 189.477 19.488C189.733 19.9147 189.861 20.432 189.861 21.04V26H187.765ZM192.805 26V21.44C192.805 20.992 192.661 20.6453 192.373 20.4C192.096 20.144 191.749 20.016 191.333 20.016C191.066 20.016 190.816 20.0747 190.581 20.192C190.357 20.2987 190.181 20.4587 190.053 20.672C189.925 20.8853 189.861 21.1413 189.861 21.44L188.661 21.152C188.704 20.5333 188.869 20 189.157 19.552C189.445 19.0933 189.824 18.7413 190.293 18.496C190.762 18.24 191.285 18.112 191.861 18.112C192.437 18.112 192.954 18.2347 193.413 18.48C193.872 18.7147 194.234 19.056 194.501 19.504C194.768 19.952 194.901 20.4853 194.901 21.104V26H192.805Z" fill="#1E1E1E"/>
</svg>
