<svg width="28" height="24" viewBox="0 0 28 24" fill="none" xmlns="http://www.w3.org/2000/svg">
<path d="M19.4291 17.0116C20.6259 16.3501 20.4708 13.8013 19.0839 11.3146C18.4889 10.2438 17.7574 9.37676 17.0259 8.77059C16.1511 9.41605 15.0916 9.76612 14.0023 9.76955C12.9113 9.76715 11.8499 9.41703 10.9738 8.77059C10.2423 9.37676 9.51275 10.2448 8.91584 11.3146C7.52792 13.8003 7.37479 16.3501 8.57447 17.0116C9.10896 17.3142 9.67271 17.0872 10.254 16.5305C10.1451 17.1303 10.0906 17.7386 10.0911 18.3481C10.0911 21.1975 11.203 23.5 12.5715 23.5C13.3966 23.5 13.8053 22.6611 14.0013 21.3779C14.1964 22.6523 14.606 23.5 15.4253 23.5C16.7879 23.5 17.9086 21.1966 17.9086 18.3481C17.9086 17.7079 17.8481 17.0969 17.7447 16.5315C18.3299 17.0892 18.8917 17.32 19.4282 17.0135L19.4291 17.0116ZM14.0003 8.79968C14.5537 8.8079 15.1032 8.70659 15.6169 8.50165C16.1305 8.29671 16.598 7.99223 16.9922 7.60594C17.3864 7.21964 17.6994 6.75924 17.9129 6.25153C18.1265 5.74383 18.2364 5.19895 18.2362 4.64862C18.236 4.09828 18.1257 3.55349 17.9118 3.04593C17.6979 2.53837 17.3846 2.07819 16.9901 1.69217C16.5956 1.30615 16.1279 1.00199 15.6141 0.797412C15.1004 0.59283 14.5508 0.491904 13.9974 0.500507C12.9017 0.517543 11.8567 0.96242 11.088 1.73908C10.3194 2.51573 9.88875 3.56185 9.88914 4.65153C9.88952 5.74121 10.3209 6.78702 11.0901 7.56314C11.8593 8.33926 12.9046 8.78341 14.0003 8.79968ZM22.3825 11.4319C23.2738 11.406 24.1198 11.0357 24.741 10.3997C25.3622 9.76364 25.7097 8.91189 25.7097 8.02524C25.7097 7.13859 25.3622 6.28685 24.741 5.6508C24.1198 5.01475 23.2738 4.64448 22.3825 4.61857C21.4736 4.6187 20.602 4.97784 19.9595 5.61699C19.3169 6.25614 18.956 7.12293 18.9561 8.0267C18.9562 8.93046 19.3174 9.79715 19.9601 10.4361C20.6029 11.0751 21.4746 11.434 22.3835 11.4338L22.3825 11.4319ZM26.557 13.4977C26.0674 12.6171 25.4685 11.9052 24.8677 11.4077C24.149 11.9372 23.2789 12.2243 22.3844 12.2272C21.6471 12.2272 20.9604 12.0264 20.3596 11.6938C20.8434 12.7538 21.1428 13.8275 21.1984 14.7877C21.2901 16.258 20.8278 17.3481 19.9032 17.8573C19.7051 17.9659 19.4896 18.0394 19.2662 18.0745C19.2107 18.4547 19.1726 18.8504 19.1726 19.2675C19.1726 21.6078 20.0846 23.4981 21.2091 23.4981C21.886 23.4981 22.2235 22.8095 22.3835 21.7562C22.5424 22.8036 22.8789 23.4981 23.5539 23.4981C24.6707 23.4981 25.5924 21.6068 25.5924 19.2694C25.5924 18.7428 25.5407 18.2414 25.4558 17.7758C25.9357 18.2346 26.398 18.4237 26.8389 18.1715C27.821 17.6284 27.6942 15.5354 26.556 13.4968L26.557 13.4977ZM5.61818 11.4319C6.29559 11.4315 6.95766 11.2314 7.52072 10.8569C8.08377 10.4824 8.52251 9.95031 8.78148 9.32787C9.04044 8.70544 9.108 8.02063 8.97561 7.36002C8.84321 6.69942 8.51682 6.09268 8.03769 5.61651C7.55855 5.14034 6.9482 4.81612 6.28378 4.68485C5.61937 4.55358 4.93073 4.62115 4.30493 4.87901C3.67913 5.13687 3.14426 5.57345 2.76796 6.13355C2.39165 6.69366 2.19081 7.35213 2.19081 8.02573C2.19106 8.92954 2.55224 9.79626 3.19495 10.4353C3.83765 11.0744 4.70927 11.4336 5.61818 11.4338V11.4319ZM8.09069 17.8544C6.53794 16.9961 6.39554 14.4366 7.64594 11.6918C7.02792 12.0408 6.32987 12.2255 5.61916 12.2282C4.68673 12.2282 3.83232 11.9178 3.13202 11.4077C2.53218 11.9042 1.93429 12.6161 1.44271 13.4958C0.304479 15.5364 0.179635 17.6294 1.16279 18.1706C1.60169 18.4208 2.06499 18.2336 2.54193 17.7768C2.45515 18.2693 2.4111 18.7684 2.41026 19.2685C2.41026 21.6078 3.32221 23.4971 4.44679 23.4971C5.12368 23.4971 5.46115 22.8085 5.62111 21.7562C5.78204 22.8036 6.11854 23.4981 6.79153 23.4981C7.91026 23.4981 8.83001 21.6068 8.83001 19.2694C8.83001 18.8495 8.791 18.4528 8.7354 18.0726C8.50957 18.0376 8.29168 17.9634 8.09167 17.8534L8.09069 17.8544Z" fill="#808080"/>
</svg>
