<svg width="35" height="35" viewBox="0 0 35 35" fill="none" xmlns="http://www.w3.org/2000/svg">
  <g transform="scale(1.1, 1.1)" transform-origin="center">
    <circle cx="17.5" cy="17.5" r="17.5" fill="#EDB413"/>
    <circle cx="17.5" cy="17.5" r="16" stroke="#FDD835" stroke-width="3"/>
    <path d="M18.2069 7.797L20.5561 13.2128C20.6445 13.4166 20.7854 13.5927 20.9641 13.7227C21.1427 13.8527 21.3526 13.9319 21.5719 13.9519L27.2949 14.4706C27.9424 14.5659 28.2007 15.3685 27.7312 15.8307L23.4202 19.4913C23.0711 19.7876 22.9123 20.2534 23.0083 20.7032L24.2615 26.6324C24.3714 27.2833 23.696 27.7808 23.1165 27.4721L18.1213 24.5155C17.933 24.4036 17.7185 24.3447 17.5 24.3447C17.2815 24.3447 17.067 24.4036 16.8786 24.5155L11.8835 27.4703C11.3058 27.7773 10.6286 27.2816 10.7385 26.6306L11.9917 20.7014C12.0859 20.2516 11.9288 19.7859 11.5798 19.4895L7.267 15.8325C6.7993 15.3721 7.0576 14.5676 7.7034 14.4724L13.4264 13.9537C13.6456 13.9336 13.8555 13.8544 14.0342 13.7244C14.2128 13.5944 14.3537 13.4183 14.4421 13.2145L16.7914 7.7987C17.0829 7.206 17.9171 7.206 18.2069 7.797Z" fill="#FDD835"/>
    <path d="M18.0358 13.5374L17.6379 9.5469C17.6222 9.3247 17.5768 8.9436 17.9293 8.9436C18.2086 8.9436 18.3604 9.5311 18.3604 9.5311L19.5543 12.7347C20.0046 13.9537 19.8196 14.3718 19.385 14.6188C18.8858 14.901 18.1493 14.6805 18.0358 13.5374Z" fill="#ECC338"/>
    <path d="M22.9594 19.1367L26.3838 16.4358C26.5531 16.2929 26.8585 16.0654 26.6142 15.806C26.4205 15.6014 25.8969 15.896 25.8969 15.896L22.9001 17.0797C22.0065 17.392 21.4131 17.8542 21.3607 18.4363C21.2926 19.2125 21.9821 19.8106 22.9594 19.1367Z" fill="#FDD835"/>
  </g>
</svg>
