<svg width="32" height="32" viewBox="0 0 36 36" fill="none" xmlns="http://www.w3.org/2000/svg">
  <g filter="url(#filter0_i_294_341)">
    <circle cx="18" cy="18" r="16" fill="#E9AC00"/>
  </g>
  <circle cx="18" cy="18" r="14.5" stroke="#F4B700" stroke-width="3"/>
  <path d="M18.784 8.61176L18.7839 8.61183L20.9317 13.5634C21.002 13.7253 21.1138 13.865 21.2554 13.968C21.3969 14.071 21.563 14.1336 21.7364 14.1496L18.784 8.61176ZM18.784 8.61176L18.781 8.60549C18.4609 7.95272 17.5387 7.95375 17.2175 8.60694L17.2174 8.60687L17.2145 8.61344L15.0666 13.565C15.0666 13.565 15.0666 13.5651 15.0666 13.5651C14.9964 13.7269 14.8846 13.8666 14.743 13.9696C14.6015 14.0726 14.4354 14.1353 14.262 14.1512C14.2619 14.1512 14.2619 14.1512 14.2618 14.1512L9.02954 14.6254L9.02952 14.6251L9.02119 14.6264C8.30604 14.7318 8.0246 15.6189 8.53891 16.1252L8.53862 16.1255L8.54713 16.1327L12.4901 19.4762C12.7668 19.7111 12.892 20.0809 12.817 20.439C12.817 20.4391 12.817 20.4391 12.817 20.4391L11.6713 25.8599L11.6712 25.8598L11.6702 25.8659C11.5495 26.5804 12.2941 27.1317 12.9353 26.7911L12.9353 26.7912L12.9413 26.7877L17.5083 24.0861L17.5085 24.086C17.6576 23.9975 17.8273 23.9509 18 23.9509C18.1727 23.9509 18.3424 23.9975 18.4915 24.086L18.4917 24.0861L23.0587 26.7893L23.0586 26.7894L23.0646 26.7926C23.708 27.1354 24.4504 26.5813 24.3298 25.8675L24.3299 25.8675L24.3287 25.8615L23.1829 20.4405L23.1829 20.4402C23.1066 20.0828 23.2328 19.713 23.5098 19.4778L23.5098 19.4778L27.4513 16.131L27.4516 16.1313L27.4595 16.1236C27.9754 15.6157 27.6939 14.7302 26.9771 14.6247L26.9772 14.6245L26.9689 14.6237L21.7366 14.1496L18.784 8.61176Z" fill="#FBB900" stroke="#F4B700" stroke-width="0.3"/>
  <defs>
    <filter id="filter0_i_294_341" x="0" y="0" width="36" height="36" filterUnits="userSpaceOnUse" color-interpolation-filters="sRGB">
      <feFlood flood-opacity="0" result="BackgroundImageFix"/>
      <feBlend mode="normal" in="SourceGraphic" in2="BackgroundImageFix" result="shape"/>
      <feColorMatrix in="SourceAlpha" type="matrix" values="0 0 0 0 0 0 0 0 0 0 0 0 0 0 0 0 0 0 127 0" result="hardAlpha"/>
      <feMorphology radius="1.5" operator="erode" in="SourceAlpha" result="effect1_innerShadow_294_341"/>
      <feOffset/>
      <feGaussianBlur stdDeviation="1.75"/>
      <feComposite in2="hardAlpha" operator="arithmetic" k2="-1" k3="1"/>
      <feColorMatrix type="matrix" values="0 0 0 0 0.604167 0 0 0 0 0.445697 0 0 0 0 0 0 0 0 1 0"/>
      <feBlend mode="normal" in2="shape" result="effect1_innerShadow_294_341"/>
    </filter>
  </defs>
</svg>
