<svg width="32" height="32" viewBox="0 0 35 35" fill="none" xmlns="http://www.w3.org/2000/svg">
<g filter="url(#filter0_i_294_342)">
<circle cx="16" cy="16" r="16" fill="#E9AC00"/>
</g>
<circle cx="16" cy="16" r="14.5" stroke="#F4B700" stroke-width="3"/>
<path d="M16.784 6.61176L16.7839 6.61183L18.9317 11.5634C19.002 11.7253 19.1138 11.865 19.2554 11.968C19.3969 12.071 19.563 12.1336 19.7364 12.1496L16.784 6.61176ZM16.784 6.61176L16.781 6.60549C16.4609 5.95272 15.5387 5.95375 15.2175 6.60694L15.2174 6.60687L15.2145 6.61344L13.0666 11.565C13.0666 11.565 13.0666 11.5651 13.0666 11.5651C12.9964 11.7269 12.8846 11.8666 12.743 11.9696C12.6015 12.0726 12.4354 12.1353 12.262 12.1512C12.2619 12.1512 12.2619 12.1512 12.2618 12.1512L7.02954 12.6254L7.02952 12.6251L7.02119 12.6264C6.30604 12.7318 6.0246 13.6189 6.53891 14.1252L6.53862 14.1255L6.54713 14.1327L10.4901 17.4762C10.7668 17.7111 10.892 18.0809 10.817 18.439C10.817 18.4391 10.817 18.4391 10.817 18.4391L9.67132 23.8599L9.6712 23.8598L9.67017 23.8659C9.54949 24.5804 10.2941 25.1317 10.9353 24.7911L10.9353 24.7912L10.9413 24.7877L15.5083 22.0861L15.5085 22.086C15.6576 21.9975 15.8273 21.9509 16 21.9509C16.1727 21.9509 16.3424 21.9975 16.4915 22.086L16.4917 22.0861L21.0587 24.7893L21.0586 24.7894L21.0646 24.7926C21.708 25.1354 22.4504 24.5813 22.3298 23.8675L22.3299 23.8675L22.3287 23.8615L21.1829 18.4405L21.1829 18.4402C21.1066 18.0828 21.2328 17.713 21.5098 17.4778L21.5098 17.4778L25.4513 14.131L25.4516 14.1313L25.4595 14.1236C25.9754 13.6157 25.6939 12.7302 24.9771 12.6247L24.9772 12.6245L24.9689 12.6237L19.7366 12.1496L16.784 6.61176Z" fill="#FBB900" stroke="#F4B700" stroke-width="0.3"/>
<defs>
<filter id="filter0_i_294_342" x="0" y="0" width="32" height="32" filterUnits="userSpaceOnUse" color-interpolation-filters="sRGB">
<feFlood flood-opacity="0" result="BackgroundImageFix"/>
<feBlend mode="normal" in="SourceGraphic" in2="BackgroundImageFix" result="shape"/>
<feColorMatrix in="SourceAlpha" type="matrix" values="0 0 0 0 0 0 0 0 0 0 0 0 0 0 0 0 0 0 127 0" result="hardAlpha"/>
<feMorphology radius="1.5" operator="erode" in="SourceAlpha" result="effect1_innerShadow_294_342"/>
<feOffset/>
<feGaussianBlur stdDeviation="1.75"/>
<feComposite in2="hardAlpha" operator="arithmetic" k2="-1" k3="1"/>
<feColorMatrix type="matrix" values="0 0 0 0 0.604167 0 0 0 0 0.445697 0 0 0 0 0 0 0 0 1 0"/>
<feBlend mode="normal" in2="shape" result="effect1_innerShadow_294_342"/>
</filter>
</defs>
</svg>
