<svg width="35" height="35" viewBox="0 0 35 35" fill="none" xmlns="http://www.w3.org/2000/svg">
  <g filter="url(#filter0_di_294_342)">
    <circle cx="17.5" cy="21" r="11.67" fill="#EDB413"/>
    <circle cx="17.5" cy="21" r="10.67" stroke="#FDD835" stroke-width="2"/>
  </g>
  <path d="M18.13 14.53L19.7 18.14C19.76 18.28 19.86 18.4 19.97 18.48C20.08 18.56 20.21 18.6 20.36 18.62L24.2 18.98C24.63 19.03 24.8 19.58 24.48 19.87L21.61 22.33C21.38 22.52 21.29 22.84 21.35 23.12L22.18 27.09C22.24 27.52 21.67 27.88 21.16 27.58L17.41 25.37C17.29 25.3 17.15 25.27 17 25.27C16.85 25.27 16.71 25.3 16.59 25.37L12.84 27.58C12.34 27.88 11.76 27.51 11.82 27.08L12.65 23.11C12.71 22.83 12.61 22.51 12.38 22.32L9.52 19.86C9.2 19.57 9.37 19.03 9.8 18.98L13.64 18.62C13.79 18.6 13.92 18.56 14.03 18.48C14.14 18.4 14.24 18.28 14.31 18.14L15.88 14.53C16.06 14.21 16.54 14.21 16.73 14.53Z" fill="#FDD835"/>
  <path d="M18.02 18.36L17.75 15.7C17.74 15.55 17.68 15.29 17.95 15.29C18.13 15.29 18.21 15.6 18.21 15.6L18.91 17.7C19.18 18.36 19.06 18.58 18.84 18.71C18.54 18.88 18.06 18.72 18.02 18.36Z" fill="#ECC338"/>
  <path d="M21.34 22.09L23.59 20.29C23.69 20.21 23.9 20.04 23.74 19.87C23.62 19.75 23.26 19.93 23.26 19.93L21.27 20.83C20.67 21.08 20.28 21.43 20.25 21.86C20.21 22.42 20.73 22.91 21.34 22.09Z" fill="#FDD835"/>
  <g style="mix-blend-mode:overlay" filter="url(#filter1_f_294_342)">
    <circle cx="17.86" cy="17.97" r="6.33" fill="white"/>
  </g>
  <defs>
    <filter id="filter0_di_294_342" x="5.67" y="9.33" width="23.67" height="23.67" filterUnits="userSpaceOnUse" color-interpolation-filters="sRGB">
      <feFlood flood-opacity="0" result="BackgroundImageFix"/>
      <feColorMatrix in="SourceAlpha" type="matrix" values="0 0 0 0 0 0 0 0 0 0 0 0 0 0 0 0 0 0 127 0" result="hardAlpha"/>
      <feMorphology radius="1" operator="dilate" in="SourceAlpha" result="effect1_dropShadow_294_342"/>
      <feOffset/>
      <feComposite in2="hardAlpha" operator="out"/>
      <feColorMatrix type="matrix" values="0 0 0 0 0.82 0 0 0 0 0.68 0 0 0 0 0.08 0 0 0 1 0"/>
      <feBlend mode="normal" in2="BackgroundImageFix" result="effect1_dropShadow_294_342"/>
      <feBlend mode="normal" in="SourceGraphic" in2="effect1_dropShadow_294_342" result="shape"/>
      <feColorMatrix in="SourceAlpha" type="matrix" values="0 0 0 0 0 0 0 0 0 0 0 0 0 0 0 0 0 0 127 0" result="hardAlpha"/>
      <feMorphology radius="2" operator="erode" in="SourceAlpha" result="effect2_innerShadow_294_342"/>
      <feOffset/>
      <feGaussianBlur stdDeviation="1"/>
      <feComposite in2="hardAlpha" operator="arithmetic" k2="-1" k3="1"/>
      <feColorMatrix type="matrix" values="0 0 0 0 0.96 0 0 0 0 0.71 0 0 0 0 0 0 0 0 1 0"/>
      <feBlend mode="normal" in2="shape" result="effect2_innerShadow_294_342"/>
    </filter>
    <filter id="filter1_f_294_342" x="0.88" y="0.73" width="34" height="34" filterUnits="userSpaceOnUse" color-interpolation-filters="sRGB">
      <feFlood flood-opacity="0" result="BackgroundImageFix"/>
      <feBlend mode="normal" in="SourceGraphic" in2="BackgroundImageFix" result="shape"/>
      <feGaussianBlur stdDeviation="5.69" result="effect1_foregroundBlur_294_342"/>
    </filter>
  </defs>
</svg>
