<svg width="37" height="36" viewBox="0 0 37 36" fill="none" xmlns="http://www.w3.org/2000/svg">
<g filter="url(#filter0_di_294_342)">
<circle cx="18.5" cy="18" r="17.5" fill="#FCC11A"/>
<circle cx="18.5" cy="18" r="16" stroke="#FFD623" stroke-width="3"/>
</g>
<path d="M19.2069 7.79696L21.5561 13.2128C21.6445 13.4166 21.7854 13.5927 21.9641 13.7227C22.1427 13.8527 22.3526 13.9319 22.5719 13.9519L28.2949 14.4706C28.9424 14.5659 29.2007 15.3685 28.7312 15.8307L24.4202 19.4913C24.0711 19.7876 23.9123 20.2534 24.0083 20.7032L25.2615 26.6324C25.3714 27.2833 24.696 27.7808 24.1165 27.4721L19.1213 24.5155C18.933 24.4036 18.7185 24.3447 18.5 24.3447C18.2815 24.3447 18.067 24.4036 17.8786 24.5155L12.8835 27.4703C12.3058 27.7773 11.6286 27.2816 11.7385 26.6306L12.9917 20.7014C13.0859 20.2516 12.9288 19.7859 12.5798 19.4895L8.26703 15.8325C7.79928 15.3721 8.05759 14.5676 8.70337 14.4724L14.4264 13.9537C14.6456 13.9336 14.8555 13.8544 15.0342 13.7244C15.2128 13.5944 15.3537 13.4183 15.4421 13.2145L17.7914 7.79872C18.0829 7.20598 18.9171 7.20598 19.2069 7.79696Z" fill="#FFD623"/>
<g style="mix-blend-mode:soft-light" filter="url(#filter1_f_294_342)">
<circle cx="18" cy="16" r="9" fill="white" fill-opacity="0.5"/>
</g>
<defs>
<filter id="filter0_di_294_342" x="0.7" y="0.2" width="35.6" height="35.6" filterUnits="userSpaceOnUse" color-interpolation-filters="sRGB">
<feFlood flood-opacity="0" result="BackgroundImageFix"/>
<feColorMatrix in="SourceAlpha" type="matrix" values="0 0 0 0 0 0 0 0 0 0 0 0 0 0 0 0 0 0 127 0" result="hardAlpha"/>
<feMorphology radius="0.3" operator="dilate" in="SourceAlpha" result="effect1_dropShadow_294_342"/>
<feOffset/>
<feComposite in2="hardAlpha" operator="out"/>
<feColorMatrix type="matrix" values="0 0 0 0 0.956863 0 0 0 0 0.705882 0 0 0 0 0 0 0 0 1 0"/>
<feBlend mode="normal" in2="BackgroundImageFix" result="effect1_dropShadow_294_342"/>
<feBlend mode="normal" in="SourceGraphic" in2="effect1_dropShadow_294_342" result="shape"/>
<feColorMatrix in="SourceAlpha" type="matrix" values="0 0 0 0 0 0 0 0 0 0 0 0 0 0 0 0 0 0 127 0" result="hardAlpha"/>
<feMorphology radius="2" operator="erode" in="SourceAlpha" result="effect2_innerShadow_294_342"/>
<feOffset/>
<feGaussianBlur stdDeviation="1.5"/>
<feComposite in2="hardAlpha" operator="arithmetic" k2="-1" k3="1"/>
<feColorMatrix type="matrix" values="0 0 0 0 0.956863 0 0 0 0 0.705882 0 0 0 0 0 0 0 0 1 0"/>
<feBlend mode="normal" in2="shape" result="effect2_innerShadow_294_342"/>
</filter>
<filter id="filter1_f_294_342" x="4.8" y="2.8" width="26.4" height="26.4" filterUnits="userSpaceOnUse" color-interpolation-filters="sRGB">
<feFlood flood-opacity="0" result="BackgroundImageFix"/>
<feBlend mode="normal" in="SourceGraphic" in2="BackgroundImageFix" result="shape"/>
<feGaussianBlur stdDeviation="2.1" result="effect1_foregroundBlur_294_342"/>
</filter>
</defs>
</svg>
