<svg width="28" height="24" viewBox="0 0 28 24" fill="none" xmlns="http://www.w3.org/2000/svg">
<path d="M25.2443 0.500218C25.2346 0.499768 25.2249 0.500015 25.2152 0.500958C24.437 0.577047 23.3123 1.68647 23.7284 2.36746C23.9294 2.69622 24.525 2.32279 24.8286 2.09206C25.2183 1.79583 25.6538 1.29833 25.572 0.806979C25.5475 0.659729 25.3908 0.506441 25.2444 0.500157L25.2443 0.500218ZM21.8027 0.848135C21.3124 0.850107 20.2051 2.09619 20.3059 2.90631C20.3448 3.21929 20.7374 3.49796 21.0429 3.47282C21.4832 3.43647 21.8084 2.91875 21.9647 2.49382C22.1516 1.98541 22.3797 1.07382 21.892 0.864832C21.8637 0.853168 21.8333 0.847449 21.8027 0.848135ZM21.951 4.30722C21.7026 4.30581 21.4548 4.33231 21.212 4.38626C20.4983 4.54522 19.8654 4.94027 19.5864 5.40284C19.5862 5.40334 19.586 5.40235 19.5857 5.40211C19.5869 5.40395 19.5892 5.4095 19.5962 5.43969C19.6116 5.50697 19.6688 5.64097 19.7517 5.80085C19.9176 6.12061 20.2357 6.55682 20.1298 7.17785C19.9875 8.01287 19.3841 8.51777 18.9377 8.95551C18.9092 8.98342 18.8837 9.00973 18.8567 9.03672C18.8686 9.11188 18.8783 9.18801 18.8857 9.26511C18.9381 9.81221 18.8974 10.3926 18.6812 10.8939C18.7331 10.938 18.7851 10.9721 18.8345 10.9917C19.2243 11.1458 19.9537 10.895 20.4576 10.5114C20.7791 10.2667 21.0095 9.87265 21.2343 9.37533C21.4592 8.87801 21.6681 8.29381 22.029 7.75373C22.1596 7.55806 22.3055 7.38961 22.4513 7.23682C22.2984 6.78829 22.2515 6.30588 22.3902 5.84299C22.53 5.37635 22.8181 4.9622 23.1805 4.61983C23.1717 4.61305 23.1628 4.60566 23.1539 4.60012C22.8481 4.41159 22.4144 4.30993 21.951 4.30722ZM24.949 4.8839C24.9236 4.88364 24.8982 4.88522 24.8731 4.88864C24.7319 4.90589 24.5227 4.98586 24.3142 5.12067C23.897 5.39028 23.5025 5.89407 23.4199 6.1699C23.3738 6.3238 23.4002 6.73198 23.5289 7.02691C23.6355 7.27101 23.7498 7.36176 23.8181 7.39312C23.8395 7.35264 23.8675 7.30268 23.8998 7.18956C23.9831 6.89783 24.0246 6.46539 24.2229 6.04132C24.4265 5.60622 24.7462 5.29077 24.9256 5.03121C24.9781 4.95518 24.9827 4.93386 25.0043 4.88919C24.986 4.886 24.9675 4.88427 24.949 4.88402V4.8839ZM15.7683 5.8027L12.2464 8.52097C12.5055 9.20596 12.8634 10.4707 12.8634 10.4707L12.2746 11.2927L11.6018 10.3408L11.0673 8.6222H10.308L8.55666 11.3255L8.91062 13.1101L6.70434 11.1237L1.14656 15.7765L1.79018 17.2217L4.79257 16.832L8.01631 14.9014L11.0598 15.4058L11.5607 15.482L11.3084 15.2657L11.3846 14.9322C11.5493 14.2115 12.0969 13.5376 12.8387 12.7524C13.5804 11.9673 14.5324 11.1362 15.5385 10.4124C15.6076 10.3627 15.6771 10.3135 15.7469 10.2647C15.8516 9.7445 16.1315 9.26492 16.4228 8.84714C16.6367 8.54032 16.868 8.27478 17.1111 8.07355C17.2326 7.97301 17.3557 7.88663 17.5084 7.82304C17.5847 7.79125 17.6763 7.76125 17.7792 7.75219C17.8949 7.74204 18.0113 7.76101 18.1183 7.80746C18.2189 7.85058 18.3033 7.90634 18.3752 7.97029C18.4065 7.93856 18.441 7.90499 18.471 7.87393L15.7683 5.80258V5.8027ZM17.7362 8.98767C17.6074 9.104 17.4472 9.2802 17.2983 9.49381C16.9715 9.9623 16.7666 10.5903 16.7911 10.8112C16.7935 10.811 16.807 10.8377 16.8471 10.8669C16.9038 10.9082 16.9957 10.9352 17.0167 10.9359C17.1966 10.942 17.5877 10.6825 17.6858 10.4689C17.783 10.2573 17.8512 9.76915 17.8133 9.3741C17.801 9.24285 17.7751 9.11332 17.7362 8.98767H17.7362ZM16.7911 10.8112C16.7901 10.8114 16.7905 10.8149 16.7925 10.8266C16.7917 10.8221 16.7917 10.8162 16.7911 10.8112H16.7911ZM22.5382 10.603C22.6323 11.0701 22.6156 11.5943 22.5401 12.1277C22.391 13.1798 21.9927 14.3586 21.4829 15.5078C21.2745 15.9764 21.0492 16.4369 20.8075 16.8882L22.0361 17.075L27.5 18.4777L26.9897 15.0335L25.7035 12.7588L24.3007 13.24L23.3335 15.0141L23.8801 12.3313L25.1461 11.7729L24.981 11.481L22.5381 10.6029L22.5382 10.603ZM21.5028 11.0227C21.384 11.1588 21.2509 11.2871 21.0986 11.403C20.4216 11.9183 19.4291 12.415 18.4477 12.0268C18.2791 11.9598 18.1202 11.8693 17.9755 11.7578C17.6904 11.9485 17.3514 12.0568 16.9812 12.0443C16.6956 12.0346 16.446 11.9336 16.2241 11.772C16.1193 11.6956 16.0175 11.601 15.9323 11.4863C15.0645 12.1308 14.2421 12.8579 13.6113 13.5256C13.114 14.0521 12.7494 14.5699 12.5651 14.8999L13.9553 16.0915C14.3717 15.6697 14.9721 15.1358 15.5854 14.6318C16.0019 14.2894 16.4112 13.9756 16.7623 13.7506C16.9377 13.638 17.0949 13.5469 17.2626 13.4811C17.3464 13.4482 17.4325 13.419 17.5512 13.4092C17.6699 13.3993 17.8569 13.4096 18.028 13.5562C18.199 13.7029 18.2428 13.8902 18.2549 14.0122C18.2669 14.1342 18.2544 14.2266 18.2381 14.3174C18.2055 14.4991 18.147 14.6745 18.0711 14.8725C17.9194 15.2685 17.6936 15.7394 17.4416 16.223C17.0708 16.9346 16.6691 17.639 16.3412 18.1365L17.7315 19.3282C18.0137 19.082 18.4427 18.6194 18.8559 18.0208C19.4249 17.1968 20.0214 16.1318 20.5024 15.0472C20.9836 13.9627 21.3483 12.8528 21.4735 11.9677C21.5262 11.5954 21.532 11.2802 21.5028 11.0226L21.5028 11.0227ZM16.8069 15.0652C16.6212 15.2058 16.4382 15.3503 16.258 15.4984C15.539 16.0894 14.8208 16.7739 14.5448 17.0747C14.5617 17.3757 14.6225 17.5731 14.6798 17.6374C14.7402 17.7051 14.8809 17.7793 15.2952 17.7181C15.5326 17.3846 16.057 16.5337 16.4921 15.6989C16.601 15.4898 16.706 15.2785 16.8068 15.0652H16.8069ZM14.0687 17.6319L9.38672 23.4163C9.7996 23.4435 10.2229 23.4649 10.6554 23.4811L14.8487 18.3005L14.0687 17.6319ZM12.151 18.2685C11.2712 18.2768 10.3917 18.309 9.51353 18.3651L8.7825 19.341L8.49176 18.4437C7.22798 18.5547 6.06018 18.7144 5.02679 18.9125L4.9468 21.8501L4.25271 19.0731C4.1034 19.1068 3.95445 19.1421 3.80589 19.1791C2.68796 19.4584 1.79563 19.7932 1.22684 20.1293C0.658062 20.4653 0.5 20.7536 0.5 20.883C0.5 21.0123 0.658062 21.3006 1.22684 21.6366C1.79563 21.9726 2.68796 22.3073 3.80589 22.5866C5.00332 22.8859 6.46228 23.1257 8.09062 23.2847L12.1508 18.2685H12.151ZM19.6395 18.7985C19.0619 19.6228 18.5389 20.2477 17.9142 20.5291L17.6092 20.6665L15.6769 19.0102L12.0458 23.4961C12.2474 23.4986 12.4499 23.5 12.654 23.5C16.1236 23.5 19.2661 23.1454 21.502 22.5867C22.62 22.3074 23.5124 21.9726 24.0811 21.6366C24.6499 21.3006 24.808 21.0123 24.808 20.883C24.808 20.7536 24.6499 20.4652 24.0811 20.1293C23.5124 19.7933 22.62 19.4584 21.5021 19.1791C21.4322 19.1617 21.3587 19.1449 21.287 19.1278L20.4381 22.2478L20.3347 18.923C20.1035 18.8787 19.8717 18.8372 19.6395 18.7986V18.7985Z" fill="#808080"/>
</svg>
