<svg width="350" height="50" viewBox="0 0 350 50" fill="none" xmlns="http://www.w3.org/2000/svg">
<path d="M0.5 8C0.5 3.58172 4.08172 0 8.5 0H342.5C346.918 0 350.5 3.58172 350.5 8V42C350.5 46.4183 346.918 50 342.5 50H8.5C4.08172 50 0.5 46.4183 0.5 42V8Z" fill="#F5F5F5"/>
<path d="M158.652 32V20.752H160.188L164.748 28.048H163.868L168.412 20.752H169.948V32H167.788V24.48L168.204 24.608L165.036 29.696H163.564L160.396 24.608L160.828 24.48V32H158.652ZM172.022 32V24.272H174.134V32H172.022ZM173.078 23.024C172.736 23.024 172.454 22.912 172.23 22.688C172.006 22.4533 171.894 22.1653 171.894 21.824C171.894 21.4933 172.006 21.2107 172.23 20.976C172.454 20.7413 172.736 20.624 173.078 20.624C173.43 20.624 173.712 20.7413 173.926 20.976C174.15 21.2107 174.262 21.4933 174.262 21.824C174.262 22.1653 174.15 22.4533 173.926 22.688C173.712 22.912 173.43 23.024 173.078 23.024ZM181.191 32V27.568C181.191 27.1093 181.047 26.736 180.759 26.448C180.471 26.16 180.097 26.016 179.639 26.016C179.34 26.016 179.073 26.08 178.839 26.208C178.604 26.336 178.417 26.5173 178.279 26.752C178.151 26.9867 178.087 27.2587 178.087 27.568L177.271 27.152C177.271 26.544 177.399 26.016 177.655 25.568C177.921 25.1093 178.284 24.752 178.743 24.496C179.212 24.24 179.74 24.112 180.327 24.112C180.892 24.112 181.399 24.256 181.847 24.544C182.295 24.8213 182.647 25.1893 182.903 25.648C183.159 26.096 183.286 26.5813 183.286 27.104V32H181.191ZM175.991 32V24.272H178.087V32H175.991ZM188.671 32.16C187.86 32.16 187.14 31.9893 186.511 31.648C185.882 31.296 185.38 30.816 185.007 30.208C184.644 29.6 184.463 28.9067 184.463 28.128C184.463 27.36 184.639 26.6773 184.991 26.08C185.354 25.472 185.844 24.992 186.463 24.64C187.082 24.2773 187.77 24.096 188.527 24.096C189.274 24.096 189.93 24.2667 190.495 24.608C191.071 24.9387 191.519 25.3973 191.839 25.984C192.17 26.56 192.335 27.216 192.335 27.952C192.335 28.0907 192.324 28.2347 192.303 28.384C192.292 28.5227 192.266 28.6827 192.223 28.864L185.727 28.88V27.312L191.247 27.296L190.399 27.952C190.378 27.4933 190.292 27.1093 190.143 26.8C190.004 26.4907 189.796 26.256 189.519 26.096C189.252 25.9253 188.922 25.84 188.527 25.84C188.111 25.84 187.748 25.936 187.439 26.128C187.13 26.3093 186.89 26.5707 186.719 26.912C186.559 27.2427 186.479 27.6373 186.479 28.096C186.479 28.5653 186.564 28.976 186.735 29.328C186.916 29.6693 187.172 29.936 187.503 30.128C187.834 30.3093 188.218 30.4 188.655 30.4C189.05 30.4 189.407 30.336 189.727 30.208C190.047 30.0693 190.324 29.8667 190.559 29.6L191.791 30.832C191.418 31.2693 190.959 31.6 190.415 31.824C189.882 32.048 189.3 32.16 188.671 32.16Z" fill="#1E1E1E"/>
</svg>
