<svg width="51" height="35" viewBox="0 0 51 35" fill="none" xmlns="http://www.w3.org/2000/svg">
<path d="M0.5 16.2C0.5 10.4107 0.5 7.51599 1.66234 5.3207C2.60035 3.54913 4.04913 2.10035 5.8207 1.16234C8.01599 0 10.9107 0 16.7 0H34.3C40.0893 0 42.984 0 45.1793 1.16234C46.9509 2.10035 48.3997 3.54913 49.3377 5.3207C50.5 7.51599 50.5 10.4107 50.5 16.2V18.8C50.5 24.5893 50.5 27.484 49.3377 29.6793C48.3997 31.4509 46.9509 32.8997 45.1793 33.8377C42.984 35 40.0893 35 34.3 35H16.7C10.9107 35 8.01599 35 5.8207 33.8377C4.04913 32.8997 2.60035 31.4509 1.66234 29.6793C0.5 27.484 0.5 24.5893 0.5 18.8V16.2Z" fill="#383838"/>
<g clip-path="url(#clip0_371_540)">
<path d="M32.8333 12.1667V16.1667M32.8333 16.1667H28.8333M32.8333 16.1667L29.74 13.26C29.0235 12.5432 28.137 12.0195 27.1634 11.7379C26.1898 11.4562 25.1607 11.4258 24.1721 11.6495C23.1836 11.8732 22.2678 12.3436 21.5103 13.017C20.7527 13.6903 20.1781 14.5445 19.84 15.5M18.1666 22.8333V18.8333M18.1666 18.8333H22.1666M18.1666 18.8333L21.26 21.74C21.9765 22.4569 22.8629 22.9805 23.8365 23.2622C24.8101 23.5438 25.8392 23.5742 26.8278 23.3505C27.8163 23.1268 28.7321 22.6564 29.4896 21.9831C30.2472 21.3097 30.8218 20.4555 31.16 19.5" stroke="white" stroke-width="2" stroke-linecap="round" stroke-linejoin="round"/>
</g>
<defs>
<clipPath id="clip0_371_540">
<rect width="16" height="16" fill="white" transform="translate(17.5 9.5)"/>
</clipPath>
</defs>
</svg>
