<svg width="17" height="17" viewBox="0 0 17 17" fill="none" xmlns="http://www.w3.org/2000/svg">
<g clip-path="url(#clip0_344_75)">
<path d="M15.8333 3.16668V7.16668M15.8333 7.16668H11.8333M15.8333 7.16668L12.74 4.26001C12.0235 3.54315 11.137 3.01948 10.1634 2.73786C9.18979 2.45624 8.1607 2.42584 7.17215 2.64952C6.1836 2.87319 5.26783 3.34363 4.51027 4.01696C3.75271 4.69028 3.17807 5.54453 2.83996 6.50001M1.16663 13.8333V9.83334M1.16663 9.83334H5.16663M1.16663 9.83334L4.25996 12.74C4.97646 13.4569 5.86287 13.9805 6.8365 14.2622C7.81012 14.5438 8.83922 14.5742 9.82777 14.3505C10.8163 14.1268 11.7321 13.6564 12.4896 12.9831C13.2472 12.3097 13.8218 11.4555 14.16 10.5" stroke="white" stroke-width="2" stroke-linecap="round" stroke-linejoin="round"/>
</g>
<defs>
<clipPath id="clip0_344_75">
<rect width="16" height="16" fill="white" transform="translate(0.5 0.5)"/>
</clipPath>
</defs>
</svg>
