<svg width="42" height="32" viewBox="0 0 42 32" fill="none" xmlns="http://www.w3.org/2000/svg">
<path d="M1.08133 28.7291V27.6691H2.71133C3.04466 27.6691 3.30133 27.5858 3.48133 27.4191C3.668 27.2458 3.76133 27.0091 3.76133 26.7091C3.76133 26.4358 3.668 26.2091 3.48133 26.0291C3.30133 25.8424 3.04466 25.7491 2.71133 25.7491H1.08133V24.6391H2.83133C3.28466 24.6391 3.68133 24.7291 4.02133 24.9091C4.36799 25.0824 4.63466 25.3224 4.82133 25.6291C5.01466 25.9358 5.11133 26.2891 5.11133 26.6891C5.11133 27.1024 5.01466 27.4624 4.82133 27.7691C4.63466 28.0691 4.36799 28.3058 4.02133 28.4791C3.67466 28.6458 3.27133 28.7291 2.81133 28.7291H1.08133ZM0.0813282 31.6691V24.6391H1.44133V31.6691H0.0813282ZM3.92133 31.6691L1.60133 28.6291L2.85133 28.2391L5.57133 31.6691H3.92133ZM8.87438 31.7691C8.36771 31.7691 7.91771 31.6624 7.52438 31.4491C7.13104 31.2291 6.81771 30.9291 6.58438 30.5491C6.35771 30.1691 6.24438 29.7358 6.24438 29.2491C6.24438 28.7691 6.35438 28.3424 6.57438 27.9691C6.80104 27.5891 7.10771 27.2891 7.49438 27.0691C7.88104 26.8424 8.31104 26.7291 8.78438 26.7291C9.25104 26.7291 9.66104 26.8358 10.0144 27.0491C10.3744 27.2558 10.6544 27.5424 10.8544 27.9091C11.061 28.2691 11.1644 28.6791 11.1644 29.1391C11.1644 29.2258 11.1577 29.3158 11.1444 29.4091C11.1377 29.4958 11.121 29.5958 11.0944 29.7091L7.03438 29.7191V28.7391L10.4844 28.7291L9.95438 29.1391C9.94104 28.8524 9.88771 28.6124 9.79438 28.4191C9.70771 28.2258 9.57771 28.0791 9.40438 27.9791C9.23771 27.8724 9.03104 27.8191 8.78438 27.8191C8.52438 27.8191 8.29771 27.8791 8.10438 27.9991C7.91104 28.1124 7.76104 28.2758 7.65438 28.4891C7.55438 28.6958 7.50438 28.9424 7.50438 29.2291C7.50438 29.5224 7.55771 29.7791 7.66438 29.9991C7.77771 30.2124 7.93771 30.3791 8.14438 30.4991C8.35104 30.6124 8.59104 30.6691 8.86438 30.6691C9.11104 30.6691 9.33438 30.6291 9.53438 30.5491C9.73438 30.4624 9.90771 30.3358 10.0544 30.1691L10.8244 30.9391C10.591 31.2124 10.3044 31.4191 9.96438 31.5591C9.63104 31.6991 9.26771 31.7691 8.87438 31.7691ZM13.7059 31.6691L11.8959 26.8391H13.2159L14.3959 30.3491L13.9959 30.3591L15.2059 26.8391H16.1559L17.3659 30.3591L16.9659 30.3491L18.1459 26.8391H19.4659L17.6659 31.6691H16.7159L15.4959 28.3291H15.8659L14.6459 31.6691H13.7059ZM22.5141 31.7691C22.0741 31.7691 21.6774 31.6591 21.3241 31.4391C20.9707 31.2191 20.6941 30.9191 20.4941 30.5391C20.2941 30.1591 20.1941 29.7324 20.1941 29.2591C20.1941 28.7791 20.2941 28.3491 20.4941 27.9691C20.6941 27.5891 20.9707 27.2891 21.3241 27.0691C21.6774 26.8491 22.0741 26.7391 22.5141 26.7391C22.8607 26.7391 23.1707 26.8091 23.4441 26.9491C23.7174 27.0891 23.9341 27.2858 24.0941 27.5391C24.2607 27.7858 24.3507 28.0658 24.3641 28.3791V30.1191C24.3507 30.4391 24.2607 30.7224 24.0941 30.9691C23.9341 31.2158 23.7174 31.4124 23.4441 31.5591C23.1707 31.6991 22.8607 31.7691 22.5141 31.7691ZM22.7541 30.5591C23.1207 30.5591 23.4174 30.4391 23.6441 30.1991C23.8707 29.9524 23.9841 29.6358 23.9841 29.2491C23.9841 28.9958 23.9307 28.7724 23.8241 28.5791C23.7241 28.3791 23.5807 28.2258 23.3941 28.1191C23.2141 28.0058 23.0007 27.9491 22.7541 27.9491C22.5141 27.9491 22.3007 28.0058 22.1141 28.1191C21.9341 28.2258 21.7907 28.3791 21.6841 28.5791C21.5841 28.7724 21.5341 28.9958 21.5341 29.2491C21.5341 29.5091 21.5841 29.7391 21.6841 29.9391C21.7907 30.1324 21.9341 30.2858 22.1141 30.3991C22.3007 30.5058 22.5141 30.5591 22.7541 30.5591ZM23.9141 31.6691V30.3691L24.1241 29.1891L23.9141 28.0291V26.8391H25.2141V31.6691H23.9141ZM26.873 31.6691V26.8391H28.183V31.6691H26.873ZM28.183 28.9991L27.673 28.6591C27.733 28.0658 27.9063 27.5991 28.193 27.2591C28.4796 26.9124 28.893 26.7391 29.433 26.7391C29.6663 26.7391 29.8763 26.7791 30.063 26.8591C30.2496 26.9324 30.4196 27.0558 30.573 27.2291L29.753 28.1691C29.6796 28.0891 29.5896 28.0291 29.483 27.9891C29.383 27.9491 29.2663 27.9291 29.133 27.9291C28.853 27.9291 28.623 28.0191 28.443 28.1991C28.2696 28.3724 28.183 28.6391 28.183 28.9991ZM33.4364 31.7691C32.9897 31.7691 32.5897 31.6591 32.2364 31.4391C31.8831 31.2191 31.6031 30.9191 31.3964 30.5391C31.1964 30.1591 31.0964 29.7324 31.0964 29.2591C31.0964 28.7791 31.1964 28.3491 31.3964 27.9691C31.6031 27.5891 31.8797 27.2891 32.2264 27.0691C32.5797 26.8491 32.9831 26.7391 33.4364 26.7391C33.7831 26.7391 34.0931 26.8091 34.3664 26.9491C34.6464 27.0891 34.8697 27.2858 35.0364 27.5391C35.2097 27.7858 35.3031 28.0658 35.3164 28.3791V30.0991C35.3031 30.4124 35.2131 30.6958 35.0464 30.9491C34.8797 31.2024 34.6564 31.4024 34.3764 31.5491C34.0964 31.6958 33.7831 31.7691 33.4364 31.7691ZM33.6564 30.5591C33.9031 30.5591 34.1164 30.5058 34.2964 30.3991C34.4831 30.2858 34.6264 30.1324 34.7264 29.9391C34.8331 29.7391 34.8864 29.5091 34.8864 29.2491C34.8864 28.9958 34.8331 28.7724 34.7264 28.5791C34.6264 28.3791 34.4831 28.2258 34.2964 28.1191C34.1164 28.0058 33.9064 27.9491 33.6664 27.9491C33.4197 27.9491 33.2031 28.0058 33.0164 28.1191C32.8364 28.2324 32.6931 28.3858 32.5864 28.5791C32.4864 28.7724 32.4364 28.9958 32.4364 29.2491C32.4364 29.5091 32.4864 29.7391 32.5864 29.9391C32.6931 30.1324 32.8397 30.2858 33.0264 30.3991C33.2131 30.5058 33.4231 30.5591 33.6564 30.5591ZM36.1164 31.6691H34.8164V30.3691L35.0264 29.1891L34.8064 28.0291V24.4391H36.1164V31.6691ZM39.4353 31.7791C39.162 31.7791 38.892 31.7424 38.6253 31.6691C38.3653 31.5958 38.1253 31.4958 37.9053 31.3691C37.6853 31.2358 37.4953 31.0758 37.3353 30.8891L38.1153 30.0991C38.282 30.2858 38.4753 30.4258 38.6953 30.5191C38.9153 30.6124 39.1586 30.6591 39.4253 30.6591C39.6386 30.6591 39.7986 30.6291 39.9053 30.5691C40.0186 30.5091 40.0753 30.4191 40.0753 30.2991C40.0753 30.1658 40.0153 30.0624 39.8953 29.9891C39.782 29.9158 39.632 29.8558 39.4453 29.8091C39.2586 29.7558 39.062 29.6991 38.8553 29.6391C38.6553 29.5724 38.462 29.4891 38.2753 29.3891C38.0886 29.2824 37.9353 29.1391 37.8153 28.9591C37.702 28.7724 37.6453 28.5324 37.6453 28.2391C37.6453 27.9324 37.7186 27.6658 37.8653 27.4391C38.0186 27.2124 38.2353 27.0358 38.5153 26.9091C38.7953 26.7824 39.1253 26.7191 39.5053 26.7191C39.9053 26.7191 40.2653 26.7891 40.5853 26.9291C40.912 27.0691 41.182 27.2791 41.3953 27.5591L40.6053 28.3491C40.4586 28.1691 40.292 28.0391 40.1053 27.9591C39.9253 27.8791 39.7286 27.8391 39.5153 27.8391C39.322 27.8391 39.172 27.8691 39.0653 27.9291C38.9653 27.9891 38.9153 28.0724 38.9153 28.1791C38.9153 28.2991 38.972 28.3924 39.0853 28.4591C39.2053 28.5258 39.3586 28.5858 39.5453 28.6391C39.732 28.6858 39.9253 28.7424 40.1253 28.8091C40.332 28.8691 40.5253 28.9558 40.7053 29.0691C40.892 29.1824 41.042 29.3324 41.1553 29.5191C41.2753 29.7058 41.3353 29.9458 41.3353 30.2391C41.3353 30.7124 41.1653 31.0891 40.8253 31.3691C40.4853 31.6424 40.022 31.7791 39.4353 31.7791Z" fill="#808080"/>
<path d="M6.30005 6.36761C6.36818 6.18139 6.63161 6.18139 6.69974 6.36761L6.90327 6.92341C7.06289 7.35944 7.31567 7.75541 7.64399 8.08374C7.97232 8.41206 8.36829 8.66485 8.80432 8.82446L9.36013 9.028C9.54663 9.09612 9.54663 9.35955 9.36013 9.42768L8.80432 9.63121C8.36829 9.79083 7.97232 10.0436 7.64399 10.3719C7.31567 10.7003 7.06289 11.0962 6.90327 11.5323L6.69974 12.0881C6.63161 12.2746 6.36818 12.2746 6.30005 12.0881L6.09652 11.5323C5.9369 11.0962 5.68412 10.7003 5.3558 10.3719C5.02747 10.0436 4.6315 9.79083 4.19547 9.63121L3.63966 9.42768C3.45345 9.35955 3.45345 9.09612 3.63966 9.028L4.19547 8.82446C4.6315 8.66485 5.02747 8.41206 5.3558 8.08374C5.68412 7.75541 5.9369 7.35944 6.09652 6.92341L6.30005 6.36761Z" fill="#808080"/>
<path d="M22.295 0.727943L17.4347 4.7604L17.5746 7.58086L20.6526 9.31639L22.5931 18.0419L23.25 16.7523L23.9678 5.46659L25.1053 5.51454L24.5518 14.1922L26.2733 10.7978L26.7721 5.62001L26.8268 4.7604L22.295 0.727943ZM30.7504 3.1524L27.9157 5.58645L27.6785 8.03632L28.3233 6.78022L30.1725 6.12341C30.3671 5.13579 30.5557 4.14338 30.7504 3.1524ZM34.4184 5.60563L29.2053 7.44662L22.9641 19.7151L23.8522 23.7088H24.3267L33.3052 9.65678L34.3211 10.0595L25.5981 23.7088H27.0823L36 9.71911L34.4184 5.60563ZM13.7241 6.51174L10.4325 11.2629L14.6365 23.7088H20.3302L17.2218 10.5341L18.335 10.3711L21.486 23.7088H22.6965L19.6124 9.83417L13.7241 6.51174ZM35.5194 18.996L31.5168 18.7467L28.4875 23.5026L32.7334 21.7431L35.5194 18.996ZM9 17.6536L11.5834 23.7279H13.4686L11.7592 18.6748L9 17.6536Z" fill="#808080"/>
<path d="M36.8667 0.821051C36.9121 0.696907 37.0877 0.696907 37.1332 0.821051L37.2688 1.19159C37.3753 1.48227 37.5438 1.74626 37.7627 1.96514C37.9815 2.18402 38.2455 2.35254 38.5362 2.45896L38.9068 2.59464C39.0311 2.64006 39.0311 2.81568 38.9068 2.8611L38.5362 2.99679C38.2455 3.1032 37.9815 3.27172 37.7627 3.4906C37.5438 3.70949 37.3753 3.97347 37.2688 4.26415L37.1332 4.63469C37.0877 4.75903 36.9121 4.75903 36.8667 4.63469L36.731 4.26415C36.6246 3.97347 36.4561 3.70949 36.2372 3.4906C36.0183 3.27172 35.7543 3.1032 35.4636 2.99679L35.0931 2.8611C34.969 2.81568 34.969 2.64006 35.0931 2.59464L35.4636 2.45896C35.7543 2.35254 36.0183 2.18402 36.2372 1.96514C36.4561 1.74626 36.6246 1.48227 36.731 1.19159L36.8667 0.821051Z" fill="#808080"/>
</svg>
