<svg width="101" height="35" viewBox="0 0 101 35" fill="none" xmlns="http://www.w3.org/2000/svg">
<path d="M0.5 16.2C0.5 10.4107 0.5 7.51599 1.66234 5.3207C2.60035 3.54913 4.04913 2.10035 5.8207 1.16234C8.01599 0 10.9107 0 16.7 0H84.3C90.0893 0 92.984 0 95.1793 1.16234C96.9509 2.10035 98.3997 3.54913 99.3377 5.3207C100.5 7.51599 100.5 10.4107 100.5 16.2V18.8C100.5 24.5893 100.5 27.484 99.3377 29.6793C98.3997 31.4509 96.9509 32.8997 95.1793 33.8377C92.984 35 90.0893 35 84.3 35H16.7C10.9107 35 8.01599 35 5.8207 33.8377C4.04913 32.8997 2.60035 31.4509 1.66234 29.6793C0.5 27.484 0.5 24.5893 0.5 18.8V16.2Z" fill="#FF2361"/>
<path d="M31.152 23.5V12.252H33.328V23.5H31.152ZM40.6124 23.5V19.068C40.6124 18.6093 40.4684 18.236 40.1804 17.948C39.8924 17.66 39.519 17.516 39.0604 17.516C38.7617 17.516 38.495 17.58 38.2604 17.708C38.0257 17.836 37.839 18.0173 37.7004 18.252C37.5724 18.4867 37.5084 18.7587 37.5084 19.068L36.6924 18.652C36.6924 18.044 36.8204 17.516 37.0764 17.068C37.343 16.6093 37.7057 16.252 38.1644 15.996C38.6337 15.74 39.1617 15.612 39.7484 15.612C40.3137 15.612 40.8204 15.756 41.2684 16.044C41.7164 16.3213 42.0684 16.6893 42.3244 17.148C42.5804 17.596 42.7084 18.0813 42.7084 18.604V23.5H40.6124ZM35.4124 23.5V15.772H37.5084V23.5H35.4124ZM46.9088 23.5L43.5008 15.772H45.8048L48.2528 22.14H47.1168L49.5808 15.772H51.8048L48.4128 23.5H46.9088ZM52.7718 23.5V15.772H54.8838V23.5H52.7718ZM53.8278 14.524C53.4864 14.524 53.2038 14.412 52.9798 14.188C52.7558 13.9533 52.6438 13.6653 52.6438 13.324C52.6438 12.9933 52.7558 12.7107 52.9798 12.476C53.2038 12.2413 53.4864 12.124 53.8278 12.124C54.1798 12.124 54.4624 12.2413 54.6758 12.476C54.8998 12.7107 55.0118 12.9933 55.0118 13.324C55.0118 13.6653 54.8998 13.9533 54.6758 14.188C54.4624 14.412 54.1798 14.524 53.8278 14.524ZM57.8765 23.5V12.556H59.9725V23.5H57.8765ZM56.0685 17.612V15.772H61.7805V17.612H56.0685ZM66.4678 23.66C65.6571 23.66 64.9371 23.4893 64.3078 23.148C63.6784 22.796 63.1771 22.316 62.8038 21.708C62.4411 21.1 62.2598 20.4067 62.2598 19.628C62.2598 18.86 62.4358 18.1773 62.7878 17.58C63.1504 16.972 63.6411 16.492 64.2598 16.14C64.8784 15.7773 65.5664 15.596 66.3238 15.596C67.0704 15.596 67.7264 15.7667 68.2918 16.108C68.8678 16.4387 69.3158 16.8973 69.6358 17.484C69.9664 18.06 70.1318 18.716 70.1318 19.452C70.1318 19.5907 70.1211 19.7347 70.0998 19.884C70.0891 20.0227 70.0624 20.1827 70.0198 20.364L63.5238 20.38V18.812L69.0438 18.796L68.1958 19.452C68.1744 18.9933 68.0891 18.6093 67.9398 18.3C67.8011 17.9907 67.5931 17.756 67.3158 17.596C67.0491 17.4253 66.7184 17.34 66.3238 17.34C65.9078 17.34 65.5451 17.436 65.2358 17.628C64.9264 17.8093 64.6864 18.0707 64.5158 18.412C64.3558 18.7427 64.2758 19.1373 64.2758 19.596C64.2758 20.0653 64.3611 20.476 64.5318 20.828C64.7131 21.1693 64.9691 21.436 65.2998 21.628C65.6304 21.8093 66.0144 21.9 66.4518 21.9C66.8464 21.9 67.2038 21.836 67.5238 21.708C67.8438 21.5693 68.1211 21.3667 68.3558 21.1L69.5878 22.332C69.2144 22.7693 68.7558 23.1 68.2118 23.324C67.6784 23.548 67.0971 23.66 66.4678 23.66Z" fill="white"/>
</svg>
