<svg width="38" height="24" viewBox="0 0 38 24" fill="none" xmlns="http://www.w3.org/2000/svg">
<path d="M4.80005 6.13966C4.86818 5.95345 5.13161 5.95345 5.19974 6.13966L5.40327 6.69547C5.56289 7.1315 5.81567 7.52747 6.14399 7.8558C6.47232 8.18412 6.86829 8.4369 7.30432 8.59652L7.86013 8.80005C8.04663 8.86818 8.04663 9.13161 7.86013 9.19974L7.30432 9.40327C6.86829 9.56289 6.47232 9.81567 6.14399 10.144C5.81567 10.4723 5.56289 10.8683 5.40327 11.3043L5.19974 11.8601C5.13161 12.0466 4.86818 12.0466 4.80005 11.8601L4.59652 11.3043C4.4369 10.8683 4.18412 10.4723 3.8558 10.144C3.52747 9.81567 3.1315 9.56289 2.69547 9.40327L2.13966 9.19974C1.95345 9.13161 1.95345 8.86818 2.13966 8.80005L2.69547 8.59652C3.1315 8.4369 3.52747 8.18412 3.8558 7.8558C4.18412 7.52747 4.4369 7.1315 4.59652 6.69547L4.80005 6.13966Z" fill="#808080"/>
<path d="M20.795 0.5L15.9347 4.53246L16.0746 7.35292L19.1526 9.08844L21.0931 17.814L21.75 16.5243L22.4678 5.23865L23.6053 5.28659L23.0518 13.9642L24.7733 10.5699L25.2721 5.39207L25.3268 4.53246L20.795 0.5ZM29.2504 2.92446L26.4157 5.35851L26.1785 7.80838L26.8233 6.55228L28.6725 5.89546C28.8671 4.90785 29.0557 3.91543 29.2504 2.92446ZM32.9184 5.37768L27.7053 7.21868L21.4641 19.4872L22.3522 23.4808H22.8267L31.8052 9.42884L32.8211 9.83156L24.0981 23.4808H25.5823L34.5 9.49116L32.9184 5.37768ZM12.2241 6.2838L8.93255 11.0349L13.1365 23.4808H18.8302L15.7218 10.3062L16.835 10.1432L19.986 23.4808H21.1965L18.1124 9.60623L12.2241 6.2838ZM34.0194 18.7681L30.0168 18.5188L26.9875 23.2747L31.2334 21.5152L34.0194 18.7681ZM7.5 17.4257L10.0834 23.5H11.9686L10.2592 18.4468L7.5 17.4257Z" fill="#808080"/>
<path d="M35.3667 0.593108C35.4121 0.468964 35.5877 0.468964 35.6332 0.593108L35.7688 0.963647C35.8753 1.25433 36.0438 1.51831 36.2627 1.7372C36.4815 1.95608 36.7455 2.1246 37.0362 2.23101L37.4068 2.3667C37.5311 2.41212 37.5311 2.58774 37.4068 2.63316L37.0362 2.76884C36.7455 2.87526 36.4815 3.04378 36.2627 3.26266C36.0438 3.48155 35.8753 3.74553 35.7688 4.03621L35.6332 4.40675C35.5877 4.53108 35.4121 4.53108 35.3667 4.40675L35.231 4.03621C35.1246 3.74553 34.9561 3.48155 34.7372 3.26266C34.5183 3.04378 34.2543 2.87526 33.9636 2.76884L33.5931 2.63316C33.469 2.58774 33.469 2.41212 33.5931 2.3667L33.9636 2.23101C34.2543 2.1246 34.5183 1.95608 34.7372 1.7372C34.9561 1.51831 35.1246 1.25433 35.231 0.963647L35.3667 0.593108Z" fill="#808080"/>
</svg>
